<svg width="93" height="93" viewBox="0 0 93 93" fill="none" xmlns="http://www.w3.org/2000/svg">
<g opacity="0.7">
<path d="M73.625 11.625H31C24.5907 11.625 19.375 16.8407 19.375 23.25V27.125H15.5C14.4723 27.125 13.4867 27.5333 12.76 28.26C12.0333 28.9867 11.625 29.9723 11.625 31C11.625 32.0277 12.0333 33.0133 12.76 33.74C13.4867 34.4667 14.4723 34.875 15.5 34.875H19.375V42.625H15.5C14.4723 42.625 13.4867 43.0333 12.76 43.76C12.0333 44.4867 11.625 45.4723 11.625 46.5C11.625 47.5277 12.0333 48.5133 12.76 49.24C13.4867 49.9667 14.4723 50.375 15.5 50.375H19.375V58.125H15.5C14.4723 58.125 13.4867 58.5333 12.76 59.26C12.0333 59.9867 11.625 60.9723 11.625 62C11.625 63.0277 12.0333 64.0133 12.76 64.74C13.4867 65.4667 14.4723 65.875 15.5 65.875H19.375V69.75C19.375 76.1592 24.5907 81.375 31 81.375H73.625C80.0342 81.375 85.25 76.1592 85.25 69.75V23.25C85.25 16.8407 80.0342 11.625 73.625 11.625ZM27.125 23.25C27.125 21.1149 28.8649 19.375 31 19.375V27.125H27.125V23.25ZM27.125 34.875H31V42.625H27.125V34.875ZM27.125 50.375H31V58.125H27.125V50.375ZM27.125 69.75V65.875H31V73.625C28.8649 73.625 27.125 71.8851 27.125 69.75ZM77.5 69.75C77.5 71.8851 75.7601 73.625 73.625 73.625H34.875V19.375H73.625C75.7601 19.375 77.5 21.1149 77.5 23.25V69.75Z" fill="#E56846"/>
<path d="M54.25 48.4375C58.5302 48.4375 62 44.9677 62 40.6875C62 36.4073 58.5302 32.9375 54.25 32.9375C49.9698 32.9375 46.5 36.4073 46.5 40.6875C46.5 44.9677 49.9698 48.4375 54.25 48.4375Z" fill="#E56846"/>
<path d="M54.25 51.7545C48.1972 51.7545 44.5625 54.5251 44.5625 57.2919C44.5625 58.6753 48.1972 60.0625 54.25 60.0625C59.9307 60.0625 63.9375 58.6791 63.9375 57.2919C63.9375 54.5251 60.14 51.7545 54.25 51.7545Z" fill="#E56846"/>
</g>
</svg>
