<svg width="93" height="93" viewBox="0 0 93 93" fill="none" xmlns="http://www.w3.org/2000/svg">
<g opacity="0.7">
<path d="M62 65.875V73.625H7.75V65.875C7.75 65.875 7.75 50.375 34.875 50.375C62 50.375 62 65.875 62 65.875ZM48.4375 29.0625C48.4375 26.3801 47.6421 23.7579 46.1518 21.5276C44.6615 19.2972 42.5434 17.5589 40.0651 16.5324C37.5869 15.5059 34.86 15.2373 32.2291 15.7606C29.5982 16.2839 27.1816 17.5756 25.2849 19.4724C23.3881 21.3691 22.0964 23.7857 21.5731 26.4166C21.0498 29.0474 21.3184 31.7744 22.3449 34.2526C23.3714 36.7309 25.1097 38.849 27.3401 40.3393C29.5704 41.8296 32.1926 42.625 34.875 42.625C38.472 42.625 41.9217 41.1961 44.4651 38.6526C47.0086 36.1092 48.4375 32.6595 48.4375 29.0625ZM61.7675 50.375C64.1497 52.2185 66.0989 54.5617 67.478 57.2396C68.8571 59.9175 69.6326 62.8651 69.75 65.875V73.625H85.25V65.875C85.25 65.875 85.25 51.8087 61.7675 50.375ZM58.125 15.5C55.4578 15.4851 52.8492 16.2826 50.6462 17.7862C53.0001 21.0751 54.2657 25.0181 54.2657 29.0625C54.2657 33.1069 53.0001 37.0499 50.6462 40.3387C52.8492 41.8424 55.4578 42.6398 58.125 42.625C61.722 42.625 65.1717 41.1961 67.7151 38.6526C70.2586 36.1092 71.6875 32.6595 71.6875 29.0625C71.6875 25.4655 70.2586 22.0158 67.7151 19.4724C65.1717 16.9289 61.722 15.5 58.125 15.5Z" fill="#E56846"/>
</g>
</svg>
