<?xml version="1.0" encoding="UTF-8"?>
<svg version="1.1" xmlns="http://www.w3.org/2000/svg" width="412" height="510">
<path d="M0 0 C1.42492113 -0.00128164 1.42492113 -0.00128164 2.87862855 -0.00258917 C6.07546144 -0.00424194 9.27224235 0.00127413 12.46907043 0.00672913 C14.75519815 0.00701107 17.04132595 0.00685313 19.32745361 0.00628662 C25.54609379 0.00599892 31.7647148 0.0118913 37.98335052 0.01886058 C44.47763838 0.0250986 50.97192665 0.02569827 57.46621704 0.02688599 C68.37049197 0.02964408 79.2747598 0.03589646 90.17903137 0.04481506 C101.41112737 0.05399225 112.64322145 0.06107158 123.87532043 0.06532288 C124.91361264 0.06571696 124.91361264 0.06571696 125.97288045 0.06611901 C129.44537306 0.06742403 132.91786569 0.06868774 136.39035833 0.06993091 C165.20411664 0.08029983 194.01786778 0.09798919 222.83161926 0.12025452 C222.83161926 1.11025452 222.83161926 2.10025452 222.83161926 3.12025452 C223.43707581 3.23224182 224.04253235 3.34422913 224.66633606 3.45960999 C228.23531124 4.54853172 230.24309331 7.52319211 232.64411926 10.24525452 C239.60342737 17.93258384 246.89482162 25.25827425 254.27146912 32.54096985 C255.25043506 33.50752332 256.22841199 34.4750796 257.20536804 35.44366455 C258.5173146 36.74424393 259.83243064 38.04162394 261.14778137 39.33876038 C263.15891688 41.42307465 265.04834938 43.51526804 266.92903137 45.71107483 C271.85106944 51.38209069 277.19077963 56.643781 282.49568176 61.95228577 C283.61720254 63.07702679 284.73865103 64.20183991 285.86003113 65.32672119 C288.19645244 67.66909206 290.53489218 70.00942614 292.87458801 72.348526 C295.86657087 75.34040672 298.85158195 78.33914196 301.8349247 81.3396349 C304.14266579 83.65850242 306.45494562 85.97280272 308.76852036 88.28584862 C309.87129411 89.38979874 310.97245527 90.49536228 312.07193375 91.60259438 C313.60771255 93.14819917 315.14973247 94.68730608 316.69343567 96.22499084 C317.5672287 97.10020889 318.44102173 97.97542694 319.34129333 98.87716675 C321.72410235 101.02341182 324.05660676 102.53706846 326.83161926 104.12025452 C328.3755483 105.53199785 329.87555722 106.99304966 331.33161926 108.49525452 C332.11279114 109.29447327 332.89396301 110.09369202 333.69880676 110.91712952 C334.40263489 111.64416077 335.10646301 112.37119202 335.83161926 113.12025452 C336.69786926 113.98650452 337.56411926 114.85275452 338.45661926 115.74525452 C339.24036926 116.52900452 340.02411926 117.31275452 340.83161926 118.12025452 C341.3975177 118.6397467 341.96341614 119.15923889 342.54646301 119.69447327 C348.90828374 125.67969572 352.53452867 131.93842907 352.96042043 140.8003338 C352.962209 141.77399713 352.96399757 142.74766046 352.96584034 143.75082874 C352.97029818 144.87953697 352.97475603 146.0082452 352.97934896 147.1711567 C352.97907241 149.02394039 352.97907241 149.02394039 352.97879028 150.91415405 C352.98246697 152.23020809 352.98614366 153.54626212 352.98993176 154.90219659 C352.99993255 158.55412147 353.00366548 162.20602991 353.00632107 165.85796654 C353.01022999 169.79756053 353.0198081 173.73714158 353.02853394 177.67672729 C353.04828462 187.19204341 353.05836404 196.70736056 353.06726173 206.22269204 C353.07164803 210.70799359 353.07701406 215.19329397 353.0822506 219.67859459 C353.09926358 234.59738704 353.11375558 249.51617877 353.12099934 264.43497944 C353.12290912 268.30541294 353.12482946 272.17584643 353.12678528 276.04627991 C353.12726902 277.00821462 353.12775276 277.97014933 353.12825116 278.96123358 C353.13654331 294.52800578 353.16186614 310.09470093 353.19436596 325.66143952 C353.2274899 341.65813215 353.24545302 357.65478571 353.24864358 373.6515128 C353.25080404 382.62703077 353.25948421 391.60243647 353.28510475 400.57792091 C353.30688497 408.22558823 353.31482646 415.87311601 353.30513797 423.52081082 C353.30061399 427.41752459 353.30236729 431.31395094 353.32189941 435.21062469 C353.51092162 475.18376494 353.51092162 475.18376494 342.83161926 489.12025452 C341.50030917 489.7909524 340.16709964 490.45789933 338.83161926 491.12025452 C338.52740051 491.74802795 338.22318176 492.37580139 337.90974426 493.02259827 C334.74440176 499.18125379 323.93047753 503.72688549 317.58352822 505.88447231 C310.28465876 508.06753229 303.58881753 508.55211432 295.99954224 508.52139282 C294.75186559 508.52818949 293.50418895 508.53498616 292.21870393 508.54198879 C288.78540734 508.55760142 285.35258518 508.55995973 281.91928732 508.55640566 C278.20472311 508.55578987 274.49022749 508.57238561 270.7756958 508.58657837 C263.50933475 508.61141871 256.24304674 508.61973929 248.97664676 508.6214155 C243.06551795 508.62284477 237.15441308 508.62902784 231.24329185 508.63851738 C214.45603625 508.66491561 197.66883801 508.67877888 180.8815615 508.67652596 C179.52616504 508.67634615 179.52616504 508.67634615 178.14338684 508.67616272 C177.2386762 508.67604008 176.33396557 508.67591744 175.40183946 508.67579108 C160.74716636 508.6745723 146.09272473 508.70327109 131.43811855 508.74557782 C116.36331118 508.7887516 101.28861649 508.80938385 86.21374577 508.80679649 C77.7614092 508.80580341 69.3093153 508.81391953 60.85703468 508.84633064 C53.65959552 508.87375477 46.46250903 508.88008296 39.26504002 508.85980237 C35.59902707 508.85006074 31.9336893 508.84963608 28.26774216 508.87586212 C-7.26418337 509.11424483 -7.26418337 509.11424483 -21.16838074 496.12025452 C-21.85287292 495.52470764 -22.53736511 494.92916077 -23.24259949 494.31556702 C-28.43886411 489.53231418 -31.55139042 484.6533839 -34.16838074 478.12025452 C-34.54994324 477.18826233 -34.93150574 476.25627014 -35.32463074 475.29603577 C-37.47794588 469.2898246 -38.49245191 463.45683108 -38.76768494 457.10263062 C-38.80637467 456.25904096 -38.84506441 455.4154513 -38.88492656 454.54629833 C-39.48033932 439.41676961 -39.32591684 424.25567017 -39.3284235 409.11708891 C-39.33029508 404.24116643 -39.33785197 399.36525189 -39.34455872 394.48933411 C-39.35805094 383.86381824 -39.36415079 373.23830619 -39.36856937 362.61278319 C-39.37134408 355.96912225 -39.37558327 349.32546273 -39.38007355 342.68180275 C-39.39224817 324.25556499 -39.40255499 305.82932836 -39.40594864 287.40308666 C-39.4061682 286.2275504 -39.40638777 285.05201413 -39.40661399 283.84085556 C-39.40683227 282.66269531 -39.40705055 281.48453505 -39.40727544 280.27067298 C-39.40771889 277.88370081 -39.40816545 275.49672864 -39.40861511 273.10975647 C-39.40883654 271.92576463 -39.40905797 270.7417728 -39.40928611 269.52190242 C-39.41323932 250.31154003 -39.43071736 231.10121544 -39.45397463 211.89086767 C-39.47770725 192.1273737 -39.49015115 172.36389871 -39.49131656 152.60039026 C-39.49223158 141.51972753 -39.49794156 130.43911426 -39.51613617 119.35846519 C-39.53156209 109.93176692 -39.53664244 100.50513345 -39.52839807 91.07842495 C-39.52450209 86.27447169 -39.52537006 81.47064886 -39.53945541 76.66671181 C-39.55225545 72.26079203 -39.55094377 67.8550999 -39.5388647 63.44918016 C-39.53691839 61.86405505 -39.53993625 60.27891347 -39.54870906 58.69381144 C-39.61466187 45.96113192 -38.89298166 33.02555625 -32.79338074 21.55775452 C-32.22877136 20.46334045 -31.66416199 19.36892639 -31.08244324 18.24134827 C-27.86403736 12.99337623 -24.63589815 9.1143712 -19.16838074 6.12025452 C-17.36547235 4.83987046 -15.58870771 3.52909592 -13.81681824 2.20619202 C-9.56772474 -0.59297384 -4.87507692 -0.01588472 0 0 Z M1.83161926 34.12025452 C-1.82061357 38.65137827 -2.66881997 41.68647999 -2.6717453 47.46354675 C-2.67755906 48.18454268 -2.68337283 48.90553861 -2.68936276 49.6483829 C-2.70396532 52.06529162 -2.69007708 54.48118517 -2.67631531 56.89808655 C-2.68092414 58.64790936 -2.68727693 60.3977283 -2.69522429 62.14753914 C-2.71194322 66.95677187 -2.70365957 71.76568765 -2.69127941 76.57492161 C-2.68224175 81.76109543 -2.69619227 86.94721415 -2.7071991 92.13337708 C-2.72500261 102.29339995 -2.72113616 112.45330474 -2.70954853 122.61333227 C-2.7005217 130.86925063 -2.69928696 139.12513586 -2.7036438 147.38105774 C-2.70425673 148.55526563 -2.70486966 149.72947352 -2.70550117 150.93926346 C-2.70678005 153.32450788 -2.7080769 155.70975229 -2.70939153 158.09499669 C-2.7208027 180.47105017 -2.70767519 202.84703814 -2.68619007 225.22308087 C-2.66831862 244.43037469 -2.67142257 263.63757182 -2.68986511 282.84486389 C-2.71126233 305.13984965 -2.71970402 327.43477797 -2.70741606 349.72977257 C-2.70614184 352.10633213 -2.70488435 354.48289171 -2.7036438 356.85945129 C-2.7030267 358.02881985 -2.70240959 359.1981884 -2.70177379 360.40299237 C-2.69831745 368.6507404 -2.70415537 376.89845206 -2.71356201 385.14619446 C-2.7247706 395.1949484 -2.72176593 405.24357733 -2.70043904 415.29231691 C-2.68991331 420.42114678 -2.68583277 425.54976808 -2.69903564 430.6785965 C-2.71093377 435.37148987 -2.70443962 440.06398086 -2.68312544 444.75683761 C-2.67864842 446.45661513 -2.68095022 448.15642647 -2.69062859 449.85618234 C-2.70276152 452.1635949 -2.69035058 454.46962243 -2.6717453 456.77696228 C-2.67109589 458.05944288 -2.67044648 459.34192348 -2.66977739 460.66326714 C-2.07400674 464.77093639 -0.76141523 466.91384574 1.83161926 470.12025452 C5.00696955 472.23715471 5.79407793 472.37425394 9.43066406 472.39872742 C10.38118275 472.40989247 11.33170143 472.42105753 12.31102371 472.43256092 C13.88199121 472.43579884 13.88199121 472.43579884 15.48469543 472.43910217 C16.59687817 472.44913363 17.7090609 472.4591651 18.85494614 472.46950054 C22.61148799 472.50074457 26.36795555 472.5175498 30.12458801 472.53431702 C32.82329136 472.55336038 35.52198118 472.57313701 38.22067261 472.59368896 C45.60640822 472.64763508 52.99217902 472.68627118 60.37802124 472.72215652 C65.00795544 472.74478038 69.63786521 472.77097262 74.26777649 472.7978363 C92.45340146 472.90253461 110.63905599 472.98688847 128.82484627 473.05694294 C137.83405873 473.09171461 146.84325212 473.1285687 155.85243225 473.17097473 C176.2143742 473.26658919 196.57622685 473.34924687 216.93835354 473.39346695 C218.73998455 473.39741095 220.54161552 473.40137183 222.34324646 473.40534973 C223.23101817 473.40730543 224.11878989 473.40926114 225.03346378 473.4112761 C231.29690612 473.42605192 237.56026236 473.45083141 243.82365417 473.47969055 C251.49047841 473.51481496 259.15718148 473.53565318 266.82408839 473.53828198 C270.75519384 473.53999282 274.6860072 473.54812307 278.61703682 473.57356834 C282.23143324 473.59675035 285.84536003 473.60117422 289.45981181 473.59093928 C291.38609748 473.59025078 293.31235928 473.60927245 295.23854351 473.62905312 C303.05223979 473.58204138 309.05776009 472.89411369 314.83161926 467.12025452 C315.77740865 463.61797184 315.95613724 460.30995224 315.95466709 456.69486523 C315.95665814 455.61202415 315.95864919 454.52918307 315.96070057 453.41352862 C315.95633131 451.63775682 315.95633131 451.63775682 315.95187378 449.82611084 C315.9527282 448.56410459 315.95358263 447.30209834 315.95446295 446.00184947 C315.95669875 442.50145001 315.9526991 439.00108114 315.94768488 435.50068557 C315.94336748 431.7250054 315.94482773 427.94932696 315.94558716 424.17364502 C315.94611157 417.63284585 315.94297336 411.09205665 315.93734932 404.55125999 C315.92922318 395.09435973 315.92661795 385.6374643 315.92536133 376.18056092 C315.92317256 360.83745801 315.91651722 345.49436041 315.90705872 330.15126038 C315.89788007 315.24663825 315.89080144 300.34201757 315.8865509 285.43739319 C315.88628818 284.51871217 315.88602546 283.60003115 315.88575477 282.65351131 C315.88444974 278.04477054 315.88318603 273.43602977 315.88194287 268.82728899 C315.87157572 230.59160711 315.85396216 192.35593116 315.83161926 154.12025452 C314.9378508 154.11216766 314.04408234 154.10408081 313.12322998 154.0957489 C304.63657176 154.01730807 296.15006163 153.9298751 287.66359615 153.83272743 C283.30223612 153.78310815 278.94089638 153.73677985 274.579422 153.69837952 C270.35824763 153.66108656 266.13725895 153.6146178 261.91624641 153.56219101 C260.31822073 153.54387762 258.72015562 153.52868798 257.12206841 153.51691055 C239.60270335 153.38336599 221.9402233 152.91909121 207.80036926 141.13587952 C198.65676778 131.77457324 195.72310257 119.5111469 195.626297 106.81996155 C195.6163974 106.00953903 195.6064978 105.19911652 195.59629822 104.36413574 C195.56486907 101.70214191 195.53999977 99.04013028 195.51521301 96.37806702 C195.49462741 94.52575737 195.47363053 92.67345226 195.45223999 90.82115173 C195.39718516 85.95834533 195.34770307 81.0954977 195.2993927 76.23262024 C195.24905618 71.26544041 195.19343368 66.29832006 195.13825989 61.33119202 C195.03088137 51.59426373 194.92939173 41.85728367 194.83161926 32.12025452 C191.86844671 30.63866824 188.85714417 30.97584706 185.60816956 30.97981262 C184.85523691 30.9768415 184.10230427 30.97387038 183.32655549 30.97080922 C180.79014638 30.96210078 178.25378435 30.96061216 175.71736145 30.9591217 C173.9041636 30.95449499 172.09096673 30.94947054 170.277771 30.94407654 C165.34169395 30.93093514 160.40563051 30.92450403 155.46953869 30.92006588 C152.38696547 30.91713756 149.30439599 30.91303319 146.22182465 30.90856171 C136.58107131 30.89488133 126.9403265 30.88521769 117.29956412 30.88135982 C106.16381084 30.87687953 95.02818034 30.85933525 83.8924644 30.83035922 C75.29027579 30.8087514 66.68812173 30.79865599 58.08590627 30.7973187 C52.94592783 30.79626989 47.80606472 30.79034627 42.66611481 30.77249908 C37.82999702 30.7560343 32.99408144 30.75385518 28.15794563 30.76263809 C26.38342053 30.76340936 24.60888463 30.75905397 22.83438683 30.74917984 C20.41035122 30.73648318 17.98703418 30.74232447 15.56300354 30.75276184 C14.86201939 30.74470544 14.16103525 30.73664903 13.43880916 30.72834849 C8.82801839 30.77472689 5.67085176 31.55035069 1.83161926 34.12025452 Z M225.83161926 52.12025452 C225.80616501 59.6458819 225.78870868 67.17149808 225.77668762 74.69715881 C225.77167363 77.25478022 225.76486078 79.81239879 225.75617981 82.37001038 C225.74398544 86.05629684 225.73836148 89.74254524 225.73396301 93.42884827 C225.72880173 94.56358078 225.72364044 95.69831329 225.71832275 96.86743164 C225.32260181 107.88143104 225.32260181 107.88143104 228.58161926 118.05775452 C233.8766157 122.91150125 239.59099304 122.40030514 246.39802551 122.35072327 C247.42790085 122.35026505 248.45777618 122.34980682 249.51885986 122.34933472 C251.6984014 122.34631675 253.87794087 122.33844407 256.05744934 122.32606506 C259.35790347 122.30795326 262.65807401 122.30555463 265.95857239 122.30580139 C268.08422581 122.30087976 270.20987735 122.29504865 272.33552551 122.28822327 C273.30784622 122.28711044 274.28016693 122.28599762 275.2819519 122.28485107 C282.17069631 122.23829234 288.97506451 121.77738518 295.83161926 121.12025452 C294.46864587 117.98025731 293.02764716 116.19464882 290.38484192 114.04017639 C284.96458583 109.44730192 279.9946108 104.4278201 274.98005676 99.40150452 C273.95225819 98.3743815 272.92431138 97.34740681 271.89622498 96.3205719 C269.75489943 94.18071082 267.6153676 92.03907706 265.47712708 89.89613342 C262.75286596 87.16616854 260.02412875 84.44072893 257.29402733 81.71660614 C255.17482134 79.60103353 253.05802723 77.48306048 250.94192886 75.36437988 C249.93725838 74.35904817 248.93186082 73.35444245 247.92568588 72.35061646 C242.66952767 67.10404497 237.57512504 61.83604329 232.83161926 56.12025452 C230.79116963 53.74233473 230.79116963 53.74233473 228.83161926 52.12025452 C227.84161926 52.12025452 226.85161926 52.12025452 225.83161926 52.12025452 Z " fill="#060606" transform="translate(50.16838073730469,-0.1202545166015625)"/>
<path d="M0 0 C3.69807868 1.37602928 5.82799322 3.27349354 8.6875 6 C8.6875 6.66 8.6875 7.32 8.6875 8 C9.46222656 8.23460937 10.23695313 8.46921875 11.03515625 8.7109375 C15.86533567 10.41570671 20.47586459 12.48125011 25.125 14.625 C26.04087891 15.02589844 26.95675781 15.42679688 27.90039062 15.83984375 C36.18051809 19.67973057 41.40869729 24.41951994 44.9453125 32.92578125 C45.5891268 34.71378623 46.21087406 36.50986168 46.8125 38.3125 C47.14451416 39.26874268 47.47652832 40.22498535 47.81860352 41.21020508 C58.62555161 72.95413929 58.62555161 72.95413929 55.6875 84 C36.4079697 84.02332767 17.12844226 84.04097853 -2.15109921 84.05181217 C-11.10228382 84.05697541 -20.05345968 84.06401863 -29.00463867 84.07543945 C-36.80360388 84.08538545 -44.60256276 84.09185322 -52.40153414 84.09408849 C-56.53362186 84.09539575 -60.66569144 84.09848251 -64.79777336 84.10573006 C-68.68251526 84.11248894 -72.56723146 84.11461723 -76.45197868 84.11310768 C-77.88189839 84.11338407 -79.31181891 84.11538998 -80.74173355 84.11920547 C-82.68568051 84.12414059 -84.62964109 84.12239805 -86.57359314 84.12025452 C-87.66407424 84.12117631 -88.75455534 84.1220981 -89.87808132 84.12304783 C-92.3125 84 -92.3125 84 -93.3125 83 C-94.28220674 74.41116884 -93.0391455 66.51564847 -91.0625 58.1875 C-90.85802246 57.31706055 -90.65354492 56.44662109 -90.44287109 55.54980469 C-89.17489609 50.50665693 -87.52138561 45.88559904 -85.32080078 41.17651367 C-84.33011417 39.03802187 -83.43796575 36.88080572 -82.56640625 34.69140625 C-82.28603516 34.00755859 -82.00566406 33.32371094 -81.71679688 32.61914062 C-81.14654889 31.22593616 -80.58961729 29.82721985 -80.04492188 28.42382812 C-78.64907134 25.07953634 -77.83512208 23.28268081 -74.58984375 21.52734375 C-73.46255859 21.26630859 -73.46255859 21.26630859 -72.3125 21 C-72.3125 20.34 -72.3125 19.68 -72.3125 19 C-57.55431406 11.9860184 -57.55431406 11.9860184 -52.75 10.3125 C-48.7114377 8.77050349 -44.33359308 7.04218616 -42.3125 3 C-41.6525 3 -40.9925 3 -40.3125 3 C-40.3125 2.34 -40.3125 1.68 -40.3125 1 C-36.95617906 0.6044336 -35.62300405 0.78167684 -32.8125 2.7578125 C-31.9875 3.53898438 -31.1625 4.32015625 -30.3125 5.125 C-29.4875 5.89070312 -28.6625 6.65640625 -27.8125 7.4453125 C-26.575 8.70988281 -26.575 8.70988281 -25.3125 10 C-24.38308594 10.88171875 -23.45367187 11.7634375 -22.49609375 12.671875 C-19.44979693 17.31488912 -19.88649765 20.73658376 -20.375 26.125 C-20.44082275 27.05844238 -20.50664551 27.99188477 -20.57446289 28.95361328 C-21.17989716 36.88693735 -21.97815264 44.76148486 -24.375 52.375 C-25.99486833 58.63849088 -27.72842919 66.1486726 -25.43359375 72.390625 C-23.05222755 75.94401155 -20.43608941 77.93964844 -16.3125 79 C-15.9103125 78.195625 -15.9103125 78.195625 -15.5 77.375 C-14.62852894 75.63205788 -13.6788448 73.92766043 -12.6875 72.25 C-9.81700075 65.46518359 -11.62438815 58.66851096 -13.1875 51.75 C-14.71451191 44.56716312 -15.88181702 37.43183371 -16.625 30.125 C-16.71313965 29.29967773 -16.8012793 28.47435547 -16.89208984 27.62402344 C-17.85593519 17.31321866 -17.85593519 17.31321866 -14.75390625 12.6640625 C-14.13386719 11.99117187 -13.51382813 11.31828125 -12.875 10.625 C-11.94880859 9.59246094 -11.94880859 9.59246094 -11.00390625 8.5390625 C-9.3125 7 -9.3125 7 -7.3125 7 C-6.9103125 6.1028125 -6.9103125 6.1028125 -6.5 5.1875 C-3.68392857 0 -3.68392857 0 0 0 Z " fill="#040404" transform="translate(187.3125,158)"/>
<path d="M0 0 C8.7086297 0.17382494 17.57377518 3.41553581 24.1796875 9.05859375 C35.00880438 20.84802854 36.65910451 32.46383037 36.04150391 47.89868164 C35.29338513 61.9178998 31.92650942 74.94257179 23.25 86.3125 C21.765 86.8075 21.765 86.8075 20.25 87.3125 C19.93675781 87.93898438 19.62351562 88.56546875 19.30078125 89.2109375 C18.03530188 91.74189624 16.85032329 92.50733706 14.4375 93.9375 C13.77105469 94.34226562 13.10460937 94.74703125 12.41796875 95.1640625 C3.82841879 99.71420248 -6.2935093 99.74696672 -15.61328125 97.296875 C-20.38736861 95.50186141 -24.89337252 93.72941698 -28.75 90.3125 C-28.75 89.6525 -28.75 88.9925 -28.75 88.3125 C-29.41 88.3125 -30.07 88.3125 -30.75 88.3125 C-40.57749827 70.62581096 -46.33780838 55.80182062 -45.75 35.3125 C-45.73324219 34.30703125 -45.71648437 33.3015625 -45.69921875 32.265625 C-45.2519333 22.19531258 -41.75167949 15.86357303 -34.69140625 8.8203125 C-25.16947894 1.42501282 -11.61114728 0.96759561 0 0 Z " fill="#040404" transform="translate(173.75,58.6875)"/>
<path d="M0 0 C14.04264599 -0.07746306 28.08525147 -0.13927454 42.1280508 -0.18134308 C43.70820047 -0.18609472 45.28835013 -0.19085292 46.86849976 -0.19561768 C47.65000517 -0.19795599 48.43151058 -0.2002943 49.23669797 -0.20270348 C54.77027869 -0.22003787 60.30378045 -0.2460529 65.83731079 -0.27508545 C72.67217065 -0.31054135 79.50689336 -0.33082879 86.34184742 -0.3329795 C89.88928615 -0.33445318 93.43639745 -0.34250558 96.9837532 -0.36779594 C100.88273682 -0.39532218 104.78133738 -0.39137766 108.68041992 -0.38452148 C109.82326856 -0.39733595 110.96611719 -0.41015041 112.1435976 -0.4233532 C118.61718896 -0.38083497 122.66868815 0.16568031 127.90527344 4.08544922 C131.37781185 8.90219605 131.24725819 13.3857033 130.90527344 19.08544922 C130.24527344 19.08544922 129.58527344 19.08544922 128.90527344 19.08544922 C128.69902344 19.70419922 128.49277344 20.32294922 128.28027344 20.96044922 C126.29784585 24.02420095 124.40817981 24.17217554 120.90527344 25.08544922 C118.15355428 25.31638091 115.49423092 25.4542936 112.74072266 25.49511719 C111.91737553 25.51419254 111.0940284 25.5332679 110.24573135 25.5529213 C107.44224378 25.61363294 104.63876071 25.65880965 101.83496094 25.70263672 C100.83672176 25.7210751 99.83848259 25.73951347 98.80999374 25.75851059 C67.43625097 26.33616525 36.0516542 26.23633002 4.6739099 26.21401954 C-2.18000053 26.20965446 -9.03389271 26.21279604 -15.887802 26.21764672 C-22.6091318 26.2222076 -29.33045379 26.22281589 -36.05178463 26.22020805 C-40.01935897 26.21867006 -43.98692099 26.21838315 -47.95449448 26.22174454 C-92.05811935 26.25334376 -92.05811935 26.25334376 -100.09472656 22.08544922 C-102.74482203 17.86185957 -103.84070621 14.01102758 -102.8256073 9.12649536 C-101.42042925 5.20241707 -98.69895845 3.04079309 -95.09472656 1.08544922 C-90.79782721 0.19515012 -86.57658515 0.24854476 -82.20019531 0.28076172 C-80.83928136 0.26915187 -79.47838734 0.2549832 -78.11752319 0.23854065 C-74.31442978 0.20077299 -70.51215135 0.20143767 -66.7089119 0.20888901 C-62.58539058 0.21154018 -58.46206034 0.18277488 -54.33862305 0.15893555 C-46.60657102 0.1195809 -38.87472133 0.1072887 -31.14257812 0.10449219 C-20.76148014 0.09942905 -10.38090748 0.05741504 0 0 Z " fill="#060606" transform="translate(193.0947265625,339.91455078125)"/>
<path d="M0 0 C1.85765488 0.00839149 1.85765488 0.00839149 3.75283813 0.01695251 C5.12962423 0.02834423 6.50640948 0.03983758 7.88319397 0.05142212 C9.33306131 0.0599327 10.78293129 0.06800365 12.23280334 0.07566833 C16.19318004 0.09794851 20.15348712 0.12666128 24.11381221 0.15662336 C28.3178071 0.18750071 32.52183495 0.21303336 36.7258606 0.23931885 C43.84750531 0.28466136 50.96911345 0.33403225 58.0907135 0.38589478 C65.27493728 0.43818398 72.45917158 0.48690365 79.64344788 0.53140259 C98.58924315 0.64913438 117.53464704 0.78547806 136.47998619 0.96291733 C145.23081596 1.04392974 153.98137318 1.10774035 162.73250645 1.14402282 C168.47031395 1.1686866 174.2078286 1.21003654 179.94542247 1.2653476 C183.21805945 1.29625985 186.4901415 1.31627496 189.76293755 1.32011032 C193.29403861 1.32539629 196.82357475 1.36080435 200.35438538 1.40396118 C201.38019022 1.39804585 202.40599506 1.39213051 203.4628849 1.38603592 C208.15045954 1.4741002 210.36463007 1.544885 214.19067383 4.44433594 C217.20043964 8.65149787 217.6013132 11.98889906 217.08265686 17.08901978 C215.64942532 19.5383483 214.14939559 21.07148911 212.08265686 23.08901978 C211.42265686 23.08901978 210.76265686 23.08901978 210.08265686 23.08901978 C210.08265686 23.74901978 210.08265686 24.40901978 210.08265686 25.08901978 C163.7704228 25.86438071 117.46093749 26.200047 71.14255142 26.2118504 C66.44175685 26.21313318 61.74096865 26.21688086 57.04017639 26.22158813 C50.61682899 26.22748019 44.19350533 26.22764175 37.77015686 26.22333908 C35.39239006 26.22235071 33.014622 26.22291035 30.63685608 26.22517776 C20.21976308 26.23334299 9.79967068 26.24046737 -0.60874939 25.76821899 C-2.53182922 25.68300491 -2.53182922 25.68300491 -4.49375916 25.59606934 C-8.99066477 24.93005558 -12.40712674 23.44821453 -15.79234314 20.40151978 C-17.45096223 16.99213609 -17.45312499 13.76609793 -16.91734314 10.08901978 C-15.12925981 5.94819523 -12.58606724 3.65712664 -8.91734314 1.08901978 C-5.68469649 0.01147089 -3.39906455 -0.02208229 0 0 Z " fill="#080808" transform="translate(106.91734313964844,278.9109802246094)"/>
<path d="M0 0 C3.07877321 4.17124112 3.53315706 7.51936808 2.9375 12.625 C-0.09266132 17.83603867 -3.25717471 20.06247532 -9.0625 21.625 C-12.00209035 21.90309797 -14.92356567 21.89943556 -17.87464905 21.88569641 C-18.75012797 21.88952196 -19.6256069 21.89334751 -20.52761549 21.89728898 C-23.45475108 21.90758976 -26.38168946 21.90363241 -29.30883789 21.8996582 C-31.40995973 21.90400621 -33.51107998 21.90918965 -35.61219788 21.91514587 C-41.31449365 21.92853542 -47.01672314 21.92911474 -52.71903157 21.92658257 C-57.47827038 21.92551315 -62.23749576 21.93039534 -66.9967317 21.935188 C-78.22154554 21.94628235 -89.44632591 21.94672053 -100.67114258 21.94067383 C-112.25690299 21.9346288 -123.84254212 21.94695869 -135.42828184 21.9682439 C-145.37320483 21.9858438 -155.31808914 21.99186393 -165.26302713 21.98860615 C-171.20382291 21.98679108 -177.1445321 21.98945211 -183.0853138 22.00332069 C-188.66921107 22.01586869 -194.25291871 22.01398363 -199.83681297 22.00090981 C-201.88750395 21.99853812 -203.93820815 22.00129979 -205.98888397 22.00953293 C-208.78525603 22.01995168 -211.58098597 22.01193903 -214.37733459 21.9992218 C-215.1913406 22.00659609 -216.00534661 22.01397037 -216.84401947 22.02156812 C-221.43982774 21.97750823 -224.39498178 21.45214855 -228.0625 18.625 C-230.7711825 15.75593499 -231.51301998 13.7399765 -231.5625 9.8125 C-231.5934375 9.00167969 -231.624375 8.19085938 -231.65625 7.35546875 C-230.78663078 3.35636457 -229.05558033 0.43497368 -226.0625 -2.375 C-223.18893984 -3.38598888 -220.46611264 -3.32071321 -217.44221497 -3.26147461 C-216.57520185 -3.2722447 -215.70818873 -3.28301479 -214.81490248 -3.29411125 C-211.90937141 -3.32169622 -209.00637681 -3.29940843 -206.10083008 -3.27734375 C-204.0178065 -3.28686921 -201.93479498 -3.29945191 -199.85180664 -3.31486511 C-194.19226502 -3.34791704 -188.53352798 -3.33771782 -182.87394929 -3.31961823 C-176.94882529 -3.30771045 -171.02387611 -3.33450685 -165.09880066 -3.35693359 C-155.14286343 -3.38923193 -145.18718109 -3.39619133 -135.23120117 -3.38525391 C-121.20857982 -3.36989013 -107.18633015 -3.3999472 -93.16377032 -3.43924904 C-82.2615413 -3.46822076 -71.35928773 -3.48535152 -60.45703125 -3.5 C-59.29069475 -3.50164532 -58.12435826 -3.50329063 -56.92267823 -3.50498581 C-50.20364398 -3.51361235 -43.48465467 -3.51612115 -36.76561737 -3.5097599 C-34.73315402 -3.50848084 -32.70068882 -3.50885483 -30.66822624 -3.51103783 C-27.88469081 -3.5136102 -25.10123303 -3.50983498 -22.31770325 -3.50439453 C-21.52147027 -3.50642348 -20.7252373 -3.50845243 -19.90487605 -3.51054287 C-4.45258198 -3.45302276 -4.45258198 -3.45302276 0 0 Z " fill="#090909" transform="translate(321.0625,405.375)"/>
</svg>
