<?xml version="1.0" standalone="no"?>
<!DOCTYPE svg PUBLIC "-//W3C//DTD SVG 20010904//EN"
 "http://www.w3.org/TR/2001/REC-SVG-20010904/DTD/svg10.dtd">
<svg version="1.0" xmlns="http://www.w3.org/2000/svg"
 width="304.000000pt" height="331.000000pt" viewBox="0 0 304.000000 331.000000"
 preserveAspectRatio="xMidYMid meet">

<g transform="translate(0.000000,331.000000) scale(0.100000,-0.100000)"
fill="#000000" stroke="none">
<path d="M745 3261 c-22 -10 -52 -31 -67 -47 -55 -59 -58 -78 -58 -388 l0
-284 -167 -4 c-155 -3 -172 -6 -224 -30 -69 -32 -127 -88 -160 -154 l-24 -49
-3 -839 c-3 -936 -5 -898 66 -991 27 -36 57 -60 106 -85 l69 -35 504 -3 503
-3 -6 -27 c-13 -62 -38 -130 -61 -170 -41 -71 -55 -76 -241 -82 -137 -4 -167
-8 -175 -21 -6 -9 -7 -24 -4 -33 6 -15 68 -16 707 -16 639 0 701 1 707 16 3 9
2 24 -4 33 -8 13 -38 17 -176 21 -148 4 -169 7 -194 26 -45 33 -83 113 -107
226 l-6 27 503 3 502 3 68 33 c49 24 79 48 107 84 73 92 71 55 68 994 l-3 839
-24 49 c-33 66 -91 122 -160 154 -52 24 -69 27 -223 30 l-168 4 0 284 c0 310
-3 329 -58 388 -15 16 -45 37 -67 47 -38 18 -80 19 -765 19 -685 0 -727 -1
-765 -19z m1502 -91 c67 -40 63 21 63 -1040 0 -1055 3 -1002 -60 -1035 -25
-13 -125 -15 -745 -15 -648 0 -718 2 -741 16 -56 38 -54 -9 -54 1036 0 750 3
968 13 988 7 13 28 35 46 47 l34 23 706 0 c683 0 707 -1 738 -20z m-1625
-1389 l3 -659 30 -44 c17 -23 51 -54 75 -68 l45 -25 735 0 735 0 48 28 c26 15
60 47 75 69 l27 42 3 658 2 658 161 0 c154 0 163 -1 208 -26 54 -29 97 -82
111 -135 6 -23 9 -289 8 -725 l-3 -689 -1375 0 -1375 0 0 710 0 710 28 48 c19
33 44 56 80 77 52 30 53 30 214 30 l163 0 2 -659z m2266 -1094 c-3 -68 -9 -93
-32 -131 -32 -54 -82 -91 -146 -105 -62 -14 -2338 -14 -2400 0 -64 14 -114 51
-146 105 -23 38 -29 63 -32 131 l-5 83 1383 0 1383 0 -5 -83z m-1234 -416 c10
-43 31 -105 47 -136 16 -32 29 -59 29 -61 0 -2 -99 -4 -220 -4 -121 0 -220 2
-220 4 0 2 13 29 29 61 16 31 37 93 47 136 l18 79 126 0 126 0 18 -79z"/>
<path d="M1425 3134 c-50 -18 -112 -77 -136 -129 -52 -112 2 -259 115 -311
165 -77 346 37 346 216 -1 166 -168 281 -325 224z m150 -94 c141 -68 90 -280
-67 -280 -74 0 -147 74 -148 149 0 50 37 107 84 131 51 25 79 25 131 0z"/>
<path d="M1400 2614 c-70 -19 -132 -56 -187 -111 -82 -82 -141 -258 -98 -289
27 -20 763 -20 790 -1 44 33 -15 207 -98 290 -109 109 -260 150 -407 111z
m181 -88 c104 -24 180 -83 220 -171 25 -54 24 -67 -3 -63 -18 2 -24 11 -26 38
-4 43 -18 60 -47 60 -29 0 -43 -17 -47 -60 l-3 -35 -165 0 -165 0 -3 25 c-6
52 -13 69 -32 75 -35 11 -59 -11 -62 -58 -3 -36 -7 -43 -27 -45 -21 -3 -23 -1
-17 25 12 48 78 136 126 165 44 27 134 56 175 57 11 0 45 -5 76 -13z"/>
<path d="M772 2078 c-15 -15 -15 -51 0 -66 17 -17 959 -17 976 0 18 18 14 56
-7 68 -30 15 -953 14 -969 -2z"/>
<path d="M1892 2078 c-7 -7 -12 -21 -12 -33 0 -41 16 -45 190 -45 174 0 190 4
190 45 0 41 -16 45 -190 45 -116 0 -170 -4 -178 -12z"/>
<path d="M782 1874 c-26 -18 -28 -46 -6 -68 13 -14 66 -16 423 -16 382 0 409
1 424 18 22 24 21 38 -3 62 -19 19 -33 20 -418 20 -344 0 -401 -2 -420 -16z"/>
<path d="M1783 1880 c-30 -12 -32 -64 -4 -80 12 -6 106 -10 235 -10 182 0 217
2 230 16 22 22 20 50 -6 68 -19 13 -57 16 -228 15 -113 0 -215 -4 -227 -9z"/>
<path d="M772 1668 c-15 -15 -15 -51 0 -66 9 -9 139 -12 525 -12 496 0 513 1
523 19 14 27 13 37 -6 55 -14 14 -75 16 -523 16 -381 0 -510 -3 -519 -12z"/>
<path d="M1902 1668 c-7 -7 -12 -21 -12 -33 0 -41 16 -45 185 -45 169 0 185 4
185 45 0 41 -16 45 -185 45 -112 0 -165 -4 -173 -12z"/>
<path d="M766 1454 c-10 -25 -7 -42 10 -58 13 -14 58 -16 333 -16 295 0 319 1
334 18 10 10 17 25 17 33 0 37 -16 39 -356 39 -293 0 -333 -2 -338 -16z"/>
<path d="M1596 1454 c-11 -29 -6 -53 13 -64 12 -6 132 -10 320 -10 259 0 302
2 315 16 17 16 20 33 10 58 -5 14 -44 16 -329 16 -285 0 -324 -2 -329 -16z"/>
<path d="M772 1258 c-15 -15 -15 -51 0 -66 9 -9 114 -12 409 -12 219 0 404 3
413 6 19 7 21 55 4 72 -17 17 -809 17 -826 0z"/>
<path d="M1762 1258 c-7 -7 -12 -21 -12 -33 0 -43 12 -45 255 -45 166 0 234 3
243 12 15 15 15 51 0 66 -17 17 -469 17 -486 0z"/>
<path d="M1362 644 c-26 -18 -28 -46 -6 -68 12 -13 41 -16 154 -16 147 0 170
7 170 50 0 39 -36 50 -170 50 -97 0 -131 -3 -148 -16z"/>
</g>
</svg>
