<svg width="24" height="24" viewBox="0 0 24 24" fill="none" xmlns="http://www.w3.org/2000/svg">
<path d="M19 3H8C6.346 3 5 4.346 5 6V7H4C3.73478 7 3.48043 7.10536 3.29289 7.29289C3.10536 7.48043 3 7.73478 3 8C3 8.26522 3.10536 8.51957 3.29289 8.70711C3.48043 8.89464 3.73478 9 4 9H5V11H4C3.73478 11 3.48043 11.1054 3.29289 11.2929C3.10536 11.4804 3 11.7348 3 12C3 12.2652 3.10536 12.5196 3.29289 12.7071C3.48043 12.8946 3.73478 13 4 13H5V15H4C3.73478 15 3.48043 15.1054 3.29289 15.2929C3.10536 15.4804 3 15.7348 3 16C3 16.2652 3.10536 16.5196 3.29289 16.7071C3.48043 16.8946 3.73478 17 4 17H5V18C5 19.654 6.346 21 8 21H19C20.654 21 22 19.654 22 18V6C22 4.346 20.654 3 19 3ZM7 6C7 5.449 7.449 5 8 5V7H7V6ZM7 9H8V11H7V9ZM7 13H8V15H7V13ZM7 18V17H8V19C7.449 19 7 18.551 7 18ZM20 18C20 18.551 19.551 19 19 19H9V5H19C19.551 5 20 5.449 20 6V18Z" fill="white"/>
<path d="M14 12.5C15.1046 12.5 16 11.6046 16 10.5C16 9.39543 15.1046 8.5 14 8.5C12.8954 8.5 12 9.39543 12 10.5C12 11.6046 12.8954 12.5 14 12.5Z" fill="white"/>
<path d="M14 13.356C12.438 13.356 11.5 14.071 11.5 14.785C11.5 15.142 12.438 15.5 14 15.5C15.466 15.5 16.5 15.143 16.5 14.785C16.5 14.071 15.52 13.356 14 13.356Z" fill="white"/>
</svg>
