<?xml version="1.0" encoding="UTF-8"?>
<svg version="1.1" xmlns="http://www.w3.org/2000/svg" width="112" height="106">
<path d="M0 0 C36.96 0 73.92 0 112 0 C112 34.98 112 69.96 112 106 C75.04 106 38.08 106 0 106 C0 71.02 0 36.04 0 0 Z " fill="#030303" transform="translate(0,0)"/>
<path d="M0 0 C2.5625 1.5 2.5625 1.5 4 4 C4.68603107 7.89282748 4.57312616 10.93562285 2.6875 14.4375 C1 16 1 16 -2 17 C-2.33 20.63 -2.66 24.26 -3 28 C-0.8653125 28.6496875 -0.8653125 28.6496875 1.3125 29.3125 C4.76128255 30.36212947 6.50565567 31.44814917 9 34 C12.92331125 33.79350993 16.03150926 32.55620036 19 30 C19.25584102 27.98525196 19.50646412 25.96763471 19.64453125 23.94140625 C20 22 20 22 22.1875 19.5 C25.58540356 17.68778477 27.20467505 17.3028995 31 18 C34.375 20.0625 34.375 20.0625 37 23 C37.77152986 27.32056721 37.52747866 29.19119939 35.125 32.875 C32.58947709 35.41052291 31.75765256 35.94948983 28.1875 36.1875 C25 36 25 36 22.5625 34.75 C20.09000475 33.73831066 20.09000475 33.73831066 18.1328125 34.7578125 C16.37793842 35.76563175 14.68380393 36.87746404 13 38 C13.01160156 38.81984375 13.02320313 39.6396875 13.03515625 40.484375 C13.04417969 41.56203125 13.05320313 42.6396875 13.0625 43.75 C13.07410156 44.81734375 13.08570313 45.8846875 13.09765625 46.984375 C13.01510087 49.53368501 12.74617558 51.57933591 12 54 C15.63621333 55.26844651 19.17881323 56.45411618 23 57 C23.33 56.67 23.66 56.34 24 56 C31.01030928 55.29896907 31.01030928 55.29896907 35 58.125 C37 61 37 61 37.5625 64 C36.87642343 67.65907504 35.57265686 69.35167676 33 72 C30.14675563 73.42662219 28.16545451 73.31033868 25 73 C22.125 71.5 22.125 71.5 20 69 C19.57757787 66.19811145 19.76183009 63.8580389 20 61 C19.29875 60.731875 18.5975 60.46375 17.875 60.1875 C14.8350176 58.9318551 11.9272226 57.49764877 9 56 C8.67 56.99 8.34 57.98 8 59 C6.2578125 60.16796875 6.2578125 60.16796875 4.125 61.1875 C3.42632812 61.53167969 2.72765625 61.87585938 2.0078125 62.23046875 C-0 63 -0 63 -3 63 C-3 66.96 -3 70.92 -3 75 C-1.68 75.33 -0.36 75.66 1 76 C2.75 77.0625 2.75 77.0625 4 79 C4.63512789 83.92224114 4.76733593 85.88387501 1.9375 90 C-1 92 -1 92 -4.5 92.6875 C-8.27505363 91.94597161 -9.87202216 90.92987459 -12.1171875 87.78515625 C-13.64995791 84.68570458 -13.55944575 82.35667452 -13 79 C-11.1875 76.5625 -11.1875 76.5625 -9 75 C-8.01 75 -7.02 75 -6 75 C-6 71.04 -6 67.08 -6 63 C-6.86625 62.938125 -7.7325 62.87625 -8.625 62.8125 C-12.00566046 61.9986373 -12.6614243 61.58920861 -15 59.3125 C-15.99 58.549375 -16.98 57.78625 -18 57 C-21.73696902 57.65946512 -23.84619006 58.89746004 -27 61 C-27.45323886 63.00720068 -27.90595027 65.01452989 -28.3515625 67.0234375 C-29.4025299 70.22698872 -31.10263192 71.41961741 -34 73 C-37.7822566 73.6303761 -39.45611204 73.30215998 -42.8125 71.4375 C-45.72194213 68.19555019 -46.14971147 66.34163268 -46 62 C-44.0625 58.5625 -44.0625 58.5625 -41 56 C-37.28712648 55.22306067 -33.95000093 55.75697651 -30.3125 56.6875 C-27.07898125 57.12446199 -25.63441772 55.78001197 -23 54 C-22.34 54 -21.68 54 -21 54 C-21.17144531 53.28972656 -21.34289062 52.57945313 -21.51953125 51.84765625 C-22.01667391 48.90117659 -21.89830707 46.4094664 -21.6875 43.4375 C-21.59501489 38.79972003 -21.59501489 38.79972003 -24.6875 35.25 C-28.15217925 33.94257387 -29.57478381 33.72777684 -33 35 C-33.495 35.495 -33.495 35.495 -34 36 C-37.9733857 36.54182532 -39.53502269 36.34098336 -42.8125 33.9375 C-45.43828382 30.41144744 -46.07836758 28.38858425 -46 24 C-44.23358828 21.19810554 -42.96950178 19.48475089 -40 18 C-36.44423793 17.60491533 -34.49038786 17.73769951 -31.3125 19.4375 C-28.97692314 22.02557165 -28.44643373 23.31607368 -27.5 26.5625 C-26.54358906 29.84239514 -26.22408246 30.80464606 -23.5625 33.125 C-20.65571968 34.11755913 -19.83857275 33.96913958 -17 33 C-14.90077808 31.77108889 -12.91566969 30.42270902 -10.90234375 29.05859375 C-9 28 -9 28 -6 28 C-6 24.37 -6 20.74 -6 17 C-7.32 16.34 -8.64 15.68 -10 15 C-11.75 13.875 -11.75 13.875 -13 12 C-13.47993784 7.68055941 -13.72659573 5.26364476 -11.5625 1.5 C-7.74317604 -0.73570183 -4.31481639 -0.76004105 0 0 Z " fill="#DEDEDE" transform="translate(60,7)"/>
<path d="M0 0 C4.49176336 2.41501113 8.11688014 5.15769179 10 10 C10.46070653 15.71276096 10.01759496 18.97067506 7 24 C6.31164062 23.51273438 5.62328125 23.02546875 4.9140625 22.5234375 C1.48218499 20.72929242 -0.77368 20.59843917 -4.625 20.625 C-6.31496094 20.61339844 -6.31496094 20.61339844 -8.0390625 20.6015625 C-11.28595691 21.03847969 -11.97740604 21.56515759 -14 24 C-14.66 24 -15.32 24 -16 24 C-19.13630761 20.01930188 -19.51524704 16.98072138 -19 12 C-17.3348271 6.82919995 -15.57079843 3.97101898 -11 1 C-7.22438815 -0.25853728 -3.90331464 -0.74183777 0 0 Z " fill="#0F0F0F" transform="translate(60,38)"/>
<path d="M0 0 C2.10388569 -0.05402274 4.20816714 -0.09280256 6.3125 -0.125 C8.07013672 -0.15980469 8.07013672 -0.15980469 9.86328125 -0.1953125 C13 0 13 0 16 2 C17.32 1.34 18.64 0.68 20 0 C20 0.66 20 1.32 20 2 C20.763125 2.12375 21.52625 2.2475 22.3125 2.375 C25 3 25 3 28 5 C29.6752357 4.71281674 31.34080104 4.36871088 33 4 C37.59044415 3.40408027 40.12712161 3.38171114 44 6.125 C46 9 46 9 46.5625 12 C45.87642343 15.65907504 44.57265686 17.35167676 42 20 C39.14675563 21.42662219 37.16545451 21.31033868 34 21 C31.125 19.5 31.125 19.5 29 17 C28.57757787 14.19811145 28.76183009 11.8580389 29 9 C28.29875 8.731875 27.5975 8.46375 26.875 8.1875 C23.8350176 6.9318551 20.9272226 5.49764877 18 4 C17.67 4.99 17.34 5.98 17 7 C14.4375 8.1875 14.4375 8.1875 12 9 C12.020625 8.195625 12.04125 7.39125 12.0625 6.5625 C12.29633621 4.06645115 12.29633621 4.06645115 11 3 C8.41977858 2.71778828 5.83969815 2.55179803 3.25 2.37890625 C2.5075 2.25386719 1.765 2.12882812 1 2 C0.67 1.34 0.34 0.68 0 0 Z " fill="#E6E6E6" transform="translate(51,59)"/>
<path d="M0 0 C2.5625 1.5 2.5625 1.5 4 4 C4.68603107 7.89282748 4.57312616 10.93562285 2.6875 14.4375 C1 16 1 16 -2 17 C-2 21.29 -2 25.58 -2 30 C-4.31 29.67 -6.62 29.34 -9 29 C-8.01 28.67 -7.02 28.34 -6 28 C-6 24.37 -6 20.74 -6 17 C-7.32 16.34 -8.64 15.68 -10 15 C-11.75 13.875 -11.75 13.875 -13 12 C-13.47993784 7.68055941 -13.72659573 5.26364476 -11.5625 1.5 C-7.74317604 -0.73570183 -4.31481639 -0.76004105 0 0 Z " fill="#EBEBEB" transform="translate(60,7)"/>
<path d="M0 0 C1.32 0.33 2.64 0.66 4 1 C3.67 5.29 3.34 9.58 3 14 C4.32 14.33 5.64 14.66 7 15 C8.75 16.0625 8.75 16.0625 10 18 C10.63512789 22.92224114 10.76733593 24.88387501 7.9375 29 C5 31 5 31 1.5 31.6875 C-2.27505363 30.94597161 -3.87202216 29.92987459 -6.1171875 26.78515625 C-7.64995791 23.68570458 -7.55944575 21.35667452 -7 18 C-5.1875 15.5625 -5.1875 15.5625 -3 14 C-2.01 14 -1.02 14 0 14 C0 9.38 0 4.76 0 0 Z " fill="#DDDDDD" transform="translate(54,68)"/>
<path d="M0 0 C2.98671612 1.59754583 4.60311235 2.89640935 5.765625 6.12890625 C6.21422478 7.71204617 6.66213945 9.29538039 7.109375 10.87890625 C8.54311036 14.2934602 10.83404853 15.24113807 14 17 C14 17.66 14 18.32 14 19 C10.62537285 18.45276317 8.91765 17.9451 6 16 C2.68913741 16.28274138 2.68913741 16.28274138 0 18 C-3.9733857 18.54182532 -5.53502269 18.34098336 -8.8125 15.9375 C-11.43828382 12.41144744 -12.07836758 10.38858425 -12 6 C-8.68791982 0.74635558 -6.16206486 -0.60412401 0 0 Z " fill="#E2E2E2" transform="translate(26,25)"/>
<path d="M0 0 C3.375 2.0625 3.375 2.0625 6 5 C6.77152986 9.32056721 6.52747866 11.19119939 4.125 14.875 C1.58947709 17.41052291 0.75765256 17.94948983 -2.8125 18.1875 C-6 18 -6 18 -8.5625 16.875 C-11.75895843 15.72755338 -12.96355927 16.72149864 -16 18 C-16.99 17.34 -17.98 16.68 -19 16 C-17.865625 15.505 -16.73125 15.01 -15.5625 14.5 C-13.57603888 13.47891212 -13.57603888 13.47891212 -12 12 C-11.44349728 9.92692117 -11.3769795 8.04613086 -11.28515625 5.90625 C-11 4 -11 4 -8.8125 1.5 C-5.41459644 -0.31221523 -3.79532495 -0.6971005 0 0 Z " fill="#E3E3E3" transform="translate(91,25)"/>
<path d="M0 0 C0.66 0.33 1.32 0.66 2 1 C1 4 1 4 -2 6 C-2.45323886 8.00720068 -2.90595027 10.01452989 -3.3515625 12.0234375 C-4.4025299 15.22698872 -6.10263192 16.41961741 -9 18 C-12.7822566 18.6303761 -14.45611204 18.30215998 -17.8125 16.4375 C-20.72194213 13.19555019 -21.14971147 11.34163268 -21 7 C-19.0625 3.5625 -19.0625 3.5625 -16 1 C-12.2624786 0.21790297 -8.87405549 0.80576545 -5.1875 1.625 C-2.71549154 2.30671915 -2.71549154 2.30671915 0 0 Z " fill="#E1E1E1" transform="translate(35,62)"/>
<path d="M0 0 C2.375 1.5625 2.375 1.5625 4 4 C3.78571429 10.21428571 3.78571429 10.21428571 1 13 C-2.5 13.3125 -2.5 13.3125 -6 13 C-8.46324069 9.30513897 -8.38991688 7.36706908 -8 3 C-5.9566042 -0.33396157 -3.74826026 -0.63994687 0 0 Z " fill="#DEDEDE" transform="translate(58,42)"/>
<path d="M0 0 C0.7734375 0.25265625 1.546875 0.5053125 2.34375 0.765625 C4.61839693 1.80405077 5.76305068 2.99391074 7.5 4.75 C10.60839021 5.4769226 10.60839021 5.4769226 13.5 5.75 C13.17 6.36875 12.84 6.9875 12.5 7.625 C11.30541692 11.35807213 11.4334801 14.4633932 11.625 18.34765625 C11.48825148 20.97579192 10.82766592 22.50437756 9.5 24.75 C8.51 24.75 7.52 24.75 6.5 24.75 C6.665 24.09 6.83 23.43 7 22.75 C7.91643874 17.25136755 8.34514717 13.4089926 5.8125 8.4375 C3.41101686 5.64658716 1.90063125 4.14116733 -1.5 2.75 C-6.37062446 2.440754 -10.70223605 2.79044721 -15.5 3.75 C-15.17 2.76 -14.84 1.77 -14.5 0.75 C-13.406875 0.605625 -12.31375 0.46125 -11.1875 0.3125 C-2.830351 -0.96231934 -2.830351 -0.96231934 0 0 Z " fill="#EBEBEB" transform="translate(61.5,36.25)"/>
<path d="M0 0 C1.8125 1.125 1.8125 1.125 3 3 C3.39769128 6.18153026 3.55198782 8.12844028 1.8125 10.875 C-0.65507108 12.40659584 -2.14519831 12.42822025 -5 12 C-6.8125 10.875 -6.8125 10.875 -8 9 C-8.39769128 5.81846974 -8.55198782 3.87155972 -6.8125 1.125 C-4.34492892 -0.40659584 -2.85480169 -0.42822025 0 0 Z " fill="#121212" transform="translate(58,84)"/>
<path d="M0 0 C3.0625 0.3125 3.0625 0.3125 4.9375 1.5 C6.46909584 3.96757108 6.49072025 5.45769831 6.0625 8.3125 C4.9375 10.125 4.9375 10.125 3.0625 11.3125 C0.0625 11.75 0.0625 11.75 -2.9375 11.3125 C-4.875 9.625 -4.875 9.625 -5.9375 7.3125 C-5.61764525 2.8345335 -4.76027546 0.50641228 0 0 Z " fill="#0F0F0F" transform="translate(87.9375,65.6875)"/>
<path d="M0 0 C1.875 1.0625 1.875 1.0625 3 3 C2.875 6.5625 2.875 6.5625 2 10 C-1 12 -1 12 -3.5625 11.75 C-6 11 -6 11 -8 9 C-8.3125 5.5 -8.3125 5.5 -8 2 C-4.76746204 -0.15502531 -3.74849077 -0.46856135 0 0 Z " fill="#121212" transform="translate(26,28)"/>
<path d="M0 0 C3.0625 0.3125 3.0625 0.3125 4.9375 1.5 C6.46909584 3.96757108 6.49072025 5.45769831 6.0625 8.3125 C4.9375 10.125 4.9375 10.125 3.0625 11.3125 C0.0625 11.75 0.0625 11.75 -2.9375 11.3125 C-4.875 9.625 -4.875 9.625 -5.9375 7.3125 C-5.61764525 2.8345335 -4.76027546 0.50641228 0 0 Z " fill="#101010" transform="translate(22.9375,65.6875)"/>
<path d="M0 0 C3.5 0.25 3.5 0.25 5.5 2.25 C5.833728 5.38704316 6.02849028 7.41554166 4.3125 10.125 C1.84492892 11.65659584 0.35480169 11.67822025 -2.5 11.25 C-4.3125 10.125 -4.3125 10.125 -5.5 8.25 C-5.8125 5.1875 -5.8125 5.1875 -5.5 2.25 C-3.5 0.25 -3.5 0.25 0 0 Z " fill="#0C0C0C" transform="translate(55.5,9.75)"/>
<path d="M0 0 C1.875 1.0625 1.875 1.0625 3 3 C2.55555556 9.44444444 2.55555556 9.44444444 1 11 C-2.4375 11.1875 -2.4375 11.1875 -6 11 C-8 9 -8 9 -8.3125 6.0625 C-8 3 -8 3 -6.8125 1.125 C-4.34492892 -0.40659584 -2.85480169 -0.42822025 0 0 Z " fill="#0C0C0C" transform="translate(91,28)"/>
<path d="M0 0 C1.32 0.33 2.64 0.66 4 1 C3.67 5.29 3.34 9.58 3 14 C3.99 14 4.98 14 6 14 C6 14.99 6 15.98 6 17 C4.906875 16.9175 3.81375 16.835 2.6875 16.75 C-0.99065827 16.59332344 -0.99065827 16.59332344 -2.8125 18.8125 C-3.4003125 19.8953125 -3.4003125 19.8953125 -4 21 C-4.66 21.99 -5.32 22.98 -6 24 C-6.36567164 17.539801 -6.36567164 17.539801 -4.6875 15.0625 C-3 14 -3 14 0 14 C0 9.38 0 4.76 0 0 Z " fill="#E2E2E2" transform="translate(54,68)"/>
<path d="M0 0 C3.96 0 7.92 0 12 0 C12.33 1.32 12.66 2.64 13 4 C9.07178453 6.61881031 5.56556861 6.28987737 1 6 C0.01 5.34 -0.98 4.68 -2 4 C-1.34 2.68 -0.68 1.36 0 0 Z " fill="#131313" transform="translate(50,61)"/>
<path d="M0 0 C0.66 0.33 1.32 0.66 2 1 C2 1.99 2 2.98 2 4 C1.34 4 0.68 4 0 4 C0.32960216 9.01535052 0.32960216 9.01535052 3 13 C5.57061311 13.64767793 5.57061311 13.64767793 8 14 C8 14.99 8 15.98 8 17 C4.04320172 17.46009282 2.45374144 17.33274372 -0.8125 14.9375 C-3.43828382 11.41144744 -4.07836758 9.38858425 -4 5 C-2.0625 2.0625 -2.0625 2.0625 0 0 Z " fill="#D9D9D9" transform="translate(18,26)"/>
<path d="M0 0 C0.66 0 1.32 0 2 0 C2 1.65 2 3.3 2 5 C3.65 5 5.3 5 7 5 C7 5.99 7 6.98 7 8 C5.68 8.33 4.36 8.66 3 9 C3 9.99 3 10.98 3 12 C-1.29238623 10.34908222 -3.8793915 7.26245434 -7 4 C-6.67 3.01 -6.34 2.02 -6 1 C-4.515 1.99 -4.515 1.99 -3 3 C-3 3.66 -3 4.32 -3 5 C-2.34 5 -1.68 5 -1 5 C-0.67 3.35 -0.34 1.7 0 0 Z " fill="#0D0D0D" transform="translate(31,46)"/>
<path d="M0 0 C2.10388569 -0.05402274 4.20816714 -0.09280256 6.3125 -0.125 C8.07013672 -0.15980469 8.07013672 -0.15980469 9.86328125 -0.1953125 C13 0 13 0 16 2 C17.32 1.34 18.64 0.68 20 0 C20 0.66 20 1.32 20 2 C20.99 2.33 21.98 2.66 23 3 C21.35 3.33 19.7 3.66 18 4 C17.67 4.99 17.34 5.98 17 7 C14.4375 8.1875 14.4375 8.1875 12 9 C12.020625 8.195625 12.04125 7.39125 12.0625 6.5625 C12.29633621 4.06645115 12.29633621 4.06645115 11 3 C8.41977858 2.71778828 5.83969815 2.55179803 3.25 2.37890625 C2.5075 2.25386719 1.765 2.12882812 1 2 C0.67 1.34 0.34 0.68 0 0 Z " fill="#ECECEC" transform="translate(51,59)"/>
<path d="M0 0 C-0.66 1.65 -1.32 3.3 -2 5 C-0.88625 4.79375 0.2275 4.5875 1.375 4.375 C2.57125 4.25125 3.7675 4.1275 5 4 C5.66 4.66 6.32 5.32 7 6 C6.67028521 9.29714793 6.3773161 10.6226839 4 13 C3.01 13 2.02 13 1 13 C1.33 12.01 1.66 11.02 2 10 C2.66 10 3.32 10 4 10 C4 9.01 4 8.02 4 7 C3.01 7.495 3.01 7.495 2 8 C0.00039988 8.039992 -2.00047242 8.04346799 -4 8 C-4.6875 5.6875 -4.6875 5.6875 -5 3 C-3.40083326 0.79162689 -2.76966516 0 0 0 Z " fill="#0D0D0D" transform="translate(6,69)"/>
<path d="M0 0 C0.28875 0.598125 0.5775 1.19625 0.875 1.8125 C2.04742026 4.19327792 2.04742026 4.19327792 4 7 C6.8715965 7.66790364 6.8715965 7.66790364 10 7 C12.87640616 4.62499209 12.87640616 4.62499209 15 2 C15.3125 4.25 15.3125 4.25 15 7 C12.42289752 9.80449388 10.76791972 10.87201338 7 11.5 C3.20027709 10.86671285 1.56606735 9.86795763 -1 7 C-1.375 3.8125 -1.375 3.8125 -1 1 C-0.67 0.67 -0.34 0.34 0 0 Z " fill="#EDEDED" transform="translate(81,69)"/>
<path d="M0 0 C6.25 -0.48076923 6.25 -0.48076923 9.4375 1.5625 C11.60396028 4.94217804 11.56288002 7.05983987 11 11 C9 13.4375 9 13.4375 7 15 C6.01 14.34 5.02 13.68 4 13 C4.495 12.608125 4.99 12.21625 5.5 11.8125 C7.22684461 10.05777138 7.22684461 10.05777138 7.3125 7.4375 C7.22966747 4.82203581 7.22966747 4.82203581 5 3 C3.01178687 2.60235737 1.01055661 2.26224651 -1 2 C-0.67 1.34 -0.34 0.68 0 0 Z " fill="#E7E7E7" transform="translate(86,26)"/>
<path d="M0 0 C0.37125 0.495 0.7425 0.99 1.125 1.5 C3.79160885 3.63328708 5.67893663 3.35330461 9 3 C9.66 2.34 10.32 1.68 11 1 C11.99 1 12.98 1 14 1 C12.63016497 4.16115776 12.0109362 4.9927092 9 7 C5.47704517 7.37478243 3.65118137 7.41127245 0.625 5.5 C0.08875 5.005 -0.4475 4.51 -1 4 C-0.67 2.68 -0.34 1.36 0 0 Z " fill="#E9E9E9" transform="translate(17,73)"/>
<path d="M0 0 C3.65236803 -0.33975517 5.61672415 -0.20830209 8.875 1.5625 C11 4 11 4 11.3125 7.75 C11.1578125 9.35875 11.1578125 9.35875 11 11 C10.01 11.495 10.01 11.495 9 12 C8.690625 10.865625 8.38125 9.73125 8.0625 8.5625 C7.37075469 5.21224901 7.37075469 5.21224901 6 4 C3.67182036 3.63239269 1.3381615 3.29758419 -1 3 C-0.67 2.01 -0.34 1.02 0 0 Z " fill="#EFEFEF" transform="translate(20,25)"/>
<path d="M0 0 C1.98 0.66 3.96 1.32 6 2 C6 2.33 6 2.66 6 3 C4.6078125 3.2475 4.6078125 3.2475 3.1875 3.5 C-0.39156248 5.1842647 -0.58971722 5.6106519 -1.875 9.125 C-2.27279427 10.40982976 -2.65532565 11.69991255 -3 13 C-3.66 12.34 -4.32 11.68 -5 11 C-4.84971611 6.94233489 -4.59155055 4.6991052 -1.9375 1.5625 C-0.9784375 0.7890625 -0.9784375 0.7890625 0 0 Z " fill="#D8D8D8" transform="translate(19,63)"/>
<path d="M0 0 C2.08143847 1.79760595 2.97163034 2.91691742 3.875 5.5625 C4.78344937 8.23124608 4.78344937 8.23124608 7.5 9.125 C8.7375 9.558125 8.7375 9.558125 10 10 C10.99 11.485 10.99 11.485 12 13 C8.8125 13.375 8.8125 13.375 5 13 C1.10508679 9.60230975 0.10553179 8.30859415 -0.3125 3.125 C-0.209375 2.09375 -0.10625 1.0625 0 0 Z " fill="#D8D8D8" transform="translate(47,86)"/>
<path d="M0 0 C1 1 1 1 1.09765625 2.84765625 C1.04882812 5.92382812 1.04882812 5.92382812 1 9 C-0.65 9.33 -2.3 9.66 -4 10 C-3.67 9.34 -3.34 8.68 -3 8 C-2.960008 6.00039988 -2.95653201 3.99952758 -3 2 C-4.98 1.34 -6.96 0.68 -9 0 C-9 -0.33 -9 -0.66 -9 -1 C-5.22418216 -2.04883829 -3.3314863 -2.14166977 0 0 Z " fill="#D6D6D6" transform="translate(63,10)"/>
<path d="M0 0 C1 3 1 3 0 6 C-2.8125 6.625 -2.8125 6.625 -6 7 C-6.99 6.34 -7.98 5.68 -9 5 C-9 5.66 -9 6.32 -9 7 C-10.32 7 -11.64 7 -13 7 C-13 6.01 -13 5.02 -13 4 C-11.71802734 3.81824219 -11.71802734 3.81824219 -10.41015625 3.6328125 C-9.30542969 3.46523437 -8.20070313 3.29765625 -7.0625 3.125 C-5.96035156 2.96257812 -4.85820313 2.80015625 -3.72265625 2.6328125 C-2.37494141 2.31957031 -2.37494141 2.31957031 -1 2 C-0.67 1.34 -0.34 0.68 0 0 Z " fill="#D9D9D9" transform="translate(63,63)"/>
<path d="M0 0 C1.21236328 0.04060547 1.21236328 0.04060547 2.44921875 0.08203125 C3.06410156 0.11683594 3.67898437 0.15164062 4.3125 0.1875 C3.9825 0.8475 3.6525 1.5075 3.3125 2.1875 C2.19875 2.435 1.085 2.6825 -0.0625 2.9375 C-3.93008366 3.84411832 -3.93008366 3.84411832 -5.625 7.3125 C-5.975625 8.26125 -6.32625 9.21 -6.6875 10.1875 C-7.0175 10.1875 -7.3475 10.1875 -7.6875 10.1875 C-8.05443548 3.70497312 -8.05443548 3.70497312 -6.46875 1.46875 C-4.16661524 -0.1871715 -2.80531917 -0.1219704 0 0 Z " fill="#EFEFEF" transform="translate(55.6875,6.8125)"/>
<path d="M0 0 C3.3 0.99 6.6 1.98 10 3 C10 3.66 10 4.32 10 5 C7.20129973 6.39935013 5.09501208 6.25265405 2 6 C0.125 4.5 0.125 4.5 -1 3 C-0.67 2.01 -0.34 1.02 0 0 Z " fill="#CACACA" transform="translate(83,37)"/>
<path d="M0 0 C1.875 0.8125 1.875 0.8125 3.875 3.8125 C4 7 4 7 3.875 9.8125 C2.885 9.4825 1.895 9.1525 0.875 8.8125 C0.545 6.8325 0.215 4.8525 -0.125 2.8125 C-3.095 2.3175 -3.095 2.3175 -6.125 1.8125 C-3.90523089 0.46478304 -2.62352224 -0.23148726 0 0 Z " fill="#D8D8D8" transform="translate(93.125,64.1875)"/>
<path d="M0 0 C2.0625 0.4375 2.0625 0.4375 4 1 C4 2.98 4 4.96 4 7 C2.35 7 0.7 7 -1 7 C-1.04254356 5.00045254 -1.04080783 2.99958364 -1 1 C-0.67 0.67 -0.34 0.34 0 0 Z " fill="#161616" transform="translate(54,45)"/>
<path d="M0 0 C2.1640625 0.0234375 2.1640625 0.0234375 4.625 0.375 C5.85089844 0.54128906 5.85089844 0.54128906 7.1015625 0.7109375 C7.72804688 0.80632813 8.35453125 0.90171875 9 1 C9 1.33 9 1.66 9 2 C7.9275 2.2475 6.855 2.495 5.75 2.75 C2.00350563 3.99883146 0.47926118 5.02488658 -2 8 C-2.125 5.125 -2.125 5.125 -2 2 C-1.34 1.34 -0.68 0.68 0 0 Z " fill="#252525" transform="translate(16,61)"/>
<path d="M0 0 C0.33 0 0.66 0 1 0 C1.05437607 1.58294782 1.09296271 3.16644256 1.125 4.75 C1.14820312 5.63171875 1.17140625 6.5134375 1.1953125 7.421875 C0.99139502 10.1135858 0.36551721 11.69904974 -1 14 C-1.99 14 -2.98 14 -4 14 C-3.71715982 12.22773547 -3.42339502 10.457212 -3.125 8.6875 C-2.96257812 7.70136719 -2.80015625 6.71523438 -2.6328125 5.69921875 C-2 3 -2 3 0 0 Z " fill="#D2D2D2" transform="translate(72,47)"/>
<path d="M0 0 C1.32 0.33 2.64 0.66 4 1 C3.67 4.96 3.34 8.92 3 13 C2.34 13 1.68 13 1 13 C0.67 8.71 0.34 4.42 0 0 Z " fill="#F7F7F7" transform="translate(54,68)"/>
<path d="M0 0 C0.33 0 0.66 0 1 0 C1.33 1.65 1.66 3.3 2 5 C3.32 5.33 4.64 5.66 6 6 C6 6.99 6 7.98 6 9 C3.625 9.1875 3.625 9.1875 1 9 C-1.14809171 5.77786243 -1.29386153 4.72224599 -1 1 C-0.67 0.67 -0.34 0.34 0 0 Z " fill="#EAEAEA" transform="translate(51,46)"/>
<path d="M0 0 C2.73370045 2.36092311 3.91097645 4.56538728 5 8 C5 9.32 5 10.64 5 12 C2.5 10.5 2.5 10.5 0 8 C-0.45442324 5.19861435 -0.23849927 2.86199125 0 0 Z " fill="#DCDCDC" transform="translate(47,11)"/>
<path d="M0 0 C0 0.33 0 0.66 0 1 C-0.78375 1.0825 -1.5675 1.165 -2.375 1.25 C-5.14749104 1.72806339 -5.14749104 1.72806339 -6.3125 4.0625 C-6.539375 4.701875 -6.76625 5.34125 -7 6 C-7.99 6 -8.98 6 -10 6 C-10 3 -10 3 -8.375 1.3125 C-5.41801336 -0.32162419 -3.32820054 -0.22692276 0 0 Z " fill="#C5C5C5" transform="translate(91,25)"/>
<path d="M0 0 C2.875 -0.125 2.875 -0.125 6 0 C6.66 0.66 7.32 1.32 8 2 C7.34 2.66 6.68 3.32 6 4 C2.375 3.625 2.375 3.625 -1 3 C-0.67 2.01 -0.34 1.02 0 0 Z " fill="#E3E3E3" transform="translate(20,25)"/>
<path d="M0 0 C0.33 0 0.66 0 1 0 C1.07347656 1.03060547 1.07347656 1.03060547 1.1484375 2.08203125 C1.22320312 2.98308594 1.29796875 3.88414063 1.375 4.8125 C1.44460937 5.70582031 1.51421875 6.59914063 1.5859375 7.51953125 C1.86645036 10.24398499 1.86645036 10.24398499 4 13 C1.69 12.67 -0.62 12.34 -3 12 C-2.01 11.67 -1.02 11.34 0 11 C0 7.37 0 3.74 0 0 Z " fill="#CBCBCB" transform="translate(54,24)"/>
<path d="M0 0 C0.66 0.33 1.32 0.66 2 1 C2 1.99 2 2.98 2 4 C1.34 4 0.68 4 0 4 C0 5.98 0 7.96 0 10 C-0.33 10 -0.66 10 -1 10 C-1.59732819 7.23735711 -2 4.83967231 -2 2 C-1.34 1.34 -0.68 0.68 0 0 Z " fill="#C1C1C1" transform="translate(18,26)"/>
<path d="M0 0 C0.66 0.33 1.32 0.66 2 1 C0.02 5.455 0.02 5.455 -2 10 C-2.33 10 -2.66 10 -3 10 C-3.36923077 3.47692308 -3.36923077 3.47692308 -1.5 1.0625 C-1.005 0.711875 -0.51 0.36125 0 0 Z " fill="#EBEBEB" transform="translate(51,82)"/>
<path d="M0 0 C1.98 0 3.96 0 6 0 C4.25 2 4.25 2 2 4 C0.68 4 -0.64 4 -2 4 C-1.34 2.68 -0.68 1.36 0 0 Z " fill="#181818" transform="translate(20,66)"/>
<path d="M0 0 C2.875 -0.125 2.875 -0.125 6 0 C6.66 0.66 7.32 1.32 8 2 C7.01 2.66 6.02 3.32 5 4 C1.8125 3.125 1.8125 3.125 -1 2 C-0.67 1.34 -0.34 0.68 0 0 Z " fill="#E8E8E8" transform="translate(21,63)"/>
<path d="M0 0 C1.2065625 0.0309375 1.2065625 0.0309375 2.4375 0.0625 C1.4784375 0.619375 1.4784375 0.619375 0.5 1.1875 C-2.20108072 3.64302793 -2.24657005 5.50828805 -2.5625 9.0625 C-3.5525 7.7425 -4.5425 6.4225 -5.5625 5.0625 C-3.15007962 0.07683121 -3.15007962 0.07683121 0 0 Z " fill="#C2C2C2" transform="translate(55.5625,41.9375)"/>
<path d="M0 0 C0.33 0.66 0.66 1.32 1 2 C-0.1875 3.5 -0.1875 3.5 -2 5 C-4.6875 5.1875 -4.6875 5.1875 -7 5 C-4.87219421 2.65941363 -2.88437779 1.29299694 0 0 Z " fill="#F0F0F0" transform="translate(62,93)"/>
</svg>
