<svg width="19" height="19" viewBox="0 0 19 19" fill="none" xmlns="http://www.w3.org/2000/svg">
<path d="M8.93 7.54458L6.97458 9.49999L8.93 11.4554C9.00816 11.528 9.06529 11.6203 9.09539 11.7226C9.12548 11.8249 9.12742 11.9335 9.101 12.0368C9.07458 12.1401 9.02078 12.2344 8.94526 12.3098C8.86975 12.3851 8.77532 12.4386 8.67192 12.4648C8.5687 12.4912 8.46027 12.4894 8.35801 12.4594C8.25576 12.4295 8.16346 12.3725 8.09083 12.2946L5.71583 9.91958C5.60464 9.80825 5.54219 9.65734 5.54219 9.49999C5.54219 9.34265 5.60464 9.19174 5.71583 9.08041L8.09083 6.70541C8.16341 6.62725 8.25572 6.57012 8.35804 6.54002C8.46036 6.50993 8.56891 6.50799 8.67224 6.53441C8.77557 6.56083 8.86986 6.61463 8.94518 6.69015C9.0205 6.76566 9.07406 6.86009 9.10021 6.96349C9.12666 7.06671 9.12482 7.17515 9.09487 7.2774C9.06491 7.37965 9.00796 7.47195 8.93 7.54458Z" fill="white"/>
<path d="M2.96875 1.58331H16.0312C16.796 1.58331 17.4167 2.20398 17.4167 2.96873V16.0312C17.4167 16.3987 17.2707 16.751 17.0109 17.0109C16.7511 17.2707 16.3987 17.4166 16.0312 17.4166H2.96875C2.60131 17.4166 2.24893 17.2707 1.98911 17.0109C1.7293 16.751 1.58333 16.3987 1.58333 16.0312V2.96873C1.58333 2.20398 2.204 1.58331 2.96875 1.58331ZM2.77083 2.96873V16.0312C2.77083 16.1405 2.8595 16.2291 2.96875 16.2291H11.875V2.77081H2.96875C2.91626 2.77081 2.86592 2.79166 2.8288 2.82878C2.79168 2.8659 2.77083 2.91624 2.77083 2.96873ZM13.0625 16.2291H16.0312C16.0837 16.2291 16.1341 16.2083 16.1712 16.1712C16.2083 16.1341 16.2292 16.0837 16.2292 16.0312V2.96873C16.2292 2.91624 16.2083 2.8659 16.1712 2.82878C16.1341 2.79166 16.0837 2.77081 16.0312 2.77081H13.0625V16.2291Z" fill="white"/>
</svg>
