<svg class="svg-icon" style="width: 1em; height: 1em;vertical-align: middle;fill: currentColor;overflow: hidden;" viewBox="0 0 1024 1024" version="1.1" xmlns="http://www.w3.org/2000/svg"><path d="M682.752454 443.573561c1.207501 6.873548 7.131421 11.862165 14.087856 11.862166 0.807389 0 1.642406-0.071631 2.496867-0.217965 7.77815-1.373277 12.988826-8.835226 11.614526-16.628725-6.885827-39.187511-29.349445-73.134671-63.252603-95.589079-25.604144-16.960277-55.589063-25.923416-86.715991-25.923416-9.531074 0-19.177781 0.852414-28.673039 2.532683-7.776104 1.372254-12.984732 8.832156-11.614526 16.631796 1.211595 6.876618 7.135514 11.866259 14.086834 11.866258 0.832971 0 1.675152-0.073678 2.50096-0.220011a136.235824 136.235824 0 0 1 23.668049-2.091637c25.51921 0 50.056046 7.318686 70.966285 21.168112 27.276227 18.064424 45.330418 45.273113 50.834782 76.609818zM776.807596 622.760616c-14.480806-14.014178-32.41527-27.41028-44.908815-36.177967-16.733103-11.759835-34.3002-22.664186-49.471739-30.702256-24.836665-13.152555-35.69599-14.672164-41.701774-14.672164-12.441357 0-23.167652 6.424316-31.882128 19.10308-5.581112 8.117888-9.698896 17.671475-13.676487 26.91193-2.2656 5.258771-5.897314 13.682627-8.629541 17.912975-6.77838-2.095731-20.09978-8.710382-39.146579-21.723768-20.9788-14.341636-43.74941-32.907481-60.859089-49.623187-16.71059-17.225313-35.219129-40.074717-49.505508-61.123103-12.982686-19.12457-19.572778-32.501228-21.654182-39.301098 4.176113-2.719948 12.515035-6.345522 17.718547-8.607028l0.137123-0.059352c9.224082-4.001127 18.761296-8.139378 26.817785-13.714349 12.629645-8.746198 19.035542-19.509333 19.035542-31.989575 0-6.025227-1.51654-16.914228-14.625092-41.831735-7.981788-15.178701-18.84623-32.80822-30.588669-49.638537-8.761548-12.55699-22.12081-30.567179-36.057217-45.060265-16.143679-16.801664-28.597315-24.294312-40.376593-24.294312-28.073382 0-60.398602 40.342824-69.639056 52.706409-11.770068 15.741519-39.138392 56.532551-39.138393 95.199199 0 36.017308 23.732517 82.213443 43.63787 114.623597 26.545586 43.221384 63.231113 89.743954 103.326297 131.022079l13.037944 13.087063 0.151449 0.149403c41.156352 40.2364 87.519286 77.048817 130.551358 103.661941 32.296567 19.974937 78.329996 43.784202 114.238835 43.784202 38.551014 0 79.2039-27.463492 94.892207-39.272445 12.319583-9.272177 52.515051-41.712007 52.51505-69.865207 0.00307-11.809977-7.461949-24.301476-24.199145-40.50553z m-22.960944 55.156204c-7.430226 8.602935-17.810644 17.995863-29.234835 26.444279-25.969465 19.205411-52.513004 30.668487-71.007217 30.668487-20.880563 0-55.390541-13.931291-94.677313-38.22458-40.758286-25.200962-84.806501-60.193941-124.008338-98.509594l-12.703323-12.752442c-38.192857-39.34203-73.066109-83.542718-98.193393-124.4545-24.209378-39.420825-38.095643-74.052576-38.095643-95.013981 0-18.570961 11.426237-45.212738 30.564109-71.264066 8.41567-11.460006 17.771759-21.880333 26.349112-29.338189 7.305383-6.345522 11.975752-8.729825 13.867845-9.529027 5.53711 3.27151 22.559808 17.989723 48.574299 55.829539 10.213619 14.858406 19.59222 30.210046 26.414603 43.225477 7.126304 13.601786 9.256828 20.452821 9.877974 23.043832-0.731664 0.727571-2.219551 1.987261-5.064342 3.687996-4.960988 2.964518-11.633968 5.862521-18.118659 8.676613-8.194636 3.559059-16.669658 7.236821-23.581068 11.828397-11.778254 7.828292-17.626449 17.534352-17.38188 28.843931 0.106424 5.15644 0.431835 20.849864 28.788674 62.62634 15.521508 22.853497 35.620265 47.64309 53.806463 66.358337l0.290619 0.283456c18.58938 18.203594 43.295062 38.371936 66.087161 53.954842 41.47767 28.349675 57.160861 28.771277 62.359256 28.878724 0.234337 0.016373 0.463558 0.017396 0.685615 0.017397 11.081383-0.008186 20.582781-5.937223 28.239158-17.622356 4.527107-6.901177 8.159844-15.331173 11.688204-23.514553 2.791579-6.478552 5.677303-13.177114 8.639774-18.158569 1.693572-2.847861 2.946099-4.341888 3.671622-5.078669 2.588965 0.630357 9.417487 2.778276 22.943549 9.908674 12.990872 6.859221 28.290323 16.274662 43.076074 26.507724 37.742603 26.123984 52.397371 43.210128 55.643298 48.756447-0.787946 1.883907-3.155876 6.566556-9.501398 13.920034z" fill="" /><path d="M601.488639 411.579893c-15.371082-10.18292-33.356712-15.566534-52.021818-15.566534-5.702885 0-11.476379 0.511653-17.158798 1.515516-7.770987 1.375324-12.979616 8.835226-11.612479 16.629749 1.209548 6.878664 7.135514 11.873422 14.09195 11.873422 0.830925 0 1.671059-0.073678 2.495844-0.220011a70.000284 70.000284 0 0 1 12.160971-1.076518c13.057387 0 25.598005 3.735068 36.263925 10.804067 13.812587 9.148357 22.952758 22.899546 25.736151 38.71679 1.200338 6.881734 7.121188 11.874445 14.080693 11.874445 0.840134 0 1.655709-0.070608 2.506077-0.216941 7.773034-1.375324 12.981662-8.837272 11.610432-16.632819-4.15667-23.670096-17.708314-44.160779-38.152948-57.701166zM806.162158 429.722088c-10.859325-61.802578-46.323025-115.361401-99.850126-150.813844-40.524972-26.839275-88.002286-41.027415-137.300062-41.027415-15.106046 0-30.398334 1.351787-45.449122 4.01443-7.773034 1.373277-12.982686 8.836249-11.611455 16.634866 1.207501 6.874571 7.131421 11.865235 14.084786 11.865235 0.832971 0 1.678222-0.073678 2.501984-0.221034 13.400195-2.368954 27.007097-3.572362 40.444131-3.572362 43.689035 0 85.721337 12.542664 121.547287 36.268018 46.89403 31.05939 77.943187 77.877695 87.426165 131.835608 1.210571 6.878664 7.136537 11.870352 14.087856 11.870352 0.811482 0 1.650593-0.073678 2.500961-0.222058 7.77508-1.369184 12.984732-8.830109 11.617595-16.631796z" fill="" /></svg>