<?xml version="1.0" standalone="no"?>
<!DOCTYPE svg PUBLIC "-//W3C//DTD SVG 20010904//EN"
 "http://www.w3.org/TR/2001/REC-SVG-20010904/DTD/svg10.dtd">
<svg version="1.0" xmlns="http://www.w3.org/2000/svg"
 width="348.000000pt" height="348.000000pt" viewBox="0 0 348.000000 348.000000"
 preserveAspectRatio="xMidYMid meet">

<g transform="translate(0.000000,348.000000) scale(0.100000,-0.100000)"
fill="#000000" stroke="none">
<path d="M1890 3470 c-71 -23 -197 -80 -217 -98 -31 -28 -29 -57 13 -159 l36
-87 -28 -20 c-47 -33 -171 -155 -200 -197 -15 -22 -32 -39 -38 -39 -7 0 -51
16 -100 36 -130 53 -137 48 -216 -152 -17 -41 -30 -85 -30 -97 0 -37 32 -62
124 -98 l86 -34 -8 -55 c-9 -71 -9 -190 0 -261 l8 -56 -91 -38 c-91 -39 -119
-62 -119 -101 0 -33 88 -237 111 -256 31 -26 60 -22 155 18 85 37 85 37 100
16 50 -71 155 -177 227 -227 l21 -15 -37 -90 c-42 -103 -44 -119 -19 -149 20
-25 222 -111 261 -111 39 0 65 33 102 127 l32 83 41 -8 c52 -9 227 -9 287 0
l45 7 34 -82 c38 -96 63 -127 100 -127 38 0 241 86 263 111 24 30 22 48 -20
151 l-38 91 25 16 c61 40 161 139 216 215 l21 29 88 -36 c101 -43 129 -45 157
-14 23 26 107 222 108 252 0 38 -30 63 -121 101 l-90 37 6 51 c9 64 9 208 1
272 l-7 50 83 33 c84 33 128 68 128 99 0 9 -21 67 -45 127 -43 106 -78 155
-111 155 -8 0 -55 -17 -106 -37 l-91 -38 -25 35 c-34 45 -157 168 -202 202
l-35 26 34 83 c39 95 43 132 15 159 -22 22 -224 110 -252 110 -37 0 -68 -38
-102 -125 l-35 -87 -55 7 c-47 6 -177 7 -288 2 -33 -2 -34 -1 -69 86 -27 68
-42 91 -64 102 -31 17 -33 17 -69 5z m523 -469 c230 -59 405 -220 483 -443 20
-56 27 -100 31 -188 6 -141 -10 -218 -69 -340 -54 -110 -177 -237 -283 -292
-206 -107 -444 -107 -650 0 -96 50 -227 181 -278 279 -73 141 -97 330 -61 483
44 187 185 364 359 449 143 70 319 90 468 52z"/>
<path d="M2081 2849 c9 -18 6 -26 -19 -53 -43 -43 -54 -79 -54 -165 0 -52 -5
-79 -15 -89 -19 -20 0 -111 32 -152 22 -28 45 -106 45 -152 l0 -46 -82 -48
c-46 -26 -107 -64 -135 -84 l-53 -37 41 -46 c74 -85 243 -177 323 -177 23 0
26 6 42 77 14 64 15 82 4 107 -33 82 -20 116 46 116 55 0 66 -37 34 -116 -11
-25 -10 -43 4 -107 20 -89 25 -91 124 -58 90 31 152 70 220 139 l63 63 -53 38
c-29 21 -90 59 -135 85 l-83 48 0 52 c0 60 16 117 38 130 32 19 58 145 33 160
-5 4 -5 24 1 48 23 100 -6 187 -67 202 -13 3 -27 15 -30 27 -4 11 -21 29 -38
40 -27 16 -51 19 -165 19 -132 0 -133 0 -121 -21z"/>
<path d="M774 1756 c-14 -11 -20 -30 -24 -81 l-5 -67 -75 -27 c-41 -14 -91
-36 -111 -48 l-35 -22 -44 44 c-64 65 -90 62 -163 -14 -33 -34 -57 -69 -57
-81 0 -11 20 -42 45 -69 l45 -48 -29 -54 c-16 -30 -37 -80 -47 -111 l-18 -58
-62 0 c-89 0 -104 -17 -104 -122 0 -103 13 -118 103 -118 l63 0 14 -52 c7 -29
27 -80 45 -114 l33 -62 -44 -43 c-64 -63 -61 -90 16 -163 72 -68 90 -69 156
-5 l41 41 54 -30 c30 -17 80 -38 112 -47 l57 -16 0 -64 c0 -57 3 -66 26 -84
38 -30 150 -30 188 0 23 18 26 27 26 84 l0 63 47 12 c26 6 77 26 114 45 l67
33 43 -44 c57 -58 84 -58 145 -2 53 49 77 89 68 115 -4 10 -25 37 -46 59 l-40
41 30 59 c16 33 37 83 46 112 l18 52 58 0 c82 0 102 19 108 98 8 116 -10 142
-102 142 l-62 0 -18 58 c-9 31 -30 82 -45 112 l-29 55 44 47 c61 65 59 86 -14
160 -36 35 -67 58 -81 58 -12 0 -43 -20 -71 -46 l-48 -45 -54 30 c-29 16 -79
37 -110 46 l-58 16 0 60 c0 50 -4 64 -25 84 -21 22 -33 25 -98 25 -47 0 -80
-5 -93 -14z m221 -501 c172 -84 214 -311 86 -458 -105 -119 -313 -123 -424 -9
-61 64 -82 116 -82 207 0 64 5 89 23 125 79 151 247 209 397 135z"/>
<path d="M2242 1043 c-6 -10 -13 -32 -16 -49 -7 -30 -9 -31 -74 -37 -37 -3
-75 -8 -84 -12 -12 -5 -24 4 -42 34 -31 49 -50 51 -111 16 -54 -32 -60 -47
-35 -95 l20 -40 -44 -60 c-24 -33 -46 -64 -48 -69 -2 -6 -22 -5 -50 1 -60 14
-73 4 -89 -67 -14 -65 -6 -80 51 -95 37 -10 37 -10 43 -73 3 -34 9 -71 12 -82
5 -16 -2 -26 -32 -45 -48 -32 -52 -62 -15 -115 33 -47 60 -54 106 -27 l34 20
32 -33 c17 -18 47 -41 66 -51 28 -16 32 -22 27 -44 -4 -14 -7 -38 -8 -55 0
-28 4 -31 59 -49 70 -23 85 -17 104 41 13 39 15 41 65 46 29 3 66 9 84 13 29
6 34 3 53 -29 30 -50 52 -55 108 -20 54 33 60 51 37 104 l-18 38 31 35 c16 19
38 48 48 66 15 24 24 30 41 25 13 -3 34 -8 47 -11 32 -8 51 15 66 76 11 45 10
53 -5 69 -9 11 -31 22 -49 25 -32 6 -33 8 -40 69 -3 34 -9 73 -12 87 -5 22 0
28 29 42 20 9 38 26 42 37 8 26 -40 118 -66 126 -11 4 -36 -3 -58 -16 l-40
-22 -41 37 c-23 20 -52 42 -66 48 -28 13 -27 11 -14 60 15 51 1 73 -54 87 -62
15 -84 14 -94 -6z m4 -318 c54 -16 115 -70 133 -118 27 -72 4 -173 -51 -224
-57 -53 -159 -68 -227 -34 -171 88 -143 337 43 381 46 11 48 11 102 -5z"/>
</g>
</svg>
