<?xml version="1.0" standalone="no"?>
<!DOCTYPE svg PUBLIC "-//W3C//DTD SVG 20010904//EN"
 "http://www.w3.org/TR/2001/REC-SVG-20010904/DTD/svg10.dtd">
<svg version="1.0" xmlns="http://www.w3.org/2000/svg"
 width="225.000000pt" height="225.000000pt" viewBox="0 0 225.000000 225.000000"
 preserveAspectRatio="xMidYMid meet">

<g transform="translate(0.000000,225.000000) scale(0.100000,-0.100000)"
fill="#000000" stroke="none">
<path d="M261 2233 c-18 -9 -42 -31 -52 -47 -18 -30 -19 -73 -19 -1061 0 -990
1 -1031 19 -1061 41 -67 0 -64 916 -64 916 0 875 -3 916 64 18 30 19 71 19
1061 0 990 -1 1031 -19 1061 -41 67 0 64 -918 64 -752 0 -831 -2 -862 -17z
m338 -531 c63 -34 87 -110 55 -178 -44 -92 -181 -99 -234 -11 -73 118 57 254
179 189z m1190 -10 c67 -36 87 -114 45 -178 -35 -53 -47 -54 -520 -54 -476 0
-483 1 -520 58 -22 34 -22 100 0 134 37 57 41 58 521 58 408 0 443 -1 474 -18z
m-1190 -450 c63 -34 87 -110 55 -178 -44 -92 -181 -99 -234 -11 -73 119 56
255 179 189z m1190 -10 c36 -19 71 -72 71 -107 0 -35 -35 -88 -71 -107 -31
-17 -67 -18 -472 -18 -479 0 -485 1 -523 58 -22 34 -22 100 0 134 37 57 41 58
521 58 408 0 443 -1 474 -18z m-1184 -452 c59 -37 80 -111 49 -176 -44 -92
-181 -99 -234 -11 -74 121 65 261 185 187z m1178 -4 c93 -39 97 -169 6 -218
-31 -17 -67 -18 -472 -18 -479 0 -485 1 -523 58 -22 34 -22 100 0 134 37 57
41 58 519 58 347 0 444 -3 470 -14z"/>
</g>
</svg>
