<?xml version="1.0" encoding="UTF-8"?>
<svg version="1.1" xmlns="http://www.w3.org/2000/svg" width="300" height="300">
<path d="M0 0 C99 0 198 0 300 0 C300 99 300 198 300 300 C201 300 102 300 0 300 C0 201 0 102 0 0 Z " fill="#F6F6F6" transform="translate(0,0)"/>
<path d="M0 0 C1.2320517 -0.00099701 2.46410339 -0.00199402 3.73348999 -0.00302124 C6.32369478 0.00163648 8.91391065 0.02095276 11.50390625 0.05419922 C15.4565558 0.10151005 19.40651282 0.0952893 23.359375 0.08203125 C25.88543266 0.09318289 28.41147903 0.10740146 30.9375 0.125 C32.11164459 0.12317719 33.28578918 0.12135437 34.49551392 0.11947632 C45.33543489 0.30593505 51.60672267 3.83507507 59.5 11.23046875 C67.22129055 19.48114544 70.20085533 28.54485514 70.03125 39.7265625 C70.0284201 40.4477124 70.02559021 41.1688623 70.02267456 41.91186523 C70.01160446 44.18360997 69.98652645 46.45493977 69.9609375 48.7265625 C69.9508906 50.27994217 69.94176777 51.8333281 69.93359375 53.38671875 C69.91170861 57.16682312 69.87727264 60.94662282 69.8359375 64.7265625 C52.00249398 72.38766181 34.04280233 74.20914401 14.8359375 74.2265625 C14.01912506 74.2308728 13.20231262 74.23518311 12.36074829 74.23962402 C-2.41898776 74.27303672 -16.59217192 72.55061822 -30.7265625 68.0390625 C-31.46068359 67.81412109 -32.19480469 67.58917969 -32.95117188 67.35742188 C-34.69158683 66.8227846 -36.4283195 66.27617824 -38.1640625 65.7265625 C-38.21402229 61.35239115 -38.25004298 56.97837717 -38.27392578 52.60400391 C-38.28389681 51.12025046 -38.29747855 49.63651621 -38.31494141 48.15283203 C-38.48069274 33.69346584 -37.8323643 21.56433028 -27.4765625 10.5390625 C-18.76553643 2.54184351 -11.83902087 -0.18636826 0 0 Z " fill="#010101" transform="translate(134.1640625,156.2734375)"/>
<path d="M0 0 C1.72416138 0.00616333 1.72416138 0.00616333 3.4831543 0.01245117 C10.13777533 0.05575067 16.78919605 0.13291735 23.4375 0.4375 C24.72269531 0.49550781 26.00789063 0.55351562 27.33203125 0.61328125 C31.83920412 1.31368415 34.49123733 2.57972348 37.20703125 6.28125 C37.61308594 7.0546875 38.01914063 7.828125 38.4375 8.625 C38.85644531 9.3984375 39.27539062 10.171875 39.70703125 10.96875 C40.625 13.125 40.625 13.125 40.625 16.125 C38.3515625 17.6328125 38.3515625 17.6328125 35.25 19.25 C25.60484659 24.67041679 18.13168812 30.88566646 13.625 41.125 C13.25761719 41.94097656 12.89023438 42.75695312 12.51171875 43.59765625 C7.95697477 54.31372662 7.16107546 64.62759206 6.625 76.125 C-3.97699434 75.9518331 -14.49487077 75.7032102 -24.875 73.375 C-25.52968262 73.23030273 -26.18436523 73.08560547 -26.85888672 72.93652344 C-33.86907764 71.22924447 -40.61125021 68.60822828 -47.375 66.125 C-47.42493675 61.60841286 -47.46097002 57.09197774 -47.48486328 52.57519531 C-47.49483806 51.04294022 -47.50842276 49.51070375 -47.52587891 47.97851562 C-47.6832843 33.7935123 -47.41471381 22.79037247 -37.3671875 11.9609375 C-26.31794424 1.38693051 -14.70941386 -0.06276527 0 0 Z " fill="#020202" transform="translate(78.375,131.875)"/>
<path d="M0 0 C1.01337936 -0.0004985 2.02675873 -0.00099701 3.07084656 -0.00151062 C5.20993006 0.00082425 7.3490166 0.01051806 9.48803711 0.02709961 C12.74032545 0.05062649 15.99178911 0.04766363 19.24414062 0.04101562 C21.32943192 0.04659542 23.41471978 0.05370719 25.5 0.0625 C26.46279373 0.06158859 27.42558746 0.06067719 28.41755676 0.05973816 C40.39197406 0.18367849 48.24599026 2.81780859 57.203125 10.95703125 C67.5117667 21.93856079 68.25940195 33.39455957 67.82421875 47.61328125 C67.79405411 49.34109889 67.76668987 51.06896779 67.7421875 52.796875 C67.67676702 56.98696671 67.57361778 61.17454276 67.44921875 65.36328125 C61.31791941 67.96737548 55.34574833 70.12200605 48.82421875 71.48828125 C48.05787109 71.65295898 47.29152344 71.81763672 46.50195312 71.98730469 C35.61165674 74.25051443 24.59858354 75.84570569 13.44921875 75.36328125 C13.41054687 73.89181641 13.41054687 73.89181641 13.37109375 72.390625 C12.77246702 56.31408222 9.52673034 40.02920683 -1.55078125 27.61328125 C-7.07155398 22.55151041 -14.07120341 19.04087948 -20.55078125 15.36328125 C-18.56258004 4.7473812 -18.56258004 4.7473812 -14.09692383 1.67504883 C-9.31367742 -0.09434071 -5.05938576 -0.04809297 0 0 Z " fill="#010101" transform="translate(201.55078125,132.63671875)"/>
<path d="M0 0 C7.4297366 5.09500513 13.21675925 11.99551699 15 21 C15.94084208 28.92775132 13.98404062 35.678807 9.45703125 42.234375 C5.10602565 47.53125138 0.08686102 50.95656949 -6 54 C-16.98154745 54.69809348 -25.03148363 54.4570311 -33.75 47.375 C-40.62507107 40.93851105 -43.01953857 33.06816871 -43.375 23.8125 C-43.26442646 15.58582874 -39.76740464 9.61101097 -34.3125 3.625 C-24.14509502 -5.81616176 -11.99323632 -6.13486872 0 0 Z " fill="#020202" transform="translate(230,73)"/>
<path d="M0 0 C5.81621903 4.67826314 10.83787667 10.00282218 12.875 17.3125 C13.83323437 27.83958185 12.47991686 35.82046404 5.875 44.3125 C-0.77560973 50.80844439 -7.2792711 53.53821698 -16.625 53.875 C-23.37292293 53.69244096 -27.77245857 52.35897467 -33.125 48.3125 C-34.5171875 47.3534375 -34.5171875 47.3534375 -35.9375 46.375 C-40.78980774 41.79996699 -43.85240755 36.47386434 -44.42578125 29.82421875 C-44.45962962 18.77836823 -43.18640918 10.46115387 -35.125 2.3125 C-23.55978652 -5.87434467 -12.36482089 -6.67700328 0 0 Z " fill="#020202" transform="translate(100.125,73.6875)"/>
<path d="M0 0 C5.9172983 3.66246877 9.82375674 9.47127022 12 16 C12.61747691 26.67522589 12.75263895 35.49176846 5.9375 44.1875 C0.2120835 50.20987794 -5.52296353 53.12827655 -13.90478516 53.58984375 C-22.66364887 53.7368114 -29.51277243 52.15452439 -36.0546875 46.09765625 C-42.2530106 39.39780908 -44.51564741 33.6616822 -44.4375 24.625 C-44.45748047 23.81289062 -44.47746094 23.00078125 -44.49804688 22.1640625 C-44.49209501 14.73614027 -42.14751033 8.60199541 -36.875 3.25 C-26.63241903 -6.23306755 -11.91416306 -6.60694497 0 0 Z " fill="#020202" transform="translate(166,97)"/>
</svg>
