<svg width="20" height="20" viewBox="0 0 20 20" fill="none" xmlns="http://www.w3.org/2000/svg">
<path fill-rule="evenodd" clip-rule="evenodd" d="M10 0.833313C9.76111 0.833281 9.52501 0.884603 9.30769 0.983802C9.09037 1.083 8.89692 1.22776 8.74044 1.40826C8.58396 1.58876 8.46811 1.8008 8.40075 2.02999C8.33339 2.25918 8.31608 2.50018 8.35 2.73665C7.14219 3.09325 6.08214 3.831 5.32816 4.8397C4.57418 5.84841 4.16673 7.07396 4.16667 8.33331V15H3.33333C3.11232 15 2.90036 15.0878 2.74408 15.2441C2.5878 15.4003 2.5 15.6123 2.5 15.8333C2.5 16.0543 2.5878 16.2663 2.74408 16.4226C2.90036 16.5788 3.11232 16.6666 3.33333 16.6666H16.6667C16.8877 16.6666 17.0996 16.5788 17.2559 16.4226C17.4122 16.2663 17.5 16.0543 17.5 15.8333C17.5 15.6123 17.4122 15.4003 17.2559 15.2441C17.0996 15.0878 16.8877 15 16.6667 15H15.8333V8.33331C15.8333 7.07396 15.4258 5.84841 14.6718 4.8397C13.9179 3.831 12.8578 3.09325 11.65 2.73665C11.6839 2.50018 11.6666 2.25918 11.5992 2.02999C11.5319 1.8008 11.416 1.58876 11.2596 1.40826C11.1031 1.22776 10.9096 1.083 10.6923 0.983802C10.475 0.884603 10.2389 0.833281 10 0.833313ZM11.6667 18.3333C11.6667 18.5543 11.5789 18.7663 11.4226 18.9226C11.2663 19.0788 11.0543 19.1666 10.8333 19.1666H9.16667C8.94565 19.1666 8.73369 19.0788 8.57741 18.9226C8.42113 18.7663 8.33333 18.5543 8.33333 18.3333C8.33333 18.1123 8.42113 17.9003 8.57741 17.7441C8.73369 17.5878 8.94565 17.5 9.16667 17.5H10.8333C11.0543 17.5 11.2663 17.5878 11.4226 17.7441C11.5789 17.9003 11.6667 18.1123 11.6667 18.3333Z" fill="white"/>
</svg>
