<?xml version="1.0" encoding="UTF-8"?>
<svg version="1.1" xmlns="http://www.w3.org/2000/svg" width="512" height="512">
<path d="M0 0 C1.16246902 -0.00743927 1.16246902 -0.00743927 2.34842226 -0.01502883 C4.94281294 -0.02797244 7.5366879 -0.01960427 10.13109112 -0.01129913 C12.01091825 -0.01618862 13.89074238 -0.0223787 15.7705614 -0.02975702 C20.93460261 -0.04617233 26.09849132 -0.04383534 31.26254952 -0.03838205 C36.83255938 -0.03571382 42.4025284 -0.0502398 47.97252178 -0.06247711 C58.88437031 -0.08354219 69.79616571 -0.08807134 80.70803217 -0.08628923 C89.57697065 -0.08498211 98.44589255 -0.08878315 107.31482792 -0.09621429 C109.86855894 -0.09831347 112.42228997 -0.10041107 114.97602099 -0.10250711 C116.24704906 -0.10355064 117.51807712 -0.10459417 118.82762118 -0.10566932 C136.04072421 -0.11920451 153.25381925 -0.12679499 170.46692657 -0.12234497 C171.13999656 -0.12217302 171.81306654 -0.12200106 172.50653258 -0.1218239 C175.91786365 -0.12093501 179.32919471 -0.1199902 182.74052576 -0.11902589 C183.75676396 -0.11873934 183.75676396 -0.11873934 184.79353223 -0.118447 C186.16358603 -0.11805991 187.53363984 -0.11766958 188.90369364 -0.11727602 C210.21950196 -0.11130662 231.53520169 -0.12674187 252.85098553 -0.15888214 C276.8039569 -0.19496824 300.75684984 -0.21424675 324.70985717 -0.20934343 C337.39074541 -0.20709799 350.07152603 -0.21235296 362.75239277 -0.23723602 C373.54834203 -0.25823987 384.34412464 -0.26185015 395.14008073 -0.24293643 C400.64817962 -0.23377298 406.15596771 -0.23265456 411.66404247 -0.25329208 C416.70811831 -0.27198206 421.75162835 -0.26752043 426.79568251 -0.24474627 C428.61865476 -0.24055555 430.44167021 -0.24477634 432.2645968 -0.25834221 C442.81213302 -0.33147807 452.04056928 -0.23891535 460.17020637 7.37286997 C467.9117312 15.42565455 468.4854705 22.82977015 468.4394865 33.60974884 C468.44437907 34.96160297 468.45057058 36.31345291 468.45794439 37.66529578 C468.47432092 41.36995358 468.4720307 45.07439825 468.46656942 48.77907956 C468.46389638 52.77852995 468.47843622 56.7779239 468.49066448 60.77735138 C468.51170945 68.60908064 468.51625986 76.44073586 468.5144766 84.27249006 C468.51316844 90.63952377 468.51697586 97.0065344 468.52440166 103.37356377 C468.52650089 105.20832099 468.52859849 107.04307822 468.53069448 108.87783545 C468.53225978 110.24770332 468.53225978 110.24770332 468.53385669 111.64524528 C468.55275548 128.91388703 468.55171004 146.1824863 468.54488736 163.45113411 C468.53931283 179.2417243 468.56013415 195.0321522 468.59324783 210.82270447 C468.6269986 227.04318635 468.64215139 243.26359051 468.6375308 259.48410815 C468.63528743 268.58796664 468.64050986 277.69167515 468.66542339 286.79550362 C468.6864545 294.54653667 468.69001066 302.29733752 468.6711238 310.04838017 C468.66197683 314.00111831 468.66079055 317.95342372 468.68147945 321.90612793 C468.70023261 325.52915494 468.69563858 329.15139614 468.67293364 332.77439364 C468.6667904 334.69633135 468.68510536 336.61830001 468.70447016 338.54014999 C468.61664627 347.15599742 467.04531233 354.072566 461.0553174 360.52722102 C455.03082508 366.25819318 449.12535812 368.76249736 440.82536602 368.7438736 C439.78733936 368.74771851 439.78733936 368.74771851 438.72834247 368.75164109 C436.42816 368.75655086 434.12864576 368.74013351 431.82852459 368.72368622 C430.17234087 368.72283933 428.51615602 368.72331629 426.85997295 368.72501373 C422.37696003 368.72587272 417.89418905 368.70826262 413.41123223 368.68729186 C408.72139835 368.66850896 404.03155862 368.66677335 399.34169292 368.66321564 C390.46663128 368.65389992 381.59168081 368.62929252 372.71666807 368.59916717 C362.610305 368.56560845 352.50393656 368.54913345 342.39753163 368.53408086 C321.6133182 368.50274256 300.82920477 368.44999124 280.04507732 368.38311005 C280.34800701 369.24589569 280.6509367 370.10868134 280.96304607 370.997612 C282.08493178 374.19994844 283.20263726 377.40368029 284.31753826 380.60845184 C284.80089525 381.99510248 285.28591044 383.38117625 285.77261639 384.76665497 C286.47197685 386.75840503 287.1653445 388.75215459 287.85757732 390.7463913 C288.48599529 392.54523773 288.48599529 392.54523773 289.12710857 394.3804245 C290.04507732 397.38311005 290.04507732 397.38311005 290.04507732 400.38311005 C290.69057537 400.36216278 291.33607342 400.34121552 292.00113201 400.31963348 C294.932288 400.236368 297.86319509 400.18441799 300.79507732 400.13311005 C301.81085857 400.09959442 302.82663982 400.0660788 303.87320232 400.03154755 C304.85288982 400.01865692 305.83257732 400.0057663 306.84195232 399.99248505 C307.74268475 399.97153778 308.64341717 399.95059052 309.57144451 399.92900848 C312.04507732 400.38311005 312.04507732 400.38311005 314.35464764 401.76689911 C317.00391634 405.86706714 316.46857825 409.86850771 316.29507732 414.63311005 C316.27703045 415.56896942 316.25898357 416.5048288 316.24038982 417.46904755 C316.19333406 419.7747802 316.12761445 422.0784195 316.04507732 424.38311005 C316.78787945 424.3742276 317.53068157 424.36534515 318.29599285 424.35619354 C325.29957638 424.27601261 332.30300067 424.21512818 339.30691433 424.17586136 C342.90766018 424.15499492 346.50802648 424.12669584 350.10855389 424.08135223 C353.58395646 424.0378588 357.0589942 424.01396583 360.53464794 424.00360107 C362.50453516 423.9926239 364.4742758 423.96140305 366.44394207 423.92992401 C368.24535656 423.92947083 368.24535656 423.92947083 370.08316326 423.92900848 C371.14017437 423.92012604 372.19718548 423.91124359 373.28622723 423.90209198 C376.73504599 424.50340922 377.90034499 425.67521501 380.04507732 428.38311005 C380.57632732 430.38311005 380.57632732 430.38311005 380.54507732 432.38311005 C380.55538982 433.04311005 380.56570232 433.70311005 380.57632732 434.38311005 C379.80243138 437.29660067 378.34680438 438.4763782 376.04507732 440.38311005 C373.55233288 440.8845067 373.55233288 440.8845067 370.69143963 440.88647461 C369.59912281 440.8969056 368.50680599 440.90733659 367.38138866 440.91808367 C366.18179264 440.90916078 364.98219662 440.90023789 363.7462492 440.89104462 C361.83425354 440.90040456 361.83425354 440.90040456 359.88363171 440.90995359 C356.34295773 440.92668164 352.80271393 440.91838514 349.26203823 440.90600872 C345.44465218 440.89697461 341.62734115 440.91091977 337.8099699 440.92192841 C330.33073346 440.93973582 322.85165737 440.9358638 315.37241459 440.92427784 C309.29510842 440.91525251 303.21784726 440.91401561 297.14053631 440.91837311 C296.27632045 440.91898604 295.4121046 440.91959897 294.52170038 440.92023048 C292.76618543 440.92150935 291.01067049 440.9228062 289.25515556 440.92412084 C272.78500538 440.93553315 256.31494417 440.92240275 239.84480858 440.90091938 C225.70579109 440.8830478 211.56690495 440.88615172 197.42788982 440.90459442 C181.01758186 440.92598967 164.60735193 440.93443445 148.19703197 440.92214537 C146.44789411 440.92087114 144.69875623 440.91961366 142.94961834 440.91837311 C142.08895874 440.91775601 141.22829913 440.9171389 140.34155893 440.9165031 C134.26997508 440.91304616 128.19844063 440.91888595 122.12686443 440.92829132 C114.7298649 440.93949775 107.3330352 440.93649995 99.93605518 440.91516834 C96.16033993 440.90463952 92.38490806 440.90056696 88.60919476 440.91376495 C84.52051713 440.927841 80.43255804 440.91106012 76.34390545 440.89104462 C74.54451141 440.90442895 74.54451141 440.90442895 72.70876598 440.91808367 C71.07029076 440.90243718 71.07029076 440.90243718 69.39871502 440.88647461 C68.45462025 440.8858252 67.51052547 440.88517579 66.53782177 440.8845067 C63.29830273 440.232902 62.09851258 438.91398624 60.04507732 436.38311005 C59.51382732 434.38311005 59.51382732 434.38311005 59.54507732 432.38311005 C59.53476482 431.72311005 59.52445232 431.06311005 59.51382732 430.38311005 C60.2934701 427.44798431 61.70598756 426.28622555 64.04507732 424.38311005 C66.80392742 423.90209198 66.80392742 423.90209198 70.00699139 423.92900848 C71.20793438 423.92931061 72.40887737 423.92961273 73.64621258 423.92992401 C74.93799419 423.95056915 76.22977581 423.97121429 77.56070232 423.99248505 C78.90019161 423.99994934 80.23969185 424.00564139 81.57919598 424.00963593 C85.09759169 424.02487792 88.61532248 424.06414587 92.13345623 424.10845184 C95.72630093 424.14943641 99.31925353 424.16765365 102.91226482 424.18779755 C109.95680699 424.2306426 117.00089865 424.29887558 124.04507732 424.38311005 C124.02413006 423.79819794 124.00318279 423.21328583 123.98160076 422.61064911 C123.89827617 419.95164539 123.84636836 417.29291649 123.79507732 414.63311005 C123.7615617 413.71271942 123.72804607 412.7923288 123.69351482 411.84404755 C123.59546993 405.07894957 123.59546993 405.07894957 125.73550701 401.76689911 C128.48779275 400.11785518 130.05381722 399.91819702 133.24820232 399.99248505 C134.22788982 400.00537567 135.20757732 400.0182663 136.21695232 400.03154755 C137.7406242 400.08182098 137.7406242 400.08182098 139.29507732 400.13311005 C140.32632732 400.15115692 141.35757732 400.1692038 142.42007732 400.18779755 C144.96268797 400.23488293 147.50340894 400.30062954 150.04507732 400.38311005 C150.2899992 399.14689911 150.53492107 397.91068817 150.78726482 396.6370163 C152.10708849 390.69780981 154.12656464 385.04316766 156.17007732 379.32061005 C156.54261639 378.26422333 156.91515545 377.20783661 157.29898357 376.11943817 C158.20973109 373.53898688 159.12517438 370.96030861 160.04507732 368.38311005 C158.76016368 368.39002349 158.76016368 368.39002349 157.44929218 368.39707661 C136.58284141 368.50761458 115.71644128 368.59029523 94.8497591 368.64217091 C84.75867081 368.66792598 74.66777825 368.70302492 64.57681561 368.76030731 C55.77904195 368.81022487 46.98141008 368.84242066 38.18349874 368.85355252 C33.52725152 368.86005715 28.87140986 368.87528842 24.21529293 368.91176033 C19.82724403 368.94585198 15.43976541 368.95613661 11.05159664 368.94864845 C9.44643327 368.95001714 7.84124962 368.95987117 6.23620129 368.97913742 C-3.85660012 369.09428205 -12.38674867 368.57890662 -20.08751202 361.39313984 C-27.81338486 353.32431914 -28.39534612 345.94354672 -28.34933186 335.15647125 C-28.35422443 333.80461713 -28.36041593 332.45276718 -28.36778975 331.10092431 C-28.38416627 327.39626651 -28.38187605 323.69182184 -28.37641478 319.98714054 C-28.37374173 315.98769014 -28.38828157 311.9882962 -28.40050983 307.98886871 C-28.4215548 300.15713945 -28.42610521 292.32548423 -28.42432195 284.49373003 C-28.42301379 278.12669632 -28.42682122 271.75968569 -28.43424702 265.39265633 C-28.43634624 263.5578991 -28.43844384 261.72314187 -28.44053984 259.88838464 C-28.44210513 258.51851678 -28.44210513 258.51851678 -28.44370204 257.12097482 C-28.46260083 239.85233306 -28.46155539 222.5837338 -28.45473272 205.31508598 C-28.44915818 189.52449579 -28.4699795 173.73406789 -28.50309318 157.94351562 C-28.53684396 141.72303375 -28.55199674 125.50262958 -28.54737616 109.28211194 C-28.54513278 100.17825345 -28.55035522 91.07454494 -28.57526875 81.97071648 C-28.59629985 74.21968342 -28.59985601 66.46888257 -28.58096915 58.71783992 C-28.57182219 54.76510178 -28.5706359 50.81279638 -28.59132481 46.86009216 C-28.61007797 43.23706515 -28.60548394 39.61482395 -28.58277899 35.99182645 C-28.57663575 34.06988874 -28.59495071 32.14792008 -28.61431551 30.22607011 C-28.52649163 21.61022267 -26.95515768 14.69365409 -20.96516275 8.23899907 C-14.71632697 2.29461372 -8.57238216 -0.07786102 0 0 Z M-9.32992268 21.82061005 C-11.681901 25.52949894 -12.08006158 28.5947407 -12.0779705 32.93581772 C-12.07996138 33.84975044 -12.08195225 34.76368317 -12.08400345 35.70531082 C-12.08109078 36.70502033 -12.07817812 37.70472984 -12.07517719 38.73473358 C-12.07603321 39.79730377 -12.07688923 40.85987396 -12.07777119 41.95464325 C-12.07943063 45.53791209 -12.0738958 49.12113452 -12.06844807 52.70439911 C-12.06814184 55.30808638 -12.06827503 57.91177373 -12.06881332 60.51546097 C-12.06934524 66.79230092 -12.06472545 73.06912659 -12.058312 79.34596287 C-12.05111621 86.60557873 -12.05031748 93.86518958 -12.04952717 101.12480927 C-12.04427535 120.29424513 -12.03031425 139.4636778 -12.01742268 158.63311005 C-11.99679768 201.45061005 -11.97617268 244.26811005 -11.95492268 288.38311005 C141.16507732 288.38311005 294.28507732 288.38311005 452.04507732 288.38311005 C452.10695232 245.62748505 452.16882732 202.87186005 452.23257732 158.82061005 C452.25988934 145.31050995 452.28720135 131.80040985 452.315341 117.88091278 C452.32537306 105.79150505 452.32537306 105.79150505 452.3314085 93.70209503 C452.33420828 88.30902911 452.34522193 82.91605338 452.36180401 77.52301788 C452.38291336 70.64740166 452.38855598 63.77191561 452.38429415 56.89626896 C452.38518557 54.37070596 452.39115101 51.84513854 452.40272272 49.31960189 C452.41761532 45.91140354 452.41405809 42.50370669 452.40584087 39.09549713 C452.41457887 38.10452561 452.42331686 37.1135541 452.43231964 36.09255314 C452.39543663 30.41181097 451.78729976 26.39529733 449.04507732 21.38311005 C443.92774614 16.39699248 439.57660888 16.23413613 432.70079613 16.25168228 C431.9553935 16.24962965 431.20999088 16.24757701 430.4420003 16.24546218 C427.9303376 16.23978268 425.41872958 16.2412506 422.90706158 16.24266815 C421.0936854 16.24008507 419.28030979 16.23707207 417.46693498 16.23366475 C412.47279135 16.22558496 407.47866208 16.22380464 402.48451269 16.22306728 C397.10266348 16.22121845 391.72082175 16.21367202 386.33897686 16.20693207 C374.56639291 16.19334172 362.79381236 16.18732306 351.02122188 16.18292141 C343.67349885 16.18016043 336.32577714 16.17592336 328.978055 16.17141724 C308.64290703 16.15922414 288.30776011 16.14892459 267.97260857 16.14554214 C266.67076103 16.14532258 265.3689135 16.14510301 264.02761604 16.14487679 C262.07012129 16.14454938 262.07012129 16.14454938 260.0730812 16.14421535 C257.42857404 16.14377188 254.7840669 16.14332531 252.13955975 16.14287567 C250.17190127 16.14254353 250.17190127 16.14254353 248.16449211 16.14220467 C226.90105403 16.13825523 205.63765019 16.12079694 184.37422534 16.09751615 C162.5546541 16.07381882 140.73510005 16.06134105 118.91551572 16.06017423 C106.66003576 16.05925661 94.40460042 16.05348233 82.14913273 16.03535461 C71.71501409 16.01997554 61.28095386 16.01482023 50.84682604 16.02309272 C45.5214613 16.02700686 40.19621427 16.02603232 34.87086391 16.01203537 C29.99719104 15.99934249 25.12372489 16.00045328 20.25005249 16.01262608 C18.48558885 16.01459109 16.7211108 16.01146776 14.95666745 16.00278172 C12.55982055 15.99172815 10.16370825 15.99914975 7.76688194 16.01117325 C7.08050243 16.00357805 6.39412293 15.99598286 5.68694404 15.98815751 C-0.33353849 16.05343693 -5.0617033 17.44006911 -9.32992268 21.82061005 Z M-11.95492268 304.38311005 C-14.31843847 336.13753538 -14.31843847 336.13753538 -8.95492268 347.38311005 C-3.83759149 352.36922761 0.51354576 352.53208396 7.38935852 352.51453781 C8.13476114 352.51659045 8.88016377 352.51864308 9.64815435 352.52075791 C12.15981704 352.52643741 14.67142507 352.52496949 17.18309307 352.52355194 C18.99646925 352.52613503 20.80984485 352.52914803 22.62321967 352.53255534 C27.6173633 352.54063513 32.61149257 352.54241546 37.60564196 352.54315281 C42.98749117 352.54500164 48.3693329 352.55254807 53.75117779 352.55928802 C65.52376174 352.57287837 77.29634228 352.57889703 89.06893277 352.58329868 C96.4166558 352.58605967 103.76437751 352.59029673 111.11209965 352.59480286 C131.44724762 352.60699596 151.78239453 352.6172955 172.11754608 352.62067795 C173.41939361 352.62089751 174.72124115 352.62111708 176.06253861 352.6213433 C178.02003335 352.62167072 178.02003335 352.62167072 180.01707345 352.62200475 C182.6615806 352.62244822 185.30608775 352.62289478 187.9505949 352.62334442 C189.91825338 352.62367657 189.91825338 352.62367657 191.92566254 352.62401542 C213.18910062 352.62796486 234.45250446 352.64542315 255.71592931 352.66870394 C277.53550055 352.69240127 299.3550546 352.70487904 321.17463893 352.70604587 C333.43011889 352.70696349 345.68555423 352.71273776 357.94102192 352.73086548 C368.37514056 352.74624456 378.80920079 352.75139987 389.24332861 352.74312738 C394.56869335 352.73921323 399.89394038 352.74018777 405.21929073 352.75418472 C410.09296361 352.7668776 414.96642976 352.76576682 419.84010216 352.75359401 C421.6045658 352.75162901 423.36904385 352.75475233 425.1334872 352.76343837 C427.53033409 352.77449194 429.9264464 352.76707034 432.32327271 352.75504684 C433.00965221 352.76264204 433.69603172 352.77023723 434.40321061 352.77806258 C439.37219509 352.72418444 442.69664689 351.62076332 447.04507732 349.38311005 C458.19320219 337.94161348 452.04507732 318.20952353 452.04507732 304.38311005 C298.92507732 304.38311005 145.80507732 304.38311005 -11.95492268 304.38311005 Z M178.04507732 368.38311005 C171.27809622 384.09636849 171.27809622 384.09636849 168.04507732 400.38311005 C202.36507732 400.38311005 236.68507732 400.38311005 272.04507732 400.38311005 C269.10464303 389.60151763 265.57903953 378.98499667 262.04507732 368.38311005 C234.32507732 368.38311005 206.60507732 368.38311005 178.04507732 368.38311005 Z M140.04507732 416.38311005 C140.04507732 419.02311005 140.04507732 421.66311005 140.04507732 424.38311005 C192.84507732 424.38311005 245.64507732 424.38311005 300.04507732 424.38311005 C300.04507732 421.74311005 300.04507732 419.10311005 300.04507732 416.38311005 C247.24507732 416.38311005 194.44507732 416.38311005 140.04507732 416.38311005 Z " fill="#000000" transform="translate(35.954922676086426,39.61688995361328)"/>
</svg>
