<?xml version="1.0" standalone="no"?>
<!DOCTYPE svg PUBLIC "-//W3C//DTD SVG 20010904//EN"
 "http://www.w3.org/TR/2001/REC-SVG-20010904/DTD/svg10.dtd">
<svg version="1.0" xmlns="http://www.w3.org/2000/svg"
 width="512.000000pt" height="512.000000pt" viewBox="0 0 512.000000 512.000000"
 preserveAspectRatio="xMidYMid meet">

<g transform="translate(0.000000,512.000000) scale(0.100000,-0.100000)"
fill="#000000" stroke="none">
<path d="M2445 4930 c-469 -53 -853 -398 -956 -859 -25 -115 -35 -353 -20
-503 31 -321 185 -598 436 -787 86 -65 264 -153 365 -181 658 -179 1315 279
1381 963 6 69 9 300 7 597 l-3 485 -24 60 c-33 82 -124 173 -206 206 -60 24
-61 24 -485 25 -234 1 -456 -2 -495 -6z m911 -295 l25 -25 -3 -558 -3 -557
-33 -95 c-95 -273 -304 -468 -581 -542 -106 -28 -296 -28 -402 0 -161 43 -285
118 -401 240 -83 88 -138 180 -180 302 l-33 95 0 250 c0 234 1 255 23 325 85
268 280 470 538 554 95 31 140 34 582 35 l443 1 25 -25z"/>
<path d="M1705 2190 c-483 -6 -503 -7 -585 -29 -269 -74 -499 -236 -644 -453
-74 -112 -115 -208 -167 -393 -66 -234 -72 -268 -65 -375 7 -121 26 -192 82
-305 104 -212 294 -366 527 -428 l82 -22 1615 0 1615 0 80 22 c217 58 340 134
458 283 126 158 172 301 165 508 -4 113 -10 146 -52 297 -57 203 -96 298 -172
412 -129 193 -324 344 -546 422 -169 59 -177 59 -1073 64 -451 2 -1045 1
-1320 -3z m-315 -280 c0 -7 166 -10 479 -10 442 0 480 -1 501 -18 l21 -17 -56
-328 c-39 -230 -53 -332 -46 -345 5 -9 56 -63 113 -120 85 -83 111 -104 141
-109 37 -6 40 -4 151 107 72 71 116 122 119 138 4 21 -75 525 -98 629 -4 16 3
26 29 42 33 21 44 21 568 21 329 0 557 -4 594 -11 258 -45 481 -209 588 -432
38 -78 119 -358 130 -448 28 -225 -132 -465 -365 -546 l-68 -23 -1623 2 -1623
3 -58 22 c-152 57 -276 182 -327 328 -13 36 -24 97 -27 155 -5 91 -4 102 42
264 52 187 76 249 130 331 126 189 313 315 535 360 80 16 150 18 150 5z"/>
</g>
</svg>
