<?xml version="1.0" encoding="UTF-8"?>
<!DOCTYPE svg PUBLIC "-//W3C//DTD SVG 1.1//EN" "http://www.w3.org/Graphics/SVG/1.1/DTD/svg11.dtd">
<svg xmlns="http://www.w3.org/2000/svg" version="1.1" width="500px" height="500px" style="shape-rendering:geometricPrecision; text-rendering:geometricPrecision; image-rendering:optimizeQuality; fill-rule:evenodd; clip-rule:evenodd" xmlns:xlink="http://www.w3.org/1999/xlink">
<g><path style="opacity:1" fill="#030303" d="M 115.5,-0.5 C 118.5,-0.5 121.5,-0.5 124.5,-0.5C 124.5,-0.166667 124.5,0.166667 124.5,0.5C 124.833,1.5 125.5,2.16667 126.5,2.5C 127.392,7.43758 127.726,12.4376 127.5,17.5C 139.678,17.8284 151.678,17.4951 163.5,16.5C 163.5,12.8333 163.5,9.16667 163.5,5.5C 165.137,3.52483 166.804,1.52483 168.5,-0.5C 170.167,-0.5 171.833,-0.5 173.5,-0.5C 176.086,0.415309 178.086,2.08198 179.5,4.5C 179.5,4.83333 179.5,5.16667 179.5,5.5C 179.5,9.5 179.5,13.5 179.5,17.5C 191.678,17.8284 203.678,17.4951 215.5,16.5C 215.5,12.8333 215.5,9.16667 215.5,5.5C 215.5,5.16667 215.5,4.83333 215.5,4.5C 216.906,4.02694 217.573,3.02694 217.5,1.5C 218.492,1.67158 219.158,1.33825 219.5,0.5C 219.5,0.166667 219.5,-0.166667 219.5,-0.5C 221.5,-0.5 223.5,-0.5 225.5,-0.5C 226.965,0.736849 228.632,1.73685 230.5,2.5C 231.404,3.20895 231.737,4.20895 231.5,5.5C 231.5,9.16667 231.5,12.8333 231.5,16.5C 243.5,16.5 255.5,16.5 267.5,16.5C 267.5,12.8333 267.5,9.16667 267.5,5.5C 267.5,5.16667 267.5,4.83333 267.5,4.5C 268.947,2.59682 270.614,0.930149 272.5,-0.5C 274.833,-0.5 277.167,-0.5 279.5,-0.5C 279.833,0.833333 280.167,0.833333 280.5,-0.5C 280.833,-0.5 281.167,-0.5 281.5,-0.5C 281.5,0.166667 281.5,0.833333 281.5,1.5C 281.932,2.70951 282.599,3.70951 283.5,4.5C 283.5,4.83333 283.5,5.16667 283.5,5.5C 283.5,9.16667 283.5,12.8333 283.5,16.5C 295.5,16.5 307.5,16.5 319.5,16.5C 319.334,12.4862 319.501,8.48617 320,4.5C 320.997,2.67694 322.164,1.01027 323.5,-0.5C 325.5,-0.5 327.5,-0.5 329.5,-0.5C 332.797,1.13348 334.464,3.80015 334.5,7.5C 334.5,10.8333 334.5,14.1667 334.5,17.5C 346.833,17.5 359.167,17.5 371.5,17.5C 371.5,12.8333 371.5,8.16667 371.5,3.5C 372.833,2.83333 373.833,1.83333 374.5,0.5C 374.5,0.166667 374.5,-0.166667 374.5,-0.5C 377.5,-0.5 380.5,-0.5 383.5,-0.5C 383.5,-0.166667 383.5,0.166667 383.5,0.5C 383.833,1.5 384.5,2.16667 385.5,2.5C 386.06,7.30473 386.727,11.9714 387.5,16.5C 393.833,16.5 400.167,16.5 406.5,16.5C 410.532,16.4232 414.199,17.4232 417.5,19.5C 417.973,20.9063 418.973,21.573 420.5,21.5C 421.833,23.5 423.5,25.1667 425.5,26.5C 426.584,29.0041 427.917,31.3374 429.5,33.5C 430.831,182.627 430.831,331.627 429.5,480.5C 428.223,485.045 425.89,489.045 422.5,492.5C 421.5,492.833 420.833,493.5 420.5,494.5C 420.5,495.167 420.167,495.5 419.5,495.5C 417.847,495.66 416.514,496.326 415.5,497.5C 413.214,497.595 411.214,498.262 409.5,499.5C 302.833,499.5 196.167,499.5 89.5,499.5C 87.8984,497.926 85.8984,497.259 83.5,497.5C 82.4863,496.326 81.153,495.66 79.5,495.5C 78.1667,494.833 77.1667,493.833 76.5,492.5C 71.9167,487.67 69.2501,482.003 68.5,475.5C 68.5,329.833 68.5,184.167 68.5,38.5C 69.8059,35.6621 70.9725,32.6621 72,29.5C 74.0007,26.6693 76.1673,24.0026 78.5,21.5C 80.0269,21.573 81.0269,20.9063 81.5,19.5C 81.8333,19.5 82.1667,19.5 82.5,19.5C 84.153,19.3404 85.4863,18.6737 86.5,17.5C 88.3792,16.6586 90.3792,16.3253 92.5,16.5C 98.8333,16.5 105.167,16.5 111.5,16.5C 112.325,12.3528 112.825,8.01945 113,3.5C 114.045,2.62656 114.878,1.62656 115.5,0.5C 115.5,0.166667 115.5,-0.166667 115.5,-0.5 Z M 112.5,46.5 C 112.5,47.8333 113.167,48.5 114.5,48.5C 115.464,50.4047 117.131,51.4047 119.5,51.5C 120.863,50.8016 122.029,50.8016 123,51.5C 123.717,50.9558 124.217,50.2891 124.5,49.5C 126.411,49.4257 127.578,48.4257 128,46.5C 128.2,42.2467 128.7,38.08 129.5,34C 140.495,33.5002 151.495,33.3335 162.5,33.5C 162.784,36.7766 162.451,39.9433 161.5,43C 162.044,43.7172 162.711,44.2172 163.5,44.5C 163.712,47.7124 165.379,49.7124 168.5,50.5C 170.611,51.7416 172.611,51.7416 174.5,50.5C 176.368,51.6736 177.368,51.0069 177.5,48.5C 179.048,48.1788 179.715,47.1788 179.5,45.5C 179.5,45.1667 179.5,44.8333 179.5,44.5C 180.323,41.023 180.823,37.3563 181,33.5C 191.957,33.5443 203.124,33.5443 214.5,33.5C 214.121,38.2973 214.621,42.964 216,47.5C 218.457,51.3097 221.623,52.3097 225.5,50.5C 225.833,50.5 226.167,50.5 226.5,50.5C 227.758,51.0164 228.758,50.3497 229.5,48.5C 229.833,48.5 230.167,48.5 230.5,48.5C 231.11,47.609 231.443,46.609 231.5,45.5C 232.483,41.7016 232.817,37.7016 232.5,33.5C 243.833,33.5 255.167,33.5 266.5,33.5C 266.183,37.7016 266.517,41.7016 267.5,45.5C 267.328,46.4916 267.662,47.1583 268.5,47.5C 269.262,49.2624 270.596,50.2624 272.5,50.5C 278.443,52.9175 282.11,50.9175 283.5,44.5C 284.482,41.0381 284.815,37.3714 284.5,33.5C 295.876,33.5443 307.043,33.5443 318,33.5C 318.728,36.2305 318.562,38.8971 317.5,41.5C 318.332,44.161 319.166,46.8276 320,49.5C 320.383,48.944 320.883,48.6107 321.5,48.5C 321.821,50.0481 322.821,50.7148 324.5,50.5C 326.167,51.8333 327.833,51.8333 329.5,50.5C 333.239,49.9303 335.572,47.7636 336.5,44C 336.052,40.723 335.719,37.223 335.5,33.5C 346.838,33.3335 358.172,33.5001 369.5,34C 370.3,38.08 370.8,42.2467 371,46.5C 371.417,47.756 372.25,48.4226 373.5,48.5C 375.013,50.2413 377.013,51.2413 379.5,51.5C 381.869,51.4047 383.536,50.4047 384.5,48.5C 385.833,48.5 386.5,47.8333 386.5,46.5C 387.289,46.2172 387.956,45.7172 388.5,45C 388.358,41.3786 388.358,37.5453 388.5,33.5C 396.008,32.9888 403.341,33.6555 410.5,35.5C 410.833,36.5 411.5,37.1667 412.5,37.5C 413.833,184.5 413.833,331.5 412.5,478.5C 411.167,479.167 410.167,480.167 409.5,481.5C 302.833,482.833 196.167,482.833 89.5,481.5C 88.8333,480.167 87.8333,479.167 86.5,478.5C 86.6716,477.508 86.3382,476.842 85.5,476.5C 85.504,330.626 85.504,184.959 85.5,39.5C 86.4884,38.205 87.4884,36.8717 88.5,35.5C 95.6587,33.6555 102.992,32.9888 110.5,33.5C 110.642,37.5453 110.642,41.3786 110.5,45C 111.044,45.7172 111.711,46.2172 112.5,46.5 Z"/></g>
<g><path style="opacity:0.008" fill="#d2d2d2" d="M 173.5,-0.5 C 174.833,-0.5 176.167,-0.5 177.5,-0.5C 178.942,0.819534 179.608,2.4862 179.5,4.5C 178.086,2.08198 176.086,0.415309 173.5,-0.5 Z"/></g>
<g><path style="opacity:0.006" fill="#d8d8d8" d="M 225.5,-0.5 C 226.5,-0.5 227.5,-0.5 228.5,-0.5C 228.833,0.833333 229.167,0.833333 229.5,-0.5C 229.833,-0.5 230.167,-0.5 230.5,-0.5C 230.5,0.5 230.5,1.5 230.5,2.5C 228.632,1.73685 226.965,0.736849 225.5,-0.5 Z"/></g>
<g><path style="opacity:0.008" fill="#c6c6c6" d="M 329.5,-0.5 C 330.833,-0.5 332.167,-0.5 333.5,-0.5C 335.503,2.43552 336.169,5.43552 335.5,8.5C 335.5,7.83333 335.167,7.5 334.5,7.5C 334.464,3.80015 332.797,1.13348 329.5,-0.5 Z"/></g>
<g><path style="opacity:0.008" fill="#dadada" d="M 124.5,0.5 C 125.833,0.5 126.5,1.16667 126.5,2.5C 125.5,2.16667 124.833,1.5 124.5,0.5 Z"/></g>
<g><path style="opacity:0.082" fill="#cfcfcf" d="M 217.5,-0.5 C 217.833,-0.5 218.167,-0.5 218.5,-0.5C 218.5,0.166667 218.833,0.5 219.5,0.5C 219.158,1.33825 218.492,1.67158 217.5,1.5C 217.5,0.833333 217.5,0.166667 217.5,-0.5 Z"/></g>
<g><path style="opacity:0.008" fill="#cbcbcb" d="M 383.5,0.5 C 384.833,0.5 385.5,1.16667 385.5,2.5C 384.5,2.16667 383.833,1.5 383.5,0.5 Z"/></g>
<g><path style="opacity:0.055" fill="#d3d3d3" d="M 269.5,-0.5 C 270.5,-0.5 271.5,-0.5 272.5,-0.5C 270.614,0.930149 268.947,2.59682 267.5,4.5C 267.893,2.7162 268.559,1.04953 269.5,-0.5 Z"/></g>
<g><path style="opacity:0.02" fill="#eeeeee" d="M 281.5,1.5 C 283.048,1.82124 283.715,2.82124 283.5,4.5C 282.599,3.70951 281.932,2.70951 281.5,1.5 Z"/></g>
<g><path style="opacity:0.165" fill="#dbdbdb" d="M 374.5,0.5 C 373.833,1.83333 372.833,2.83333 371.5,3.5C 371.5,1.5 372.5,0.5 374.5,0.5 Z"/></g>
<g><path style="opacity:0.235" fill="#cccccc" d="M 165.5,-0.5 C 166.5,-0.5 167.5,-0.5 168.5,-0.5C 166.804,1.52483 165.137,3.52483 163.5,5.5C 163.704,3.31455 164.37,1.31455 165.5,-0.5 Z"/></g>
<g><path style="opacity:0.243" fill="#bcbcbc" d="M 217.5,1.5 C 217.573,3.02694 216.906,4.02694 215.5,4.5C 215.427,2.97306 216.094,1.97306 217.5,1.5 Z"/></g>
<g><path style="opacity:0.012" fill="#fefffe" d="M 111.5,6.5 C 111.5,9.83333 111.5,13.1667 111.5,16.5C 105.167,16.5 98.8333,16.5 92.5,16.5C 98.31,15.5104 104.31,15.1771 110.5,15.5C 110.19,12.2869 110.523,9.2869 111.5,6.5 Z"/></g>
<g><path style="opacity:0.012" fill="#fefffe" d="M 387.5,6.5 C 388.477,9.2869 388.81,12.2869 388.5,15.5C 394.69,15.1771 400.69,15.5104 406.5,16.5C 400.167,16.5 393.833,16.5 387.5,16.5C 387.5,13.1667 387.5,9.83333 387.5,6.5 Z"/></g>
<g><path style="opacity:0.525" fill="#828282" d="M 115.5,0.5 C 114.878,1.62656 114.045,2.62656 113,3.5C 112.825,8.01945 112.325,12.3528 111.5,16.5C 111.5,13.1667 111.5,9.83333 111.5,6.5C 110.891,3.12155 112.224,1.12155 115.5,0.5 Z"/></g>
<g><path style="opacity:0.526" fill="#6e6e6e" d="M 385.5,2.5 C 387.104,3.28696 387.771,4.6203 387.5,6.5C 387.5,9.83333 387.5,13.1667 387.5,16.5C 386.727,11.9714 386.06,7.30473 385.5,2.5 Z"/></g>
<g><path style="opacity:0.016" fill="#fcfcfc" d="M 163.5,5.5 C 163.5,9.16667 163.5,12.8333 163.5,16.5C 151.452,17.1451 139.785,16.4784 128.5,14.5C 139.424,15.6425 150.424,15.8091 161.5,15C 162.132,11.7296 162.799,8.56291 163.5,5.5 Z"/></g>
<g><path style="opacity:0.015" fill="#f6f6f6" d="M 215.5,5.5 C 215.5,9.16667 215.5,12.8333 215.5,16.5C 203.452,17.1451 191.785,16.4784 180.5,14.5C 191.795,15.4342 203.129,15.7675 214.5,15.5C 214.187,11.9581 214.521,8.62482 215.5,5.5 Z"/></g>
<g><path style="opacity:0.015" fill="#eaeaea" d="M 231.5,5.5 C 232.166,8.35828 232.833,11.3583 233.5,14.5C 238.784,15.1437 244.118,15.477 249.5,15.5C 255.207,15.1194 260.707,15.1194 266,15.5C 266.179,11.9748 266.679,8.64144 267.5,5.5C 267.5,9.16667 267.5,12.8333 267.5,16.5C 255.5,16.5 243.5,16.5 231.5,16.5C 231.5,12.8333 231.5,9.16667 231.5,5.5 Z"/></g>
<g><path style="opacity:0.016" fill="#e7e7e7" d="M 321.5,-0.5 C 322.167,-0.5 322.833,-0.5 323.5,-0.5C 322.164,1.01027 320.997,2.67694 320,4.5C 319.501,8.48617 319.334,12.4862 319.5,16.5C 307.5,16.5 295.5,16.5 283.5,16.5C 283.5,12.8333 283.5,9.16667 283.5,5.5C 284.479,8.62482 284.813,11.9581 284.5,15.5C 295.505,15.6665 306.505,15.4998 317.5,15C 318.297,11.2546 318.797,7.42126 319,3.5C 319.662,2.01608 320.496,0.682751 321.5,-0.5 Z"/></g>
<g><path style="opacity:0.564" fill="#696969" d="M 126.5,2.5 C 127.117,2.61071 127.617,2.94404 128,3.5C 128.499,7.15159 128.665,10.8183 128.5,14.5C 139.785,16.4784 151.452,17.1451 163.5,16.5C 151.678,17.4951 139.678,17.8284 127.5,17.5C 127.726,12.4376 127.392,7.43758 126.5,2.5 Z"/></g>
<g><path style="opacity:0.563" fill="#696969" d="M 179.5,5.5 C 180.477,8.2869 180.81,11.2869 180.5,14.5C 191.785,16.4784 203.452,17.1451 215.5,16.5C 203.678,17.4951 191.678,17.8284 179.5,17.5C 179.5,13.5 179.5,9.5 179.5,5.5 Z"/></g>
<g><path style="opacity:0.562" fill="#616161" d="M 371.5,3.5 C 371.5,8.16667 371.5,12.8333 371.5,17.5C 359.167,17.5 346.833,17.5 334.5,17.5C 334.5,14.1667 334.5,10.8333 334.5,7.5C 335.167,7.5 335.5,7.83333 335.5,8.5C 335.5,10.5 335.5,12.5 335.5,14.5C 340.96,15.8291 346.793,16.4958 353,16.5C 359.01,16.4995 364.843,16.1662 370.5,15.5C 370.183,11.2984 370.517,7.29841 371.5,3.5 Z"/></g>
<g><path style="opacity:0.016" fill="#fefffe" d="M 335.5,14.5 C 347.116,15.458 358.783,15.7913 370.5,15.5C 364.843,16.1662 359.01,16.4995 353,16.5C 346.793,16.4958 340.96,15.8291 335.5,14.5 Z"/></g>
<g><path style="opacity:0.424" fill="#9b9b9b" d="M 86.5,17.5 C 85.4863,18.6737 84.153,19.3404 82.5,19.5C 83.287,17.8958 84.6203,17.2291 86.5,17.5 Z"/></g>
<g><path style="opacity:0.071" fill="#d3d3d3" d="M 420.5,21.5 C 418.973,21.573 417.973,20.9063 417.5,19.5C 418.758,18.9836 419.758,19.6503 420.5,21.5 Z"/></g>
<g><path style="opacity:0.318" fill="#bcbcbc" d="M 81.5,19.5 C 81.0269,20.9063 80.0269,21.573 78.5,21.5C 79.2418,19.6503 80.2418,18.9836 81.5,19.5 Z"/></g>
<g><path style="opacity:0.012" fill="#e4e4e4" d="M 420.5,21.5 C 423.167,22.1667 424.833,23.8333 425.5,26.5C 423.5,25.1667 421.833,23.5 420.5,21.5 Z"/></g>
<g><path style="opacity:0.141" fill="#cccccc" d="M 78.5,21.5 C 76.1673,24.0026 74.0007,26.6693 72,29.5C 70.9725,32.6621 69.8059,35.6621 68.5,38.5C 68.5786,30.7885 71.9119,25.1218 78.5,21.5 Z"/></g>
<g><path style="opacity:0.067" fill="#dddddd" d="M 425.5,26.5 C 428.112,28.0522 429.445,30.3855 429.5,33.5C 427.917,31.3374 426.584,29.0041 425.5,26.5 Z"/></g>
<g><path style="opacity:0.522" fill="#9e9e9e" d="M 112.5,46.5 C 111.711,46.2172 111.044,45.7172 110.5,45C 110.642,41.3786 110.642,37.5453 110.5,33.5C 102.992,32.9888 95.6587,33.6555 88.5,35.5C 89.0577,34.2101 90.0577,33.3768 91.5,33C 98.4921,32.5004 105.492,32.3337 112.5,32.5C 112.5,37.1667 112.5,41.8333 112.5,46.5 Z"/></g>
<g><path style="opacity:0.521" fill="#919191" d="M 168.5,50.5 C 165.379,49.7124 163.712,47.7124 163.5,44.5C 163.815,40.6286 163.482,36.9619 162.5,33.5C 151.495,33.3335 140.495,33.5002 129.5,34C 128.7,38.08 128.2,42.2467 128,46.5C 127.578,48.4257 126.411,49.4257 124.5,49.5C 125.504,48.3172 126.338,46.9839 127,45.5C 127.499,41.1794 127.666,36.8461 127.5,32.5C 139.833,32.5 152.167,32.5 164.5,32.5C 164.334,37.1785 164.501,41.8452 165,46.5C 166.376,47.7051 167.542,49.0384 168.5,50.5 Z"/></g>
<g><path style="opacity:0.522" fill="#a0a0a0" d="M 225.5,50.5 C 221.623,52.3097 218.457,51.3097 216,47.5C 214.621,42.964 214.121,38.2973 214.5,33.5C 203.124,33.5443 191.957,33.5443 181,33.5C 180.823,37.3563 180.323,41.023 179.5,44.5C 179.5,40.5 179.5,36.5 179.5,32.5C 191.5,32.5 203.5,32.5 215.5,32.5C 215.121,37.2973 215.621,41.964 217,46.5C 218.894,49.8442 221.727,51.1776 225.5,50.5 Z"/></g>
<g><path style="opacity:0.522" fill="#9c9c9c" d="M 267.5,45.5 C 266.517,41.7016 266.183,37.7016 266.5,33.5C 255.167,33.5 243.833,33.5 232.5,33.5C 232.817,37.7016 232.483,41.7016 231.5,45.5C 231.5,41.1667 231.5,36.8333 231.5,32.5C 243.5,32.5 255.5,32.5 267.5,32.5C 267.5,36.8333 267.5,41.1667 267.5,45.5 Z"/></g>
<g><path style="opacity:0.522" fill="#9f9f9f" d="M 321.5,48.5 C 320.883,48.6107 320.383,48.944 320,49.5C 319.166,46.8276 318.332,44.161 317.5,41.5C 318.562,38.8971 318.728,36.2305 318,33.5C 307.043,33.5443 295.876,33.5443 284.5,33.5C 284.815,37.3714 284.482,41.0381 283.5,44.5C 283.5,40.5 283.5,36.5 283.5,32.5C 295.5,32.5 307.5,32.5 319.5,32.5C 319.001,38.0585 319.667,43.3918 321.5,48.5 Z"/></g>
<g><path style="opacity:0.522" fill="#909090" d="M 373.5,48.5 C 372.25,48.4226 371.417,47.756 371,46.5C 370.8,42.2467 370.3,38.08 369.5,34C 358.172,33.5001 346.838,33.3335 335.5,33.5C 335.719,37.223 336.052,40.723 336.5,44C 335.572,47.7636 333.239,49.9303 329.5,50.5C 331.103,49.4036 332.603,48.0703 334,46.5C 334.499,41.8452 334.666,37.1785 334.5,32.5C 346.833,32.5 359.167,32.5 371.5,32.5C 371.001,38.0585 371.667,43.3918 373.5,48.5 Z"/></g>
<g><path style="opacity:0.522" fill="#9c9c9c" d="M 410.5,35.5 C 403.341,33.6555 396.008,32.9888 388.5,33.5C 388.358,37.5453 388.358,41.3786 388.5,45C 387.956,45.7172 387.289,46.2172 386.5,46.5C 386.5,41.8333 386.5,37.1667 386.5,32.5C 393.508,32.3337 400.508,32.5004 407.5,33C 408.942,33.3768 409.942,34.2101 410.5,35.5 Z"/></g>
<g><path style="opacity:0.067" fill="#f3f3f3" d="M 162.5,33.5 C 163.482,36.9619 163.815,40.6286 163.5,44.5C 162.711,44.2172 162.044,43.7172 161.5,43C 162.451,39.9433 162.784,36.7766 162.5,33.5 Z"/></g>
<g><path style="opacity:0.447" fill="#a0a0a0" d="M 85.5,39.5 C 85.504,184.959 85.504,330.626 85.5,476.5C 84.1667,330.833 84.1667,185.167 85.5,39.5 Z"/></g>
<g><path style="opacity:0.004" fill="#dadada" d="M 112.5,46.5 C 113.5,46.8333 114.167,47.5 114.5,48.5C 113.167,48.5 112.5,47.8333 112.5,46.5 Z"/></g>
<g><path style="opacity:0.004" fill="#eaeaea" d="M 179.5,45.5 C 179.715,47.1788 179.048,48.1788 177.5,48.5C 177.932,47.2905 178.599,46.2905 179.5,45.5 Z"/></g>
<g><path style="opacity:0.004" fill="#dcdcdc" d="M 386.5,46.5 C 386.5,47.8333 385.833,48.5 384.5,48.5C 384.833,47.5 385.5,46.8333 386.5,46.5 Z"/></g>
<g><path style="opacity:0.608" fill="#a1a1a1" d="M 412.5,37.5 C 413.222,37.9175 413.722,38.5842 414,39.5C 414.667,185.167 414.667,330.833 414,476.5C 413.722,477.416 413.222,478.082 412.5,478.5C 413.833,331.5 413.833,184.5 412.5,37.5 Z"/></g>
<g><path style="opacity:0.78" fill="#a8a8a8" d="M 114.5,48.5 C 117.728,49.4137 121.061,49.7471 124.5,49.5C 124.217,50.2891 123.717,50.9558 123,51.5C 122.029,50.8016 120.863,50.8016 119.5,51.5C 117.131,51.4047 115.464,50.4047 114.5,48.5 Z"/></g>
<g><path style="opacity:0.063" fill="#dbdbdb" d="M 177.5,48.5 C 177.368,51.0069 176.368,51.6736 174.5,50.5C 174.973,49.0937 175.973,48.427 177.5,48.5 Z"/></g>
<g><path style="opacity:0.012" fill="#e8e8e8" d="M 229.5,48.5 C 228.758,50.3497 227.758,51.0164 226.5,50.5C 226.973,49.0937 227.973,48.427 229.5,48.5 Z"/></g>
<g><path style="opacity:0.814" fill="#757575" d="M 268.5,47.5 C 271.215,49.123 274.215,49.7896 277.5,49.5C 276.081,50.4511 274.415,50.7845 272.5,50.5C 270.596,50.2624 269.262,49.2624 268.5,47.5 Z"/></g>
<g><path style="opacity:0.153" fill="#d8d8d8" d="M 283.5,44.5 C 282.11,50.9175 278.443,52.9175 272.5,50.5C 274.415,50.7845 276.081,50.4511 277.5,49.5C 280.115,48.5501 282.115,46.8835 283.5,44.5 Z"/></g>
<g><path style="opacity:0.031" fill="#f0f0f0" d="M 321.5,48.5 C 322.71,48.9321 323.71,49.5987 324.5,50.5C 322.821,50.7148 321.821,50.0481 321.5,48.5 Z"/></g>
<g><path style="opacity:0.808" fill="#a0a0a0" d="M 373.5,48.5 C 377.2,49.758 380.866,49.758 384.5,48.5C 383.536,50.4047 381.869,51.4047 379.5,51.5C 377.013,51.2413 375.013,50.2413 373.5,48.5 Z"/></g>
<g><path style="opacity:0.998" fill="#060606" d="M 196.5,107.5 C 197.634,109.966 197.801,112.633 197,115.5C 196.617,116.056 196.117,116.389 195.5,116.5C 189.833,121.5 184.5,126.833 179.5,132.5C 176.833,134.5 174.5,136.833 172.5,139.5C 172.5,140.167 172.167,140.5 171.5,140.5C 169.833,141.5 168.5,142.833 167.5,144.5C 167.5,145.167 167.167,145.5 166.5,145.5C 165.5,145.833 164.833,146.5 164.5,147.5C 164.5,148.167 164.167,148.5 163.5,148.5C 161.833,149.5 160.5,150.833 159.5,152.5C 158.167,153.167 157.167,154.167 156.5,155.5C 154.833,156.5 153.5,157.833 152.5,159.5C 149.671,161.978 146.338,162.978 142.5,162.5C 138.773,157.77 134.44,153.77 129.5,150.5C 129.5,150.167 129.5,149.833 129.5,149.5C 127.761,146.757 125.427,144.757 122.5,143.5C 120.812,139.812 118.145,137.145 114.5,135.5C 114.5,135.167 114.5,134.833 114.5,134.5C 111.401,129.295 112.067,124.629 116.5,120.5C 119.452,119.027 122.119,119.36 124.5,121.5C 126.833,124.5 129.5,127.167 132.5,129.5C 133.5,129.833 134.167,130.5 134.5,131.5C 137.844,135.677 141.677,139.344 146,142.5C 150.844,138.5 155.344,134.167 159.5,129.5C 164.833,124.833 169.833,119.833 174.5,114.5C 174.328,113.508 174.662,112.842 175.5,112.5C 178.404,111.386 180.404,109.386 181.5,106.5C 186.857,102.22 191.857,102.554 196.5,107.5 Z"/></g>
<g><path style="opacity:0.137" fill="#dbdbdb" d="M 196.5,107.5 C 191.857,102.554 186.857,102.22 181.5,106.5C 182.714,104.851 184.047,103.185 185.5,101.5C 188.5,102.167 191.5,102.833 194.5,103.5C 195.705,104.577 196.372,105.91 196.5,107.5 Z"/></g>
<g><path style="opacity:0.663" fill="#bfbfbf" d="M 181.5,106.5 C 180.404,109.386 178.404,111.386 175.5,112.5C 175.369,111.761 175.536,111.094 176,110.5C 178.034,109.279 179.867,107.945 181.5,106.5 Z"/></g>
<g><path style="opacity:0.56" fill="#8c8c8c" d="M 348.5,112.5 C 305.5,112.5 262.5,112.5 219.5,112.5C 220.263,111.732 221.263,111.232 222.5,111C 263.5,110.333 304.5,110.333 345.5,111C 346.737,111.232 347.737,111.732 348.5,112.5 Z"/></g>
<g><path style="opacity:1" fill="#010101" d="M 219.5,112.5 C 262.5,112.5 305.5,112.5 348.5,112.5C 350.411,112.574 351.578,113.574 352,115.5C 352.805,118.696 352.638,121.696 351.5,124.5C 350.167,125.167 349.167,126.167 348.5,127.5C 305.124,127.823 261.791,127.489 218.5,126.5C 218.167,125.5 217.5,124.833 216.5,124.5C 216.5,121.833 216.5,119.167 216.5,116.5C 217.5,115.167 218.5,113.833 219.5,112.5 Z"/></g>
<g><path style="opacity:0.184" fill="#dadada" d="M 219.5,112.5 C 218.5,113.833 217.5,115.167 216.5,116.5C 215.539,118.265 215.205,120.265 215.5,122.5C 213.32,117.764 214.653,114.431 219.5,112.5 Z"/></g>
<g><path style="opacity:0.82" fill="#8d8d8d" d="M 174.5,114.5 C 169.833,119.833 164.833,124.833 159.5,129.5C 163.5,123.5 168.5,118.5 174.5,114.5 Z"/></g>
<g><path style="opacity:0.9" fill="#565656" d="M 216.5,116.5 C 216.5,119.167 216.5,121.833 216.5,124.5C 214.302,124.591 213.969,123.925 215.5,122.5C 215.205,120.265 215.539,118.265 216.5,116.5 Z"/></g>
<g><path style="opacity:0.012" fill="#d0d0d0" d="M 132.5,129.5 C 129.5,127.167 126.833,124.5 124.5,121.5C 125.117,121.389 125.617,121.056 126,120.5C 128.41,123.397 130.577,126.397 132.5,129.5 Z"/></g>
<g><path style="opacity:0.012" fill="#e1e1e1" d="M 195.5,116.5 C 191.167,122.833 185.833,128.167 179.5,132.5C 184.5,126.833 189.833,121.5 195.5,116.5 Z"/></g>
<g><path style="opacity:0.016" fill="#d6d6d6" d="M 216.5,124.5 C 217.5,124.833 218.167,125.5 218.5,126.5C 217.167,126.5 216.5,125.833 216.5,124.5 Z"/></g>
<g><path style="opacity:0.051" fill="#dedede" d="M 351.5,124.5 C 351.5,125.167 351.5,125.833 351.5,126.5C 350.609,127.11 349.609,127.443 348.5,127.5C 349.167,126.167 350.167,125.167 351.5,124.5 Z"/></g>
<g><path style="opacity:0.654" fill="#7c7c7c" d="M 218.5,126.5 C 261.791,127.489 305.124,127.823 348.5,127.5C 305.669,128.665 262.669,128.831 219.5,128C 218.944,127.617 218.611,127.117 218.5,126.5 Z"/></g>
<g><path style="opacity:0.055" fill="#c3c3c3" d="M 116.5,120.5 C 112.067,124.629 111.401,129.295 114.5,134.5C 113.504,134.586 112.671,134.252 112,133.5C 110.58,129.513 110.913,125.513 113,121.5C 114.011,120.663 115.178,120.33 116.5,120.5 Z"/></g>
<g><path style="opacity:0.804" fill="#b2b2b2" d="M 159.5,129.5 C 155.344,134.167 150.844,138.5 146,142.5C 141.677,139.344 137.844,135.677 134.5,131.5C 138.45,134.275 142.283,137.275 146,140.5C 149.639,137.362 153.139,134.028 156.5,130.5C 157.417,129.873 158.417,129.539 159.5,129.5 Z"/></g>
<g><path style="opacity:0.349" fill="#b5b5b5" d="M 114.5,135.5 C 118.145,137.145 120.812,139.812 122.5,143.5C 119.548,141.215 116.882,138.548 114.5,135.5 Z"/></g>
<g><path style="opacity:0.007" fill="#e5e5e5" d="M 179.5,132.5 C 178.271,135.974 175.938,138.307 172.5,139.5C 174.5,136.833 176.833,134.5 179.5,132.5 Z"/></g>
<g><path style="opacity:0.004" fill="#e2e2e2" d="M 171.5,140.5 C 171.167,142.833 169.833,144.167 167.5,144.5C 168.5,142.833 169.833,141.5 171.5,140.5 Z"/></g>
<g><path style="opacity:0.675" fill="#a8a8a8" d="M 122.5,143.5 C 125.427,144.757 127.761,146.757 129.5,149.5C 126.573,148.243 124.239,146.243 122.5,143.5 Z"/></g>
<g><path style="opacity:0.004" fill="#d9d9d9" d="M 166.5,145.5 C 166.5,146.833 165.833,147.5 164.5,147.5C 164.833,146.5 165.5,145.833 166.5,145.5 Z"/></g>
<g><path style="opacity:0.991" fill="#121212" d="M 380.5,146.5 C 382.728,147.377 384.728,148.71 386.5,150.5C 386.5,153.167 386.5,155.833 386.5,158.5C 384.99,159.836 383.323,161.003 381.5,162C 327.834,162.5 274.168,162.667 220.5,162.5C 219.71,161.599 218.71,160.932 217.5,160.5C 217.068,159.29 216.401,158.29 215.5,157.5C 214.167,155.5 214.167,153.5 215.5,151.5C 216.833,149.5 218.5,147.833 220.5,146.5C 273.689,145.192 327.023,145.192 380.5,146.5 Z"/></g>
<g><path style="opacity:0.122" fill="#b1b1b1" d="M 386.5,150.5 C 384.728,148.71 382.728,147.377 380.5,146.5C 383.336,145.169 385.336,146.502 386.5,150.5 Z"/></g>
<g><path style="opacity:0.106" fill="#e5e5e5" d="M 220.5,146.5 C 218.5,147.833 216.833,149.5 215.5,151.5C 215.5,148.167 217.167,146.5 220.5,146.5 Z"/></g>
<g><path style="opacity:0.251" fill="#b3b3b3" d="M 129.5,150.5 C 134.44,153.77 138.773,157.77 142.5,162.5C 137.56,159.23 133.227,155.23 129.5,150.5 Z"/></g>
<g><path style="opacity:0.005" fill="#e5e5e5" d="M 163.5,148.5 C 163.291,149.922 162.791,151.255 162,152.5C 161.23,153.598 160.397,153.598 159.5,152.5C 160.5,150.833 161.833,149.5 163.5,148.5 Z"/></g>
<g><path style="opacity:0.52" fill="#9d9d9d" d="M 386.5,150.5 C 389.167,153.167 389.167,155.833 386.5,158.5C 386.5,155.833 386.5,153.167 386.5,150.5 Z"/></g>
<g><path style="opacity:0.004" fill="#e0e0e0" d="M 159.5,152.5 C 159.5,154.5 158.5,155.5 156.5,155.5C 157.167,154.167 158.167,153.167 159.5,152.5 Z"/></g>
<g><path style="opacity:0.004" fill="#e5e5e5" d="M 156.5,155.5 C 156.611,156.117 156.944,156.617 157.5,157C 155.922,158.094 154.255,158.928 152.5,159.5C 153.5,157.833 154.833,156.5 156.5,155.5 Z"/></g>
<g><path style="opacity:0.029" fill="#ededed" d="M 215.5,157.5 C 216.401,158.29 217.068,159.29 217.5,160.5C 216.883,160.611 216.383,160.944 216,161.5C 215.51,160.207 215.343,158.873 215.5,157.5 Z"/></g>
<g><path style="opacity:0.004" fill="#e4e4e4" d="M 152.5,159.5 C 152.5,160.5 152.5,161.5 152.5,162.5C 149.015,163.59 145.681,163.59 142.5,162.5C 146.338,162.978 149.671,161.978 152.5,159.5 Z"/></g>
<g><path style="opacity:0.031" fill="#e9e9e9" d="M 217.5,160.5 C 218.71,160.932 219.71,161.599 220.5,162.5C 218.821,162.715 217.821,162.048 217.5,160.5 Z"/></g>
<g><path style="opacity:0.373" fill="#d6d6d6" d="M 386.5,158.5 C 386.084,160.752 384.751,162.252 382.5,163C 328.332,163.832 274.332,163.665 220.5,162.5C 274.168,162.667 327.834,162.5 381.5,162C 383.323,161.003 384.99,159.836 386.5,158.5 Z"/></g>
<g><path style="opacity:0.998" fill="#101010" d="M 196.5,193.5 C 196.658,196.902 196.324,200.236 195.5,203.5C 194.5,203.833 193.833,204.5 193.5,205.5C 192.167,206.167 191.167,207.167 190.5,208.5C 189.5,208.833 188.833,209.5 188.5,210.5C 187.167,211.167 186.167,212.167 185.5,213.5C 183.833,215.833 181.833,217.833 179.5,219.5C 178.5,219.833 177.833,220.5 177.5,221.5C 176.5,221.833 175.833,222.5 175.5,223.5C 174.5,223.833 173.833,224.5 173.5,225.5C 172.5,227.167 171.167,228.5 169.5,229.5C 168.5,229.833 167.833,230.5 167.5,231.5C 166.167,233.5 164.5,235.167 162.5,236.5C 161.5,236.833 160.833,237.5 160.5,238.5C 159.833,239.833 158.833,240.833 157.5,241.5C 156.5,241.833 155.833,242.5 155.5,243.5C 155.5,244.167 155.167,244.5 154.5,244.5C 153.5,244.833 152.833,245.5 152.5,246.5C 149.6,249.484 146.266,250.151 142.5,248.5C 142.027,247.094 141.027,246.427 139.5,246.5C 137.833,245.5 136.5,244.167 135.5,242.5C 135.167,241.5 134.5,240.833 133.5,240.5C 132.833,239.167 131.833,238.167 130.5,237.5C 127.167,234.833 124.167,231.833 121.5,228.5C 121.167,227.5 120.5,226.833 119.5,226.5C 118.833,226.5 118.5,226.167 118.5,225.5C 117.833,224.167 116.833,223.167 115.5,222.5C 114.167,221.833 113.167,220.833 112.5,219.5C 112.5,216.5 112.5,213.5 112.5,210.5C 113.833,209.833 114.833,208.833 115.5,207.5C 118.902,207.342 122.236,207.676 125.5,208.5C 126.167,208.5 126.5,208.833 126.5,209.5C 128.167,211.833 130.167,213.833 132.5,215.5C 135.833,218.167 138.833,221.167 141.5,224.5C 142.793,226.296 144.293,227.963 146,229.5C 148.372,227.297 150.539,224.963 152.5,222.5C 152.5,221.833 152.833,221.5 153.5,221.5C 155.167,220.5 156.5,219.167 157.5,217.5C 161.5,214.167 165.167,210.5 168.5,206.5C 170.167,205.5 171.5,204.167 172.5,202.5C 174.167,201.5 175.5,200.167 176.5,198.5C 177.5,198.167 178.167,197.5 178.5,196.5C 180.833,194.833 182.833,192.833 184.5,190.5C 187.304,189.362 190.304,189.195 193.5,190C 194.636,191.145 195.636,192.312 196.5,193.5 Z"/></g>
<g><path style="opacity:0.612" fill="#cacaca" d="M 184.5,190.5 C 182.833,192.833 180.833,194.833 178.5,196.5C 179.167,193.167 181.167,191.167 184.5,190.5 Z"/></g>
<g><path style="opacity:0.282" fill="#b6b6b6" d="M 178.5,196.5 C 178.167,197.5 177.5,198.167 176.5,198.5C 176.5,197.167 177.167,196.5 178.5,196.5 Z"/></g>
<g><path style="opacity:0.463" fill="#cacaca" d="M 351.5,201.5 C 350.317,200.496 348.984,199.662 347.5,199C 305.167,198.333 262.833,198.333 220.5,199C 219.473,199.513 218.473,200.013 217.5,200.5C 218.122,198.665 219.456,197.498 221.5,197C 262.5,196.333 303.5,196.333 344.5,197C 346.608,197.36 348.608,198.027 350.5,199C 351.252,199.671 351.586,200.504 351.5,201.5 Z"/></g>
<g><path style="opacity:1" fill="#060606" d="M 351.5,201.5 C 353.205,205.961 352.538,210.128 349.5,214C 306.167,214.667 262.833,214.667 219.5,214C 218.584,213.722 217.918,213.222 217.5,212.5C 217.573,210.973 216.906,209.973 215.5,209.5C 214.167,207.5 214.167,205.5 215.5,203.5C 216.401,202.71 217.068,201.71 217.5,200.5C 218.473,200.013 219.473,199.513 220.5,199C 262.833,198.333 305.167,198.333 347.5,199C 348.984,199.662 350.317,200.496 351.5,201.5 Z"/></g>
<g><path style="opacity:0.341" fill="#c5c5c5" d="M 176.5,198.5 C 175.5,200.167 174.167,201.5 172.5,202.5C 173.072,200.745 173.906,199.078 175,197.5C 175.383,198.056 175.883,198.389 176.5,198.5 Z"/></g>
<g><path style="opacity:0.008" fill="#c0c0c0" d="M 196.5,193.5 C 197.638,196.304 197.805,199.304 197,202.5C 196.617,203.056 196.117,203.389 195.5,203.5C 196.324,200.236 196.658,196.902 196.5,193.5 Z"/></g>
<g><path style="opacity:0.094" fill="#e1e1e1" d="M 217.5,200.5 C 217.068,201.71 216.401,202.71 215.5,203.5C 214.326,201.632 214.993,200.632 217.5,200.5 Z"/></g>
<g><path style="opacity:0.325" fill="#bebebe" d="M 172.5,202.5 C 171.5,204.167 170.167,205.5 168.5,206.5C 168.833,204.167 170.167,202.833 172.5,202.5 Z"/></g>
<g><path style="opacity:0.004" fill="#f2f2f2" d="M 195.5,203.5 C 195.5,204.833 194.833,205.5 193.5,205.5C 193.833,204.5 194.5,203.833 195.5,203.5 Z"/></g>
<g><path style="opacity:0.004" fill="#c0c0c0" d="M 115.5,207.5 C 118.304,206.362 121.304,206.195 124.5,207C 125.056,207.383 125.389,207.883 125.5,208.5C 122.236,207.676 118.902,207.342 115.5,207.5 Z"/></g>
<g><path style="opacity:0.005" fill="#f4f4f4" d="M 193.5,205.5 C 193.5,206.5 193.5,207.5 193.5,208.5C 192.5,208.5 191.5,208.5 190.5,208.5C 191.167,207.167 192.167,206.167 193.5,205.5 Z"/></g>
<g><path style="opacity:0.125" fill="#dfdfdf" d="M 115.5,207.5 C 114.833,208.833 113.833,209.833 112.5,210.5C 112.5,208.5 113.5,207.5 115.5,207.5 Z"/></g>
<g><path style="opacity:0.012" fill="#ececec" d="M 126.5,209.5 C 129.5,210.5 131.5,212.5 132.5,215.5C 130.167,213.833 128.167,211.833 126.5,209.5 Z"/></g>
<g><path style="opacity:0.008" fill="#f5f5f5" d="M 190.5,208.5 C 190.5,209.833 189.833,210.5 188.5,210.5C 188.833,209.5 189.5,208.833 190.5,208.5 Z"/></g>
<g><path style="opacity:0.004" fill="#d8d8d8" d="M 215.5,209.5 C 216.906,209.973 217.573,210.973 217.5,212.5C 216.094,212.027 215.427,211.027 215.5,209.5 Z"/></g>
<g><path style="opacity:0.014" fill="#fbfbfb" d="M 188.5,210.5 C 188.5,212.5 187.5,213.5 185.5,213.5C 186.167,212.167 187.167,211.167 188.5,210.5 Z"/></g>
<g><path style="opacity:0.439" fill="#a7a7a7" d="M 112.5,210.5 C 112.5,213.5 112.5,216.5 112.5,219.5C 111.795,216.772 111.128,213.939 110.5,211C 111.094,210.536 111.761,210.369 112.5,210.5 Z"/></g>
<g><path style="opacity:0.329" fill="#c6c6c6" d="M 168.5,206.5 C 165.167,210.5 161.5,214.167 157.5,217.5C 160.094,213.728 162.927,210.061 166,206.5C 166.77,205.402 167.603,205.402 168.5,206.5 Z"/></g>
<g><path style="opacity:0.353" fill="#c0c0c0" d="M 157.5,217.5 C 156.5,219.167 155.167,220.5 153.5,221.5C 153.833,219.167 155.167,217.833 157.5,217.5 Z"/></g>
<g><path style="opacity:0.004" fill="#f7f7f7" d="M 179.5,219.5 C 179.5,220.833 178.833,221.5 177.5,221.5C 177.833,220.5 178.5,219.833 179.5,219.5 Z"/></g>
<g><path style="opacity:0.01" fill="#fbfbfb" d="M 177.5,221.5 C 178.66,223.203 177.993,223.869 175.5,223.5C 175.833,222.5 176.5,221.833 177.5,221.5 Z"/></g>
<g><path style="opacity:0.008" fill="#ebebeb" d="M 115.5,222.5 C 116.833,223.167 117.833,224.167 118.5,225.5C 116.5,225.5 115.5,224.5 115.5,222.5 Z"/></g>
<g><path style="opacity:0.1" fill="#fbfbfb" d="M 175.5,223.5 C 175.5,224.833 174.833,225.5 173.5,225.5C 173.833,224.5 174.5,223.833 175.5,223.5 Z"/></g>
<g><path style="opacity:0.62" fill="#cbcbcb" d="M 152.5,222.5 C 150.539,224.963 148.372,227.297 146,229.5C 144.293,227.963 142.793,226.296 141.5,224.5C 143.371,224.859 144.871,225.859 146,227.5C 147.777,225.21 149.944,223.543 152.5,222.5 Z"/></g>
<g><path style="opacity:0.004" fill="#ebebeb" d="M 119.5,226.5 C 120.5,226.833 121.167,227.5 121.5,228.5C 120.167,228.5 119.5,227.833 119.5,226.5 Z"/></g>
<g><path style="opacity:0.009" fill="#fefffe" d="M 169.5,229.5 C 169.5,230.833 168.833,231.5 167.5,231.5C 167.833,230.5 168.5,229.833 169.5,229.5 Z"/></g>
<g><path style="opacity:0.015" fill="#d2d2d2" d="M 223.5,232.5 C 222.833,232.5 222.5,232.833 222.5,233.5C 219.697,233.961 217.363,235.295 215.5,237.5C 215.062,237.565 214.728,237.399 214.5,237C 215.743,235.846 216.743,234.512 217.5,233C 219.218,232.654 220.885,232.154 222.5,231.5C 223.107,231.624 223.44,231.957 223.5,232.5 Z"/></g>
<g><path style="opacity:0.796" fill="#474747" d="M 384.5,234.5 C 330.572,233.505 276.572,233.171 222.5,233.5C 222.5,232.833 222.833,232.5 223.5,232.5C 275.738,232.831 327.905,232.497 380,231.5C 382.026,231.915 383.526,232.915 384.5,234.5 Z"/></g>
<g><path style="opacity:1" fill="#0d0d0d" d="M 222.5,233.5 C 276.572,233.171 330.572,233.505 384.5,234.5C 386.178,237.552 386.845,240.885 386.5,244.5C 386.084,246.752 384.751,248.252 382.5,249C 327.998,249.832 273.665,249.665 219.5,248.5C 219.167,247.5 218.5,246.833 217.5,246.5C 217.068,245.29 216.401,244.29 215.5,243.5C 214.258,241.611 214.258,239.611 215.5,237.5C 217.363,235.295 219.697,233.961 222.5,233.5 Z"/></g>
<g><path style="opacity:0.092" fill="#fefffe" d="M 162.5,236.5 C 162.5,237.833 161.833,238.5 160.5,238.5C 160.833,237.5 161.5,236.833 162.5,236.5 Z"/></g>
<g><path style="opacity:0.004" fill="#ebebeb" d="M 130.5,237.5 C 131.833,238.167 132.833,239.167 133.5,240.5C 131.5,240.5 130.5,239.5 130.5,237.5 Z"/></g>
<g><path style="opacity:0.455" fill="#858585" d="M 384.5,234.5 C 386.772,236.018 388.105,238.185 388.5,241C 387.915,242.302 387.249,243.469 386.5,244.5C 386.845,240.885 386.178,237.552 384.5,234.5 Z"/></g>
<g><path style="opacity:0.016" fill="#ececec" d="M 133.5,240.5 C 134.5,240.833 135.167,241.5 135.5,242.5C 134.167,242.5 133.5,241.833 133.5,240.5 Z"/></g>
<g><path style="opacity:0.022" fill="#fefffe" d="M 157.5,241.5 C 157.5,242.833 156.833,243.5 155.5,243.5C 155.833,242.5 156.5,241.833 157.5,241.5 Z"/></g>
<g><path style="opacity:0.005" fill="#fefffe" d="M 154.5,244.5 C 154.5,245.833 153.833,246.5 152.5,246.5C 152.833,245.5 153.5,244.833 154.5,244.5 Z"/></g>
<g><path style="opacity:0.09" fill="#d4d4d4" d="M 215.5,243.5 C 216.401,244.29 217.068,245.29 217.5,246.5C 215.952,246.179 215.285,245.179 215.5,243.5 Z"/></g>
<g><path style="opacity:0.373" fill="#959595" d="M 139.5,246.5 C 141.027,246.427 142.027,247.094 142.5,248.5C 140.973,248.573 139.973,247.906 139.5,246.5 Z"/></g>
<g><path style="opacity:0.004" fill="#e3e3e3" d="M 217.5,246.5 C 218.5,246.833 219.167,247.5 219.5,248.5C 217.007,248.869 216.34,248.203 217.5,246.5 Z"/></g>
<g><path style="opacity:0.243" fill="#bdbdbd" d="M 184.5,276.5 C 187.304,275.362 190.304,275.195 193.5,276C 194.056,276.383 194.389,276.883 194.5,277.5C 191.236,276.676 187.902,276.342 184.5,276.5 Z"/></g>
<g><path style="opacity:0.998" fill="#090909" d="M 184.5,276.5 C 187.902,276.342 191.236,276.676 194.5,277.5C 196.091,280.961 196.758,284.628 196.5,288.5C 195.167,289.167 194.167,290.167 193.5,291.5C 193.5,292.167 193.167,292.5 192.5,292.5C 191.5,292.833 190.833,293.5 190.5,294.5C 189.5,294.833 188.833,295.5 188.5,296.5C 187.5,296.833 186.833,297.5 186.5,298.5C 184.833,299.5 183.5,300.833 182.5,302.5C 180.5,303.833 178.833,305.5 177.5,307.5C 175.833,308.5 174.5,309.833 173.5,311.5C 172.5,311.833 171.833,312.5 171.5,313.5C 170.5,313.833 169.833,314.5 169.5,315.5C 168.5,315.833 167.833,316.5 167.5,317.5C 166.167,319.5 164.5,321.167 162.5,322.5C 161.5,322.833 160.833,323.5 160.5,324.5C 159.5,324.833 158.833,325.5 158.5,326.5C 156.833,327.5 155.5,328.833 154.5,330.5C 153.167,331.167 152.167,332.167 151.5,333.5C 151.5,334.167 151.167,334.5 150.5,334.5C 147.482,334.665 144.482,334.498 141.5,334C 137.631,329.963 133.631,326.13 129.5,322.5C 128.833,322.5 128.5,322.167 128.5,321.5C 123.833,316.167 118.833,311.167 113.5,306.5C 112.883,306.389 112.383,306.056 112,305.5C 111.199,302.633 111.366,299.966 112.5,297.5C 114.167,296.5 115.5,295.167 116.5,293.5C 118.833,292.167 121.167,292.167 123.5,293.5C 126.167,296.833 129.167,299.833 132.5,302.5C 133.167,302.5 133.5,302.833 133.5,303.5C 136.543,307.544 140.209,310.877 144.5,313.5C 145.167,313.833 145.833,314.167 146.5,314.5C 148.167,313.5 149.5,312.167 150.5,310.5C 152.5,309.167 154.167,307.5 155.5,305.5C 156.5,305.167 157.167,304.5 157.5,303.5C 159.144,303.19 160.144,302.19 160.5,300.5C 161.239,300.631 161.906,300.464 162.5,300C 166.727,294.946 171.061,290.113 175.5,285.5C 176.5,285.167 177.167,284.5 177.5,283.5C 177.5,282.833 177.833,282.5 178.5,282.5C 180.833,280.833 182.833,278.833 184.5,276.5 Z"/></g>
<g><path style="opacity:0.224" fill="#ebebeb" d="M 184.5,276.5 C 182.833,278.833 180.833,280.833 178.5,282.5C 179.5,279.5 181.5,277.5 184.5,276.5 Z"/></g>
<g><path style="opacity:0.039" fill="#eaeaea" d="M 177.5,283.5 C 177.167,284.5 176.5,285.167 175.5,285.5C 175.5,284.167 176.167,283.5 177.5,283.5 Z"/></g>
<g><path style="opacity:0.392" fill="#8d8d8d" d="M 194.5,277.5 C 195.931,277.881 196.764,278.881 197,280.5C 197.801,283.367 197.634,286.034 196.5,288.5C 196.758,284.628 196.091,280.961 194.5,277.5 Z"/></g>
<g><path style="opacity:0.157" fill="#bababa" d="M 346.5,284.5 C 348.38,284.229 349.713,284.896 350.5,286.5C 348.847,286.34 347.514,285.674 346.5,284.5 Z"/></g>
<g><path style="opacity:1" fill="#040404" d="M 346.5,284.5 C 347.514,285.674 348.847,286.34 350.5,286.5C 350.427,288.027 351.094,289.027 352.5,289.5C 352.806,292.385 352.473,295.052 351.5,297.5C 350.317,298.504 348.984,299.338 347.5,300C 305.5,300.667 263.5,300.667 221.5,300C 220.099,299.59 218.766,299.09 217.5,298.5C 217.068,297.29 216.401,296.29 215.5,295.5C 214.28,293.716 214.28,292.05 215.5,290.5C 216.593,288.651 217.926,286.984 219.5,285.5C 261.663,284.501 303.997,284.168 346.5,284.5 Z"/></g>
<g><path style="opacity:0.384" fill="#c1c1c1" d="M 219.5,285.5 C 217.926,286.984 216.593,288.651 215.5,290.5C 215.197,287.412 216.53,285.746 219.5,285.5 Z"/></g>
<g><path style="opacity:0.2" fill="#b5b5b5" d="M 350.5,286.5 C 351.906,286.973 352.573,287.973 352.5,289.5C 351.094,289.027 350.427,288.027 350.5,286.5 Z"/></g>
<g><path style="opacity:0.004" fill="#ebebeb" d="M 196.5,288.5 C 196.5,290.5 195.5,291.5 193.5,291.5C 194.167,290.167 195.167,289.167 196.5,288.5 Z"/></g>
<g><path style="opacity:0.008" fill="#dcdcdc" d="M 192.5,292.5 C 192.5,293.833 191.833,294.5 190.5,294.5C 190.833,293.5 191.5,292.833 192.5,292.5 Z"/></g>
<g><path style="opacity:0.467" fill="#989898" d="M 116.5,293.5 C 115.5,295.167 114.167,296.5 112.5,297.5C 112.833,295.167 114.167,293.833 116.5,293.5 Z"/></g>
<g><path style="opacity:0.302" fill="#c5c5c5" d="M 175.5,285.5 C 171.061,290.113 166.727,294.946 162.5,300C 161.906,300.464 161.239,300.631 160.5,300.5C 164.548,294.451 169.548,289.451 175.5,285.5 Z"/></g>
<g><path style="opacity:0.034" fill="#c5c5c5" d="M 123.5,293.5 C 127.605,295.36 130.605,298.36 132.5,302.5C 129.167,299.833 126.167,296.833 123.5,293.5 Z"/></g>
<g><path style="opacity:0.008" fill="#e5e5e5" d="M 190.5,294.5 C 190.869,296.993 190.203,297.66 188.5,296.5C 188.833,295.5 189.5,294.833 190.5,294.5 Z"/></g>
<g><path style="opacity:0.012" fill="#e2e2e2" d="M 188.5,296.5 C 188.5,297.833 187.833,298.5 186.5,298.5C 186.833,297.5 187.5,296.833 188.5,296.5 Z"/></g>
<g><path style="opacity:0.004" fill="#e2e2e2" d="M 215.5,295.5 C 216.401,296.29 217.068,297.29 217.5,298.5C 216.624,298.631 215.957,298.298 215.5,297.5C 214.45,296.571 214.45,295.905 215.5,295.5 Z"/></g>
<g><path style="opacity:0.008" fill="#e7e7e7" d="M 186.5,298.5 C 186.512,301.142 185.179,302.475 182.5,302.5C 183.5,300.833 184.833,299.5 186.5,298.5 Z"/></g>
<g><path style="opacity:0.467" fill="#cacaca" d="M 351.5,297.5 C 351.586,298.496 351.252,299.329 350.5,300C 348.608,300.973 346.608,301.64 344.5,302C 303.5,302.667 262.5,302.667 221.5,302C 219.456,301.502 218.122,300.335 217.5,298.5C 218.766,299.09 220.099,299.59 221.5,300C 263.5,300.667 305.5,300.667 347.5,300C 348.984,299.338 350.317,298.504 351.5,297.5 Z"/></g>
<g><path style="opacity:0.494" fill="#969696" d="M 160.5,300.5 C 160.144,302.19 159.144,303.19 157.5,303.5C 157.856,301.81 158.856,300.81 160.5,300.5 Z"/></g>
<g><path style="opacity:0.267" fill="#e4e4e4" d="M 157.5,303.5 C 157.167,304.5 156.5,305.167 155.5,305.5C 155.5,304.167 156.167,303.5 157.5,303.5 Z"/></g>
<g><path style="opacity:0.243" fill="#e6e6e6" d="M 155.5,305.5 C 154.167,307.5 152.5,309.167 150.5,310.5C 151.167,307.833 152.833,306.167 155.5,305.5 Z"/></g>
<g><path style="opacity:0.004" fill="#ececec" d="M 182.5,302.5 C 181.833,305.167 180.167,306.833 177.5,307.5C 178.833,305.5 180.5,303.833 182.5,302.5 Z"/></g>
<g><path style="opacity:0.075" fill="#c2c2c2" d="M 133.5,303.5 C 138.031,305.91 141.698,309.243 144.5,313.5C 140.209,310.877 136.543,307.544 133.5,303.5 Z"/></g>
<g><path style="opacity:0.004" fill="#eaeaea" d="M 177.5,307.5 C 177.167,309.833 175.833,311.167 173.5,311.5C 174.5,309.833 175.833,308.5 177.5,307.5 Z"/></g>
<g><path style="opacity:0.02" fill="#d9d9d9" d="M 113.5,306.5 C 118.833,311.167 123.833,316.167 128.5,321.5C 126.405,320.588 124.405,319.421 122.5,318C 118.56,314.894 115.56,311.061 113.5,306.5 Z"/></g>
<g><path style="opacity:0.286" fill="#e6e6e6" d="M 150.5,310.5 C 149.5,312.167 148.167,313.5 146.5,314.5C 146.833,312.167 148.167,310.833 150.5,310.5 Z"/></g>
<g><path style="opacity:0.008" fill="#e5e5e5" d="M 173.5,311.5 C 173.5,312.833 172.833,313.5 171.5,313.5C 171.833,312.5 172.5,311.833 173.5,311.5 Z"/></g>
<g><path style="opacity:0.008" fill="#e7e7e7" d="M 171.5,313.5 C 171.5,314.833 170.833,315.5 169.5,315.5C 169.833,314.5 170.5,313.833 171.5,313.5 Z"/></g>
<g><path style="opacity:0.008" fill="#e6e6e6" d="M 169.5,315.5 C 169.5,316.833 168.833,317.5 167.5,317.5C 167.833,316.5 168.5,315.833 169.5,315.5 Z"/></g>
<g><path style="opacity:0.266" fill="#9d9d9d" d="M 219.5,319.5 C 273.998,318.335 328.665,318.168 383.5,319C 384.056,319.383 384.389,319.883 384.5,320.5C 329.542,319.508 274.542,319.175 219.5,319.5 Z"/></g>
<g><path style="opacity:0.996" fill="#060606" d="M 219.5,319.5 C 274.542,319.175 329.542,319.508 384.5,320.5C 384.932,321.71 385.599,322.71 386.5,323.5C 386.5,326.167 386.5,328.833 386.5,331.5C 385.5,331.833 384.833,332.5 384.5,333.5C 383.29,333.932 382.29,334.599 381.5,335.5C 327.833,335.5 274.167,335.5 220.5,335.5C 219.167,333.5 217.5,331.833 215.5,330.5C 214.167,328.5 214.167,326.5 215.5,324.5C 216.803,322.858 218.136,321.191 219.5,319.5 Z"/></g>
<g><path style="opacity:0.004" fill="#e2e2e2" d="M 384.5,320.5 C 387.007,320.632 387.674,321.632 386.5,323.5C 385.599,322.71 384.932,321.71 384.5,320.5 Z"/></g>
<g><path style="opacity:0.157" fill="#e2e2e2" d="M 219.5,319.5 C 218.136,321.191 216.803,322.858 215.5,324.5C 215.077,321.876 216.41,320.209 219.5,319.5 Z"/></g>
<g><path style="opacity:0.008" fill="#e8e8e8" d="M 162.5,322.5 C 162.5,323.833 161.833,324.5 160.5,324.5C 160.833,323.5 161.5,322.833 162.5,322.5 Z"/></g>
<g><path style="opacity:0.008" fill="#e8e8e8" d="M 160.5,324.5 C 160.5,325.833 159.833,326.5 158.5,326.5C 158.833,325.5 159.5,324.833 160.5,324.5 Z"/></g>
<g><path style="opacity:0.014" fill="#c5c5c5" d="M 129.5,322.5 C 133.631,326.13 137.631,329.963 141.5,334C 144.482,334.498 147.482,334.665 150.5,334.5C 149.828,335.267 148.995,335.934 148,336.5C 146.333,335.167 144.667,335.167 143,336.5C 137.602,332.604 133.102,327.937 129.5,322.5 Z"/></g>
<g><path style="opacity:0.537" fill="#a7a7a7" d="M 386.5,323.5 C 387.88,323.962 388.547,324.962 388.5,326.5C 388.199,328.422 387.533,330.088 386.5,331.5C 386.5,328.833 386.5,326.167 386.5,323.5 Z"/></g>
<g><path style="opacity:0.004" fill="#eeeeee" d="M 158.5,326.5 C 158.167,328.833 156.833,330.167 154.5,330.5C 155.5,328.833 156.833,327.5 158.5,326.5 Z"/></g>
<g><path style="opacity:0.004" fill="#ededed" d="M 154.5,330.5 C 154.5,332.5 153.5,333.5 151.5,333.5C 152.167,332.167 153.167,331.167 154.5,330.5 Z"/></g>
<g><path style="opacity:0.11" fill="#c5c5c5" d="M 215.5,330.5 C 217.5,331.833 219.167,333.5 220.5,335.5C 217.833,334.833 216.167,333.167 215.5,330.5 Z"/></g>
<g><path style="opacity:0.008" fill="#d6d6d6" d="M 386.5,331.5 C 386.5,332.833 385.833,333.5 384.5,333.5C 384.833,332.5 385.5,331.833 386.5,331.5 Z"/></g>
<g><path style="opacity:0.008" fill="#dedede" d="M 384.5,333.5 C 384.179,335.048 383.179,335.715 381.5,335.5C 382.29,334.599 383.29,333.932 384.5,333.5 Z"/></g>
<g><path style="opacity:0.114" fill="#c5c5c5" d="M 195.5,365.5 C 193.003,363.129 190.003,362.129 186.5,362.5C 186.783,361.711 187.283,361.044 188,360.5C 190.175,361.255 192.341,362.088 194.5,363C 195.252,363.671 195.586,364.504 195.5,365.5 Z"/></g>
<g><path style="opacity:0.997" fill="#060606" d="M 185.5,362.5 C 185.833,362.5 186.167,362.5 186.5,362.5C 190.003,362.129 193.003,363.129 195.5,365.5C 196.299,368.43 196.632,371.43 196.5,374.5C 196.5,375.167 196.167,375.5 195.5,375.5C 192.833,377.5 190.5,379.833 188.5,382.5C 185.833,384.5 183.5,386.833 181.5,389.5C 181.5,390.167 181.167,390.5 180.5,390.5C 176.167,394.167 172.167,398.167 168.5,402.5C 163.167,407.167 158.167,412.167 153.5,417.5C 151.833,418.5 150.5,419.833 149.5,421.5C 147.167,422.833 144.833,422.833 142.5,421.5C 141.089,419.086 139.089,417.419 136.5,416.5C 136.167,415.5 135.5,414.833 134.5,414.5C 132.712,410.896 130.045,408.23 126.5,406.5C 125.811,403.811 124.144,402.144 121.5,401.5C 121.144,399.81 120.144,398.81 118.5,398.5C 117.483,396.089 115.816,394.422 113.5,393.5C 112.662,393.158 112.328,392.492 112.5,391.5C 112.336,388.813 112.503,386.146 113,383.5C 114.129,381.859 115.629,380.859 117.5,380.5C 120.079,380.083 122.246,380.75 124,382.5C 124.383,381.944 124.883,381.611 125.5,381.5C 127.5,384.167 129.833,386.5 132.5,388.5C 135.5,390.833 138.167,393.5 140.5,396.5C 141.999,399.532 144.332,401.032 147.5,401C 160.369,388.298 173.035,375.465 185.5,362.5 Z"/></g>
<g><path style="opacity:0.396" fill="#929292" d="M 195.5,365.5 C 196.117,365.611 196.617,365.944 197,366.5C 197.801,369.367 197.634,372.034 196.5,374.5C 196.632,371.43 196.299,368.43 195.5,365.5 Z"/></g>
<g><path style="opacity:0.659" fill="#797979" d="M 348.5,371.5 C 305.124,371.177 261.791,371.511 218.5,372.5C 218.611,371.883 218.944,371.383 219.5,371C 262.669,370.169 305.669,370.335 348.5,371.5 Z"/></g>
<g><path style="opacity:1" fill="#161616" d="M 348.5,371.5 C 349.167,372.833 350.167,373.833 351.5,374.5C 352.216,376.556 352.883,378.723 353.5,381C 353.272,381.399 352.938,381.565 352.5,381.5C 351.662,381.842 351.328,382.508 351.5,383.5C 350.167,384.167 349.167,385.167 348.5,386.5C 347.737,387.268 346.737,387.768 345.5,388C 304.5,388.667 263.5,388.667 222.5,388C 221.263,387.768 220.263,387.268 219.5,386.5C 215.68,383.219 214.68,379.219 216.5,374.5C 217.5,374.167 218.167,373.5 218.5,372.5C 261.791,371.511 305.124,371.177 348.5,371.5 Z"/></g>
<g><path style="opacity:0.055" fill="#d1d1d1" d="M 348.5,371.5 C 350.5,371.5 351.5,372.5 351.5,374.5C 350.167,373.833 349.167,372.833 348.5,371.5 Z"/></g>
<g><path style="opacity:0.29" fill="#c5c5c5" d="M 218.5,372.5 C 218.167,373.5 217.5,374.167 216.5,374.5C 216.5,373.167 217.167,372.5 218.5,372.5 Z"/></g>
<g><path style="opacity:0.49" fill="#646464" d="M 117.5,380.5 C 117.5,380.167 117.5,379.833 117.5,379.5C 119.857,379.337 122.19,379.503 124.5,380C 125.056,380.383 125.389,380.883 125.5,381.5C 124.883,381.611 124.383,381.944 124,382.5C 122.246,380.75 120.079,380.083 117.5,380.5 Z"/></g>
<g><path style="opacity:0.133" fill="#cacaca" d="M 195.5,375.5 C 194.167,378.833 191.833,381.167 188.5,382.5C 190.5,379.833 192.833,377.5 195.5,375.5 Z"/></g>
<g><path style="opacity:0.024" fill="#e2e2e2" d="M 125.5,381.5 C 128.833,382.833 131.167,385.167 132.5,388.5C 129.833,386.5 127.5,384.167 125.5,381.5 Z"/></g>
<g><path style="opacity:0.114" fill="#c8c8c8" d="M 216.5,374.5 C 214.68,379.219 215.68,383.219 219.5,386.5C 217.248,386.084 215.748,384.751 215,382.5C 214.746,379.805 214.579,377.305 214.5,375C 215.094,374.536 215.761,374.369 216.5,374.5 Z"/></g>
<g><path style="opacity:0.047" fill="#bbbbbb" d="M 352.5,381.5 C 354.031,382.925 353.698,383.591 351.5,383.5C 351.328,382.508 351.662,381.842 352.5,381.5 Z"/></g>
<g><path style="opacity:0.035" fill="#c8c8c8" d="M 351.5,383.5 C 351.5,385.5 350.5,386.5 348.5,386.5C 349.167,385.167 350.167,384.167 351.5,383.5 Z"/></g>
<g><path style="opacity:0.424" fill="#b1b1b1" d="M 185.5,362.5 C 173.035,375.465 160.369,388.298 147.5,401C 144.332,401.032 141.999,399.532 140.5,396.5C 142.716,397.203 144.549,398.536 146,400.5C 158.957,387.509 171.957,374.509 185,361.5C 185.399,361.728 185.565,362.062 185.5,362.5 Z"/></g>
<g><path style="opacity:0.004" fill="#d4d4d4" d="M 188.5,382.5 C 187.167,385.833 184.833,388.167 181.5,389.5C 183.5,386.833 185.833,384.5 188.5,382.5 Z"/></g>
<g><path style="opacity:0.486" fill="#aeaeae" d="M 117.5,379.5 C 117.5,379.833 117.5,380.167 117.5,380.5C 115.629,380.859 114.129,381.859 113,383.5C 112.503,386.146 112.336,388.813 112.5,391.5C 110.652,388.894 110.485,385.894 112,382.5C 113.264,380.393 115.097,379.393 117.5,379.5 Z"/></g>
<g><path style="opacity:0.073" fill="#d5d5d5" d="M 180.5,390.5 C 177.833,395.833 173.833,399.833 168.5,402.5C 172.167,398.167 176.167,394.167 180.5,390.5 Z"/></g>
<g><path style="opacity:0.008" fill="#d4d4d4" d="M 113.5,393.5 C 115.816,394.422 117.483,396.089 118.5,398.5C 116.184,397.578 114.517,395.911 113.5,393.5 Z"/></g>
<g><path style="opacity:0.008" fill="#d4d4d4" d="M 118.5,398.5 C 120.144,398.81 121.144,399.81 121.5,401.5C 119.856,401.19 118.856,400.19 118.5,398.5 Z"/></g>
<g><path style="opacity:0.627" fill="#aaaaaa" d="M 121.5,401.5 C 124.144,402.144 125.811,403.811 126.5,406.5C 124.548,405.215 122.882,403.549 121.5,401.5 Z"/></g>
<g><path style="opacity:0.828" fill="#5e5e5e" d="M 383.5,406.5 C 329.167,406.5 274.833,406.5 220.5,406.5C 220.5,406.167 220.5,405.833 220.5,405.5C 274.096,404.338 327.763,404.171 381.5,405C 382.416,405.278 383.082,405.778 383.5,406.5 Z"/></g>
<g><path style="opacity:0.553" fill="#b1b1b1" d="M 126.5,406.5 C 130.045,408.23 132.712,410.896 134.5,414.5C 133.761,414.631 133.094,414.464 132.5,414C 130.666,411.337 128.666,408.837 126.5,406.5 Z"/></g>
<g><path style="opacity:0.024" fill="#e5e5e5" d="M 220.5,405.5 C 220.5,405.833 220.5,406.167 220.5,406.5C 219.167,407.167 217.833,407.833 216.5,408.5C 217.035,406.554 218.368,405.554 220.5,405.5 Z"/></g>
<g><path style="opacity:1" fill="#010101" d="M 220.5,406.5 C 274.833,406.5 329.167,406.5 383.5,406.5C 383.81,408.144 384.81,409.144 386.5,409.5C 386.5,412.167 386.5,414.833 386.5,417.5C 385.5,417.833 384.833,418.5 384.5,419.5C 384.5,419.833 384.5,420.167 384.5,420.5C 329.863,421.487 275.196,421.821 220.5,421.5C 218.596,421.262 217.262,420.262 216.5,418.5C 216.5,415.167 216.5,411.833 216.5,408.5C 217.833,407.833 219.167,407.167 220.5,406.5 Z"/></g>
<g><path style="opacity:0.8" fill="#7f7f7f" d="M 383.5,406.5 C 384.397,407.598 385.23,407.598 386,406.5C 386.483,407.448 386.649,408.448 386.5,409.5C 384.81,409.144 383.81,408.144 383.5,406.5 Z"/></g>
<g><path style="opacity:0.498" fill="#aaaaaa" d="M 386.5,409.5 C 387.339,410.641 388.006,411.974 388.5,413.5C 387.167,414.5 387.167,415.5 388.5,416.5C 388.043,417.298 387.376,417.631 386.5,417.5C 386.5,414.833 386.5,412.167 386.5,409.5 Z"/></g>
<g><path style="opacity:0.02" fill="#d8d8d8" d="M 168.5,402.5 C 165.053,409.07 160.053,414.07 153.5,417.5C 158.167,412.167 163.167,407.167 168.5,402.5 Z"/></g>
<g><path style="opacity:0.906" fill="#787878" d="M 216.5,408.5 C 216.5,411.833 216.5,415.167 216.5,418.5C 215.467,417.088 214.801,415.422 214.5,413.5C 215.198,412.137 215.198,410.971 214.5,410C 215.044,409.283 215.711,408.783 216.5,408.5 Z"/></g>
<g><path style="opacity:0.008" fill="#f5f5f5" d="M 134.5,414.5 C 135.5,414.833 136.167,415.5 136.5,416.5C 135.167,416.5 134.5,415.833 134.5,414.5 Z"/></g>
<g><path style="opacity:0.624" fill="#a0a0a0" d="M 136.5,416.5 C 139.089,417.419 141.089,419.086 142.5,421.5C 139.911,420.581 137.911,418.914 136.5,416.5 Z"/></g>
<g><path style="opacity:0.004" fill="#d5d5d5" d="M 153.5,417.5 C 153.512,420.142 152.179,421.475 149.5,421.5C 150.5,419.833 151.833,418.5 153.5,417.5 Z"/></g>
<g><path style="opacity:0.012" fill="#bcbcbc" d="M 386.5,417.5 C 386.5,418.833 385.833,419.5 384.5,419.5C 384.833,418.5 385.5,417.833 386.5,417.5 Z"/></g>
<g><path style="opacity:0.31" fill="#afafaf" d="M 384.5,420.5 C 384.389,421.117 384.056,421.617 383.5,422C 328.998,422.832 274.665,422.665 220.5,421.5C 275.196,421.821 329.863,421.487 384.5,420.5 Z"/></g>
<g><path style="opacity:0.424" fill="#b6b6b6" d="M 86.5,478.5 C 87.8333,479.167 88.8333,480.167 89.5,481.5C 87.5,481.5 86.5,480.5 86.5,478.5 Z"/></g>
<g><path style="opacity:0.408" fill="#ababab" d="M 412.5,478.5 C 412.5,480.5 411.5,481.5 409.5,481.5C 410.167,480.167 411.167,479.167 412.5,478.5 Z"/></g>
<g><path style="opacity:0.278" fill="#bababa" d="M 89.5,481.5 C 196.167,482.833 302.833,482.833 409.5,481.5C 409.389,482.117 409.056,482.617 408.5,483C 302.5,483.667 196.5,483.667 90.5,483C 89.944,482.617 89.6107,482.117 89.5,481.5 Z"/></g>
<g><path style="opacity:0.243" fill="#cacaca" d="M 68.5,475.5 C 69.2501,482.003 71.9167,487.67 76.5,492.5C 73.5722,491.409 71.4055,489.409 70,486.5C 68.8924,482.914 68.3924,479.247 68.5,475.5 Z"/></g>
<g><path style="opacity:0.035" fill="#dbdbdb" d="M 429.5,480.5 C 429.662,482.527 429.495,484.527 429,486.5C 427.594,489.409 425.428,491.409 422.5,492.5C 425.89,489.045 428.223,485.045 429.5,480.5 Z"/></g>
<g><path style="opacity:0.004" fill="#dedede" d="M 422.5,492.5 C 422.5,493.833 421.833,494.5 420.5,494.5C 420.833,493.5 421.5,492.833 422.5,492.5 Z"/></g>
<g><path style="opacity:0.027" fill="#d6d6d6" d="M 79.5,495.5 C 81.153,495.66 82.4863,496.326 83.5,497.5C 81.6783,498.429 80.3449,497.762 79.5,495.5 Z"/></g>
<g><path style="opacity:0.027" fill="#dadada" d="M 419.5,495.5 C 418.655,497.762 417.322,498.429 415.5,497.5C 416.514,496.326 417.847,495.66 419.5,495.5 Z"/></g>
<g><path style="opacity:0.51" fill="#939393" d="M 83.5,497.5 C 85.8984,497.259 87.8984,497.926 89.5,499.5C 88.1667,499.5 86.8333,499.5 85.5,499.5C 84.8333,498.833 84.1667,498.167 83.5,497.5 Z"/></g>
<g><path style="opacity:0.016" fill="#cbcbcb" d="M 415.5,497.5 C 414.833,498.167 414.167,498.833 413.5,499.5C 412.167,499.5 410.833,499.5 409.5,499.5C 411.214,498.262 413.214,497.595 415.5,497.5 Z"/></g>
</svg>
