<svg width="20" height="20" viewBox="0 0 20 20" fill="none" xmlns="http://www.w3.org/2000/svg">
<path fill-rule="evenodd" clip-rule="evenodd" d="M9.99997 3.33335C8.83393 3.33314 7.68824 3.63876 6.67723 4.21971C5.66623 4.80066 4.82527 5.63662 4.23832 6.64415C3.65136 7.65168 3.33892 8.79553 3.33219 9.96155C3.32546 11.1276 3.62468 12.275 4.19997 13.2892C4.58881 12.7838 5.08866 12.3747 5.66087 12.0933C6.23309 11.812 6.86233 11.666 7.49997 11.6667H12.5C13.1376 11.666 13.7669 11.812 14.3391 12.0933C14.9113 12.3747 15.4111 12.7838 15.8 13.2892C16.3753 12.275 16.6745 11.1276 16.6677 9.96155C16.661 8.79553 16.3486 7.65168 15.7616 6.64415C15.1747 5.63662 14.3337 4.80066 13.3227 4.21971C12.3117 3.63876 11.166 3.33314 9.99997 3.33335ZM16.6191 15.0634C17.7333 13.6108 18.336 11.8307 18.3333 10C18.3333 5.39752 14.6025 1.66669 9.99997 1.66669C5.39747 1.66669 1.66664 5.39752 1.66664 10C1.66388 11.8307 2.26656 13.6109 3.3808 15.0634L3.37664 15.0784L3.67247 15.4225C4.45404 16.3363 5.42446 17.0697 6.51683 17.5722C7.6092 18.0747 8.79755 18.3344 9.99997 18.3334C11.6894 18.3365 13.3395 17.8233 14.7291 16.8625C15.3216 16.4532 15.8588 15.9692 16.3275 15.4225L16.6233 15.0784L16.6191 15.0634ZM9.99997 5.00002C9.33693 5.00002 8.70104 5.26341 8.2322 5.73225C7.76336 6.20109 7.49997 6.83698 7.49997 7.50002C7.49997 8.16306 7.76336 8.79895 8.2322 9.26779C8.70104 9.73663 9.33693 10 9.99997 10C10.663 10 11.2989 9.73663 11.7677 9.26779C12.2366 8.79895 12.5 8.16306 12.5 7.50002C12.5 6.83698 12.2366 6.20109 11.7677 5.73225C11.2989 5.26341 10.663 5.00002 9.99997 5.00002Z" fill="white"/>
</svg>
