<?xml version="1.0" encoding="UTF-8"?>
<svg version="1.1" xmlns="http://www.w3.org/2000/svg" width="200" height="200">
<path d="M0 0 C1.20804794 0.00424484 2.41609589 0.00848969 3.66075134 0.01286316 C7.49151587 0.02955781 11.32174017 0.06719401 15.15234375 0.10546875 C17.76106007 0.12052744 20.3697847 0.13421377 22.97851562 0.14648438 C29.34916417 0.17943133 35.71941259 0.23115068 42.08984375 0.29296875 C42.08984375 4.58296875 42.08984375 8.87296875 42.08984375 13.29296875 C39.56880005 13.3069873 39.56880005 13.3069873 36.99682617 13.32128906 C31.44459718 13.35680594 25.89274688 13.41059656 20.34080029 13.47687149 C16.97449477 13.5163862 13.60845236 13.54855444 10.24194336 13.56396484 C6.3717954 13.58531935 2.50265965 13.63193391 -1.3671875 13.68359375 C-3.18135918 13.68543671 -3.18135918 13.68543671 -5.03218079 13.68731689 C-6.1531163 13.70703552 -7.27405182 13.72675415 -8.42895508 13.74707031 C-9.9112133 13.76039398 -9.9112133 13.76039398 -11.42341614 13.77398682 C-13.96562093 14.10506801 -13.96562093 14.10506801 -15.72946167 15.77958679 C-17.46455555 19.47313611 -17.31921408 23.05441303 -17.2824707 27.05297852 C-17.28612137 27.93631866 -17.28977203 28.81965881 -17.29353333 29.72976685 C-17.30163616 32.64816541 -17.28803193 35.56600834 -17.2734375 38.484375 C-17.27291891 40.51171366 -17.27343657 42.53905283 -17.27494812 44.56639099 C-17.27485841 48.81411246 -17.26443079 53.06164408 -17.24633789 57.30932617 C-17.2236364 62.75931282 -17.2231094 68.20902238 -17.22985554 73.65904331 C-17.23319356 77.84456351 -17.2265688 82.03002031 -17.2167263 86.21552849 C-17.21287223 88.22541917 -17.21172694 90.2353169 -17.21331215 92.24521065 C-17.21368217 95.05106221 -17.20108083 97.85655564 -17.18481445 100.66235352 C-17.18729187 101.49620071 -17.18976929 102.33004791 -17.19232178 103.18916321 C-17.15629708 107.07409578 -17.11482311 108.98596846 -14.91015625 112.29296875 C-11.70008488 113.53158308 -8.48081499 113.42117243 -5.07191467 113.42668152 C-3.28229057 113.43307899 -3.28229057 113.43307899 -1.45651245 113.43960571 C-0.15094391 113.43915253 1.15462463 113.43869934 2.49975586 113.43823242 C3.89123118 113.44122521 5.28270568 113.44462801 6.67417908 113.44841003 C10.45102143 113.45724132 14.22784112 113.45958776 18.00469279 113.46022582 C20.36463262 113.46093673 22.72456669 113.46307181 25.08450508 113.46572304 C33.31830333 113.47497302 41.5520854 113.47905829 49.78588867 113.47827148 C57.46008499 113.47767053 65.13421106 113.48822676 72.8083896 113.50401515 C79.39873076 113.51709042 85.98904895 113.5224554 92.57940298 113.52181607 C96.51483827 113.52156112 100.4502111 113.52441123 104.38563347 113.53499413 C108.08661957 113.54467508 111.78748348 113.54475434 115.48847389 113.53747749 C117.49254574 113.53593335 119.49661757 113.54427812 121.50067139 113.55291748 C122.69657394 113.54872299 123.8924765 113.5445285 125.12461853 113.54020691 C126.68064742 113.54102406 126.68064742 113.54102406 128.26811123 113.54185772 C131.25955925 113.27799911 133.41639696 112.64765319 136.08984375 111.29296875 C137.72938109 108.01389407 137.24616514 104.38035196 137.25097656 100.77587891 C137.25594147 99.8944371 137.26090637 99.0129953 137.26602173 98.10484314 C137.28066114 95.18056465 137.28744818 92.2563404 137.29296875 89.33203125 C137.29871858 87.30422971 137.30447633 85.2764282 137.3102417 83.24862671 C137.32075664 78.99322251 137.32659613 74.73783724 137.33007812 70.48242188 C137.335565 65.02572206 137.35959515 59.56927151 137.38805008 54.11264992 C137.40665975 49.92281358 137.41188116 45.73303748 137.413414 41.5431633 C137.41644465 39.53129081 137.42448701 37.51941948 137.43759918 35.50758743 C137.45462532 32.6944804 137.45278787 29.88198509 137.44628906 27.06884766 C137.46011124 25.81875664 137.46011124 25.81875664 137.47421265 24.54341125 C137.45081132 21.31506509 137.29212928 18.73266607 135.93309021 15.77859497 C133.33500965 13.68458492 131.5596075 13.77489549 128.24145508 13.74707031 C127.04043655 13.72735168 125.83941803 13.70763306 124.602005 13.68731689 C123.3050621 13.68608826 122.0081192 13.68485962 120.671875 13.68359375 C119.33092752 13.66861337 117.98999851 13.65188651 116.64909363 13.63348389 C113.12276365 13.58978081 109.59668254 13.56980521 106.07012939 13.55474854 C102.47043116 13.53518771 98.87100213 13.49321673 95.27148438 13.453125 C88.21101481 13.37779127 81.15063565 13.32959079 74.08984375 13.29296875 C74.08984375 9.00296875 74.08984375 4.71296875 74.08984375 0.29296875 C81.62701288 0.22492171 89.16406589 0.1699972 96.70146847 0.13753223 C100.20221906 0.12194276 103.70274677 0.10082934 107.20336914 0.06665039 C111.23716246 0.0275167 115.27072531 0.01320413 119.3046875 0 C120.54878891 -0.01548386 121.79289032 -0.03096771 123.07469177 -0.04692078 C130.80770144 -0.04840505 138.05983324 0.25868704 144.4296875 5.0546875 C144.95691406 5.69019531 145.48414063 6.32570313 146.02734375 6.98046875 C146.57261719 7.60308594 147.11789063 8.22570313 147.6796875 8.8671875 C151.15391962 14.84363667 151.38357567 21.40449839 151.34863281 28.13647461 C151.35388977 29.40401329 151.35388977 29.40401329 151.35925293 30.69715881 C151.36799553 33.46746235 151.3622471 36.23750673 151.35546875 39.0078125 C151.35681767 40.94780018 151.3587601 42.88778752 151.36126709 44.82777405 C151.36420835 48.8851342 151.35995334 52.94240602 151.35058594 56.99975586 C151.33919969 62.18222823 151.34575203 67.36449322 151.35773087 72.54695797 C151.36498296 76.55084271 151.36264605 80.55467888 151.35747528 84.55856514 C151.35614764 86.46860339 151.35775522 88.37864614 151.36243439 90.28867912 C151.36755404 92.96592642 151.35971328 95.64284531 151.34863281 98.32006836 C151.35268127 99.09800751 151.35672974 99.87594666 151.36090088 100.67745972 C151.31100846 107.23514958 151.01252123 115.09045821 146.40234375 120.16796875 C145.94472656 120.70164062 145.48710937 121.2353125 145.015625 121.78515625 C137.87858358 127.37318462 130.14382513 126.72710337 121.46899414 126.69702148 C119.98341866 126.70272957 118.49784756 126.70969552 117.01228333 126.71781921 C112.99156417 126.73571736 108.97106365 126.7345886 104.95031667 126.72887683 C101.58805449 126.72578015 98.22583402 126.73188274 94.86357778 126.73791558 C86.92895452 126.75194818 78.99443895 126.75041004 71.05981445 126.73901367 C62.88621605 126.72753317 54.71294579 126.74160974 46.53939062 126.76841015 C39.50985983 126.7905926 32.48043185 126.79719882 25.45086855 126.79133373 C21.25766828 126.78796909 17.06467834 126.79034635 12.87150764 126.80758476 C8.92739418 126.8230926 4.98376552 126.81905629 1.03967094 126.80027962 C-0.40343765 126.79660432 -1.84658247 126.79967125 -3.28965759 126.81016541 C-12.96505578 126.87512601 -19.54596094 126.46741643 -26.78515625 119.54296875 C-30.90397868 113.24359327 -31.20635671 106.65028013 -31.16894531 99.34179688 C-31.17244995 98.48541122 -31.17595459 97.62902557 -31.17956543 96.74668884 C-31.18830849 93.93911433 -31.18255997 91.13179546 -31.17578125 88.32421875 C-31.17713003 86.3594152 -31.17907234 84.39461198 -31.18157959 82.42980957 C-31.1845208 78.32117521 -31.18026552 74.21262809 -31.17089844 70.10400391 C-31.15950455 64.85193181 -31.1660694 59.60006418 -31.17804337 54.34799957 C-31.18528907 50.29354324 -31.18296159 46.23913495 -31.17778778 42.18467712 C-31.17645878 40.24869258 -31.17807259 38.3127036 -31.18274689 36.37672424 C-31.18785678 33.66574641 -31.18003951 30.95509436 -31.16894531 28.24414062 C-31.17299377 27.45325546 -31.17704224 26.6623703 -31.18121338 25.84751892 C-31.13011626 19.06770727 -30.48679849 12.27764535 -25.84765625 6.98046875 C-25.32042969 6.34496094 -24.79320312 5.70945312 -24.25 5.0546875 C-17.08353425 -0.3410989 -8.60313898 -0.11517296 0 0 Z " fill="#000000" transform="translate(39.91015625,42.70703125)"/>
<path d="M0 0 C4.38144256 2.9271371 7.22544104 5.94060194 8.41015625 11.20703125 C9.5532736 18.91116592 7.97599382 25.0605352 3.72265625 31.546875 C3.12453125 32.35125 2.52640625 33.155625 1.91015625 33.984375 C3.06515625 34.5 4.22015625 35.015625 5.41015625 35.546875 C13.96216117 39.89099077 19.83537153 45.76002083 22.91015625 54.984375 C23.09765625 58.421875 23.09765625 58.421875 21.91015625 60.984375 C13.63633651 67.08087376 0.8762577 66.34133525 -8.90234375 66.296875 C-10.1346875 66.29341064 -11.36703125 66.28994629 -12.63671875 66.28637695 C-33.90753175 66.03174619 -33.90753175 66.03174619 -41.08984375 59.984375 C-40.8317039 52.88552923 -38.73047523 48.36789343 -34.08984375 42.984375 C-29.77782889 38.99822418 -25.62782233 35.9990702 -20.08984375 33.984375 C-20.59644531 33.22253906 -20.59644531 33.22253906 -21.11328125 32.4453125 C-25.25815511 26.04831065 -27.77642339 20.81138286 -27.08984375 12.984375 C-24.92335441 6.37088123 -21.88253158 2.62713255 -15.90234375 -0.890625 C-10.37495423 -2.52165797 -5.27180072 -2.56199661 0 0 Z M-11.08984375 36.984375 C-10.75984375 37.644375 -10.42984375 38.304375 -10.08984375 38.984375 C-9.09984375 38.654375 -8.10984375 38.324375 -7.08984375 37.984375 C-8.40984375 37.654375 -9.72984375 37.324375 -11.08984375 36.984375 Z M-11.08984375 40.984375 C-12.15113801 43.22688378 -13.18865608 45.47586589 -14.21484375 47.734375 C-14.51777344 48.36859375 -14.82070313 49.0028125 -15.1328125 49.65625 C-16.84057451 53.34927284 -16.84057451 53.34927284 -16.43359375 57.265625 C-14.51549486 59.7190073 -12.34780364 61.84525511 -10.08984375 63.984375 C-5.45715449 62.26856416 -4.71359168 60.33287252 -1.08984375 55.984375 C-3.06984375 51.034375 -5.04984375 46.084375 -7.08984375 40.984375 C-8.40984375 40.984375 -9.72984375 40.984375 -11.08984375 40.984375 Z " fill="#000000" transform="translate(71.08984375,74.015625)"/>
<path d="M0 0 C8.91 0 17.82 0 27 0 C27 10.89 27 21.78 27 33 C18.09 33 9.18 33 0 33 C0 22.11 0 11.22 0 0 Z " fill="#000000" transform="translate(84,31)"/>
<path d="M0 0 C0.66178253 -0.00175232 1.32356506 -0.00350464 2.00540161 -0.00531006 C4.20284615 -0.00972764 6.40021083 -0.00679094 8.59765625 -0.00341797 C10.11840836 -0.00409104 11.63916037 -0.00506108 13.15991211 -0.00631714 C16.35108461 -0.00779398 19.54222917 -0.00563999 22.73339844 -0.00097656 C26.83280155 0.00472073 30.93213921 0.00144165 35.03153992 -0.00454903 C38.17297869 -0.008155 41.31440183 -0.00701589 44.45584106 -0.00442123 C45.96778369 -0.00375207 47.47972771 -0.00458003 48.9916687 -0.00690079 C51.10125512 -0.00942792 53.21073412 -0.00558591 55.3203125 0 C56.52308838 0.00079559 57.72586426 0.00159119 58.96508789 0.00241089 C61.66015625 0.12939453 61.66015625 0.12939453 62.66015625 1.12939453 C62.84765625 3.56689453 62.84765625 3.56689453 62.66015625 6.12939453 C59.89896046 8.89059032 58.28914859 8.38867998 54.42211914 8.40405273 C53.11058365 8.41358475 51.79904816 8.42311676 50.44776917 8.43293762 C49.00945001 8.4326762 47.57113083 8.43173919 46.1328125 8.43017578 C44.6631203 8.4340613 43.19342923 8.43839567 41.72373962 8.44316101 C38.64106611 8.45062944 35.5585071 8.45032759 32.47583008 8.44506836 C28.52334476 8.43927427 24.57132813 8.45619976 20.61892033 8.47941303 C17.58289342 8.49413821 14.54697968 8.49502374 11.51092339 8.49190331 C10.05365508 8.49241718 8.59638056 8.49766739 7.1391468 8.50771523 C5.10199678 8.52003669 3.06475231 8.51136076 1.02758789 8.50170898 C-0.71209511 8.50265312 -0.71209511 8.50265312 -2.48692322 8.50361633 C-5.33984375 8.12939453 -5.33984375 8.12939453 -7.25343323 6.73893738 C-8.33984375 5.12939453 -8.33984375 5.12939453 -8.08984375 3.00439453 C-6.49459443 -0.98372876 -4.01412187 0.0026552 0 0 Z " fill="#000000" transform="translate(105.33984375,84.87060546875)"/>
<path d="M0 0 C2.77062988 -0.3742218 2.77062988 -0.3742218 6.34570312 -0.37231445 C6.99627182 -0.37596512 7.64684052 -0.37961578 8.31712341 -0.38337708 C10.47209611 -0.39149702 12.62632022 -0.37786153 14.78125 -0.36328125 C16.27575683 -0.36276281 17.77026435 -0.36327988 19.26477051 -0.36479187 C22.39878503 -0.36470208 25.53254266 -0.35425969 28.66650391 -0.33618164 C32.68851763 -0.31349404 36.71015579 -0.31294959 40.73221588 -0.31969929 C43.81882072 -0.32303701 46.90533956 -0.31641293 49.9919281 -0.30657005 C51.47512869 -0.30271435 52.95833883 -0.30157137 54.44154358 -0.3031559 C56.51264753 -0.30352579 58.58326573 -0.29092843 60.65429688 -0.2746582 C62.42395813 -0.26774712 62.42395813 -0.26774712 64.22937012 -0.26069641 C67 0 67 0 69 2 C69.125 4.625 69.125 4.625 69 7 C66.16605613 8.41697193 63.79126262 8.11945929 60.62255859 8.11352539 C59.64188667 8.11374443 59.64188667 8.11374443 58.6414032 8.1139679 C56.47704773 8.11327036 54.31277796 8.1054854 52.1484375 8.09765625 C50.64913988 8.09579151 49.14984166 8.09436787 47.65054321 8.09336853 C43.70168378 8.08954779 39.75286104 8.07972128 35.80401611 8.06866455 C31.77559913 8.05844091 27.74717622 8.05386887 23.71875 8.04882812 C15.81248315 8.03809862 7.90624614 8.0210275 0 8 C-1.125 5.6875 -1.125 5.6875 -2 3 C-1.34 2.01 -0.68 1.02 0 0 Z " fill="#000000" transform="translate(99,114)"/>
<path d="M0 0 C8.97920777 -0.02312566 17.95840537 -0.04091623 26.93763638 -0.05181217 C31.10662828 -0.05704051 35.27559987 -0.06413726 39.44458008 -0.07543945 C43.46457686 -0.08627008 47.48455405 -0.09227721 51.50456429 -0.09487724 C53.04162975 -0.09673118 54.57869409 -0.10035119 56.11575127 -0.10573006 C58.26135487 -0.11294284 60.40687655 -0.11399084 62.55249023 -0.11352539 C63.77604721 -0.115746 64.99960419 -0.11796661 66.26023865 -0.12025452 C69 0 69 0 70 1 C70.125 3.5 70.125 3.5 70 6 C68.15398688 7.84601312 65.14694509 7.13741323 62.67602539 7.14526367 C61.68576103 7.15030159 61.68576103 7.15030159 60.67549133 7.15544128 C58.48286075 7.16497695 56.29030631 7.1668957 54.09765625 7.16796875 C52.5792996 7.17117955 51.06094327 7.17454349 49.54258728 7.17805481 C46.35561404 7.18405265 43.16866794 7.18589404 39.98168945 7.18530273 C35.891304 7.18520108 31.80109203 7.19885343 27.71074772 7.21607494 C24.57355444 7.22717571 21.43640334 7.22922254 18.29919243 7.22869301 C16.7908614 7.22987603 15.28252939 7.23431575 13.77421761 7.24202538 C11.66714341 7.25178662 9.56044902 7.24896282 7.45336914 7.24291992 C6.25281387 7.24434494 5.05225861 7.24576996 3.81532288 7.24723816 C1 7 1 7 -1 5 C-0.625 2.375 -0.625 2.375 0 0 Z " fill="#000000" transform="translate(98,100)"/>
</svg>
