<?xml version="1.0" encoding="UTF-8"?>
<svg version="1.1" xmlns="http://www.w3.org/2000/svg" width="225" height="225">
<path d="M0 0 C74.25 0 148.5 0 225 0 C225 74.25 225 148.5 225 225 C150.75 225 76.5 225 0 225 C0 150.75 0 76.5 0 0 Z " fill="#FBFBFB" transform="translate(0,0)"/>
<path d="M0 0 C74.25 0 148.5 0 225 0 C225.020625 34.794375 225.04125 69.58875 225.0625 105.4375 C225.071604 116.44407959 225.08070801 127.45065918 225.09008789 138.79077148 C225.09460449 152.17980957 225.09460449 152.17980957 225.09544373 158.43788147 C225.09637942 162.83034261 225.10014285 167.22279179 225.10557556 171.61524963 C225.11240039 177.20675105 225.11449755 182.79823491 225.11307228 188.38974011 C225.1133706 190.44891111 225.11537367 192.50808269 225.11921513 194.56725013 C225.12414067 197.33464596 225.12300784 200.10197231 225.12025452 202.86936951 C225.12316718 203.68721452 225.12607985 204.50505953 225.12908077 205.34768772 C225.11412483 210.88587517 225.11412483 210.88587517 224 212 C220.89748799 212.08874135 217.8173188 212.11518455 214.71484375 212.09765625 C213.78402481 212.0962413 212.85320587 212.09482635 211.8941803 212.09336853 C208.90858809 212.08775172 205.92306971 212.0751964 202.9375 212.0625 C200.91862087 212.05748716 198.89974057 212.05292388 196.88085938 212.04882812 C191.92054428 212.03777683 186.96028468 212.02050095 182 212 C181.34 210.02 180.68 208.04 180 206 C192.87 206 205.74 206 219 206 C219 166.07 219 126.14 219 85 C204.81 85 190.62 85 176 85 C176 123.28 176 161.56 176 201 C170 196 170 196 169.26171303 192.43307781 C169.23663484 191.03011705 169.24446142 189.62632915 169.2784729 188.22355652 C169.27334635 187.447493 169.2682198 186.67142948 169.2629379 185.87184888 C169.25306435 183.2746381 169.28603396 180.67975962 169.31884766 178.08276367 C169.3205403 176.21998143 169.31958971 174.35719519 169.31619263 172.49441528 C169.31447019 167.438737 169.34976065 162.38391177 169.39163637 157.32843184 C169.42912881 152.04470751 169.43266757 146.7609639 169.43978882 141.47712708 C169.458442 131.47209408 169.5076856 121.46745418 169.56788576 111.46259433 C169.6474718 97.94262438 169.67987365 84.42254703 169.71489906 70.90240192 C169.77132748 49.60130681 169.89085718 28.30104123 170 7 C132.05 7 94.1 7 55 7 C55.06960937 20.56222656 55.13921875 34.12445313 55.2109375 48.09765625 C55.24158722 56.67904329 55.27071847 65.26039076 55.29296875 73.84179688 C55.32858499 87.46880626 55.37047811 101.09559323 55.45263672 114.72241211 C55.51244131 124.6463271 55.55114984 134.57006183 55.56453097 144.49415201 C55.57235288 149.7489484 55.5907345 155.00322909 55.63438034 160.25786018 C55.67513787 165.20488981 55.6876626 170.15119184 55.67864609 175.09837341 C55.68029532 176.91282545 55.69221167 178.72730207 55.71523285 180.54160881 C55.90135747 195.96822449 55.90135747 195.96822449 52.01992798 200.63401794 C49 203 49 203 48 203 C48 164.06 48 125.12 48 85 C34.14 85 20.28 85 6 85 C6 124.93 6 164.86 6 206 C18.87 206 31.74 206 45 206 C44.34 207.98 43.68 209.96 43 212 C37.03686834 212.02464574 31.07376605 212.042834 25.1105957 212.05493164 C23.08031702 212.05997278 21.05004198 212.06680557 19.01977539 212.07543945 C16.10822653 212.08751467 13.1967255 212.09323034 10.28515625 212.09765625 C8.91485008 212.10539818 8.91485008 212.10539818 7.51686096 212.11329651 C5.34424573 212.11349168 3.17172704 212.06211805 1 212 C-0.800274 210.199726 -0.12260842 207.74439883 -0.12908077 205.34768772 C-0.12471178 204.12092021 -0.12471178 204.12092021 -0.12025452 202.86936951 C-0.12111053 202.00897568 -0.12196655 201.14858185 -0.12284851 200.26211548 C-0.12451408 197.34716777 -0.11896333 194.43227651 -0.11352539 191.51733398 C-0.11321931 189.4046151 -0.11335212 187.29189612 -0.11389065 185.17917728 C-0.11411723 179.50023362 -0.10830408 173.82131085 -0.10128021 168.14237213 C-0.09560265 162.82151724 -0.09531804 157.50066754 -0.09460449 152.17980957 C-0.08934854 136.59903692 -0.07538751 121.0182682 -0.0625 105.4375 C-0.041875 70.643125 -0.02125 35.84875 0 0 Z " fill="#080808" transform="translate(0,0)"/>
<path d="M0 0 C1.22419144 0.00067978 1.22419144 0.00067978 2.47311401 0.00137329 C3.32836166 -0.00198532 4.18360931 -0.00534393 5.06477356 -0.00880432 C7.90671215 -0.01834402 10.74859202 -0.02025893 13.59054565 -0.02133179 C15.55730718 -0.02454224 17.52406846 -0.02790615 19.49082947 -0.03141785 C23.61937006 -0.03741666 27.74788968 -0.03925697 31.87643433 -0.03866577 C37.1774866 -0.0385641 42.47840508 -0.05221812 47.77942562 -0.06943798 C51.84307986 -0.08053386 55.9067015 -0.08258573 59.97036934 -0.08205605 C61.92527287 -0.08323974 63.88017714 -0.08768317 65.83506584 -0.09538841 C68.5647721 -0.10513991 71.2941847 -0.10232956 74.02389526 -0.09628296 C75.24505035 -0.10471222 75.24505035 -0.10471222 76.49087524 -0.11331177 C82.08488651 -0.08167843 82.08488651 -0.08167843 84.3132019 2.14663696 C84.51326493 5.136258 84.59293113 8.03126046 84.5788269 11.02163696 C84.58074036 11.90190552 84.58265381 12.78217407 84.58462524 13.68911743 C84.58598742 15.5519133 84.58228872 17.41471866 84.57394409 19.27749634 C84.56324497 22.13513432 84.57383822 24.99214362 84.5866394 27.84976196 C84.58531782 29.65705502 84.58275543 31.46434769 84.5788269 33.27163696 C84.58287537 34.12999146 84.58692383 34.98834595 84.59109497 35.87271118 C84.54311935 41.91671952 84.54311935 41.91671952 82.3132019 44.14663696 C79.51719837 44.34002328 76.82062666 44.40886187 74.02389526 44.38955688 C73.16689529 44.39145523 72.30989532 44.39335358 71.42692566 44.39530945 C68.58554017 44.39902343 65.74440854 44.38830501 62.90304565 44.37710571 C60.9353183 44.37591425 58.96759037 44.37546068 56.99986267 44.37571716 C52.87307177 44.37415127 48.7463675 44.36585292 44.61959839 44.35244751 C39.31738676 44.33544639 34.01527032 44.33163342 28.71303463 44.33239269 C24.64942 44.3321214 20.58582637 44.32664691 16.5222187 44.31939125 C14.56649497 44.31619881 12.61076885 44.31423584 10.65504265 44.31349754 C7.92769143 44.31134068 5.20044327 44.30261103 2.47311401 44.29190063 C1.24892258 44.29258041 1.24892258 44.29258041 0 44.29327393 C-5.57232369 44.26111137 -5.57232369 44.26111137 -6.6867981 43.14663696 C-6.7879673 40.05582231 -6.82648367 36.98781141 -6.8196106 33.89663696 C-6.82056732 32.9681897 -6.82152405 32.03974243 -6.82250977 31.0831604 C-6.82319165 29.11603732 -6.82133681 27.148912 -6.81716919 25.18179321 C-6.81182105 22.1596067 -6.81711392 19.13756882 -6.82351685 16.11538696 C-6.82285607 14.20913663 -6.82157491 12.3028864 -6.8196106 10.39663696 C-6.82163483 9.48623657 -6.82365906 8.57583618 -6.82574463 7.6378479 C-6.79714749 0.03923204 -6.79714749 0.03923204 0 0 Z " fill="#050505" transform="translate(73.68679809570313,18.853363037109375)"/>
<path d="M0 0 C17.49 0 34.98 0 53 0 C53 26.73 53 53.46 53 81 C52.01 80.505 52.01 80.505 51 80 C49.4892243 79.88194823 47.97361169 79.82303551 46.45849609 79.79467773 C45.51767181 79.77473251 44.57684753 79.75478729 43.60751343 79.73423767 C42.58976837 79.71752518 41.57202332 79.70081268 40.5234375 79.68359375 C38.96286118 79.6524221 38.96286118 79.6524221 37.37075806 79.62062073 C34.03890751 79.55510128 30.7069765 79.49622908 27.375 79.4375 C25.11978326 79.39431706 22.86457473 79.35070285 20.609375 79.30664062 C15.07300236 79.19941748 9.53654922 79.09765554 4 79 C3.99413376 78.05452805 3.98826752 77.10905609 3.98222351 76.13493347 C3.9250544 67.23243304 3.85232355 58.33017824 3.76428509 49.42792797 C3.71952361 44.85097698 3.6802804 40.2741162 3.65356445 35.69702148 C3.62758887 31.28131581 3.58722773 26.86595619 3.53681374 22.45046425 C3.520106 20.76437999 3.5086161 19.07823583 3.50238609 17.39208031 C3.49278715 15.03339582 3.46478016 12.6756045 3.43237305 10.31713867 C3.43380814 9.61726837 3.43524323 8.91739807 3.4367218 8.19631958 C3.35340039 3.91932096 3.19713899 3.19713899 0 0 Z " fill="#FDFDFD" transform="translate(172,0)"/>
<path d="M0 0 C17.16 0 34.32 0 52 0 C51.01 1.32 50.02 2.64 49 4 C48.69726663 6.52701442 48.56234823 8.8121374 48.56762695 11.33886719 C48.5574353 12.07096909 48.54724365 12.80307098 48.53674316 13.55735779 C48.50661486 15.97060805 48.49734776 18.38346138 48.48828125 20.796875 C48.47143439 22.47269001 48.45328414 24.14849239 48.43388367 25.82427979 C48.38637809 30.23008272 48.35657243 34.63583442 48.33044434 39.04180908 C48.30064158 43.5396944 48.25411028 48.03740318 48.20898438 52.53515625 C48.12294498 61.3566785 48.05560255 70.17823708 48 79 C47.42814972 79.01030746 46.85629944 79.02061493 46.26712036 79.03123474 C40.33014214 79.13918315 34.39331929 79.25379042 28.45654297 79.37231445 C26.23912803 79.41570078 24.02167888 79.45737308 21.80419922 79.49731445 C18.62196528 79.55492754 15.43990416 79.61864764 12.2578125 79.68359375 C11.26194122 79.70030624 10.26606995 79.71701874 9.24002075 79.73423767 C8.31921722 79.75418289 7.3984137 79.77412811 6.44970703 79.79467773 C5.23059128 79.81799416 5.23059128 79.81799416 3.98684692 79.84178162 C1.92561733 79.88102414 1.92561733 79.88102414 0 81 C0 54.27 0 27.54 0 0 Z " fill="#FEFEFE" transform="translate(0,0)"/>
<path d="M0 0 C4.63341616 2.81286647 8.23008845 5.94700613 10.375 11 C10.90424602 14.41383884 11.12329525 17.69132067 11.171875 21.14453125 C11.15298407 24.20242765 11.15298407 24.20242765 13.375 27 C15.13235965 38.13675594 9.85905181 46.48314032 3.90234375 55.38671875 C2.46186119 57.85138073 1.81250595 59.65911641 1.3125 62.4375 C0.375 66 0.375 66 -2.5 68.4375 C-7.78047073 71.07773536 -12.76782421 71.70937972 -18.625 71 C-23.10655091 69.45779679 -25.97077922 67.98133117 -28.625 64 C-29.07664712 62.67810599 -29.48993236 61.34279998 -29.875 60 C-31.41677246 55.1701618 -33.73081079 50.97653291 -36.1953125 46.5625 C-39.62137686 40.42179448 -41.64201683 35.14553385 -40.625 28 C-40.295 27.36964844 -39.965 26.73929688 -39.625 26.08984375 C-38.33877743 23.40183955 -38.38557178 21.2190218 -38.3125 18.25 C-37.88304644 12.37364384 -36.71705339 8.32216886 -32.625 4 C-23.59491443 -3.0410024 -10.59263339 -4.81924389 0 0 Z " fill="#010101" transform="translate(126.625,125)"/>
<path d="M0 0 C4.15666228 1.5993253 8.16810307 3.46338545 12.1875 5.375 C17.38896556 7.84843309 22.56832566 10.07526391 28.046875 11.8828125 C30 13 30 13 33 18 C33 22.29 33 26.58 33 31 C18.15 31 3.3 31 -12 31 C-5.25 13 -5.25 13 -2.625 6.5 C-2.36589844 5.85675781 -2.10679687 5.21351563 -1.83984375 4.55078125 C-1.22826745 3.03316598 -0.61442882 1.51646262 0 0 Z " fill="#040404" transform="translate(135,194)"/>
<path d="M0 0 C1.71117059 4.25327531 3.42010968 8.50743753 5.12695312 12.76245117 C5.70836551 14.21094192 6.29039555 15.6591849 6.87304688 17.10717773 C7.70864345 19.18408996 8.54204147 21.26187236 9.375 23.33984375 C9.63748535 23.99089584 9.8999707 24.64194794 10.17041016 25.31272888 C12 29.88612829 12 29.88612829 12 31 C-2.52 31 -17.04 31 -32 31 C-32 16 -32 16 -29 12 C-27.14990234 10.98266602 -27.14990234 10.98266602 -25.0859375 10.25390625 C-24.32861328 9.97619385 -23.57128906 9.69848145 -22.79101562 9.41235352 C-21.99373047 9.13190186 -21.19644531 8.8514502 -20.375 8.5625 C-14.46818524 6.39091148 -8.90925652 4.16622773 -3.53125 0.84765625 C-2 0 -2 0 0 0 Z " fill="#030303" transform="translate(89,194)"/>
<path d="M0 0 C6.6 0 13.2 0 20 0 C20 6.6 20 13.2 20 20 C13.4 20 6.8 20 0 20 C0 13.4 0 6.8 0 0 Z " fill="#020202" transform="translate(135,78)"/>
<path d="M0 0 C6.6 0 13.2 0 20 0 C20 6.6 20 13.2 20 20 C13.4 20 6.8 20 0 20 C0 13.4 0 6.8 0 0 Z " fill="#000000" transform="translate(102,78)"/>
<path d="M0 0 C6.6 0 13.2 0 20 0 C20 6.6 20 13.2 20 20 C13.4 20 6.8 20 0 20 C0 13.4 0 6.8 0 0 Z " fill="#000000" transform="translate(69,78)"/>
<path d="M0 0 C1.76537109 -0.00386719 1.76537109 -0.00386719 3.56640625 -0.0078125 C6.4375 0.125 6.4375 0.125 7.4375 1.125 C7.57865161 3.79558851 7.47997107 6.44932238 7.4375 9.125 C6.1175 9.455 4.7975 9.785 3.4375 10.125 C4.4275 15.075 5.4175 20.025 6.4375 25.125 C2.1475 25.125 -2.1425 25.125 -6.5625 25.125 C-6.01104729 19.88619922 -5.13327907 15.15149303 -3.5625 10.125 C-5.2125 9.795 -6.8625 9.465 -8.5625 9.125 C-8.5625 6.485 -8.5625 3.845 -8.5625 1.125 C-5.69616205 -0.30816898 -3.19014499 -0.00700361 0 0 Z " fill="#090909" transform="translate(112.5625,199.875)"/>
<path d="M0 0 C5.94 0 11.88 0 18 0 C16.68 2.31 15.36 4.62 14 7 C11.53303381 11.38571768 10.5014926 14.98507398 10 20 C6.7 20 3.4 20 0 20 C0 13.4 0 6.8 0 0 Z " fill="#040404" transform="translate(69,116)"/>
<path d="M0 0 C5.28 0 10.56 0 16 0 C16 6.6 16 13.2 16 20 C13.69 20 11.38 20 9 20 C8.79375 18.700625 8.5875 17.40125 8.375 16.0625 C7.16569937 10.48382848 4.3020756 6.55359113 1 2 C0.67 1.34 0.34 0.68 0 0 Z " fill="#030303" transform="translate(139,116)"/>
<path d="M0 0 C4.95 0 9.9 0 15 0 C15 3.96 15 7.92 15 12 C12.68756208 12.02685412 10.3750373 12.04632841 8.0625 12.0625 C6.77472656 12.07410156 5.48695312 12.08570312 4.16015625 12.09765625 C1 12 1 12 0 11 C-0.14310287 7.3308423 -0.04221662 3.67284559 0 0 Z " fill="#161616" transform="translate(21,101)"/>
<path d="M0 0 C4.62 0 9.24 0 14 0 C14 3.96 14 7.92 14 12 C9.38 12 4.76 12 0 12 C0 8.04 0 4.08 0 0 Z " fill="#0E0E0E" transform="translate(189,101)"/>
<path d="M0 0 C4.62 0 9.24 0 14 0 C14 3.63 14 7.26 14 11 C9.38 11 4.76 11 0 11 C0 7.37 0 3.74 0 0 Z " fill="#000000" transform="translate(189,148)"/>
<path d="M0 0 C4.62 0 9.24 0 14 0 C14 3.63 14 7.26 14 11 C9.38 11 4.76 11 0 11 C0 7.37 0 3.74 0 0 Z " fill="#000000" transform="translate(22,148)"/>
<path d="M0 0 C4.62 0 9.24 0 14 0 C14 3.63 14 7.26 14 11 C9.38 11 4.76 11 0 11 C0 7.37 0 3.74 0 0 Z " fill="#000000" transform="translate(189,125)"/>
<path d="M0 0 C4.62 0 9.24 0 14 0 C14 3.63 14 7.26 14 11 C9.38 11 4.76 11 0 11 C0 7.37 0 3.74 0 0 Z " fill="#000000" transform="translate(22,125)"/>
</svg>
