<?xml version="1.0" standalone="no"?>
<!DOCTYPE svg PUBLIC "-//W3C//DTD SVG 20010904//EN"
 "http://www.w3.org/TR/2001/REC-SVG-20010904/DTD/svg10.dtd">
<svg version="1.0" xmlns="http://www.w3.org/2000/svg"
 width="124.000000pt" height="120.000000pt" viewBox="0 0 124.000000 120.000000"
 preserveAspectRatio="xMidYMid meet">

<g transform="translate(0.000000,120.000000) scale(0.100000,-0.100000)"
fill="#000000" stroke="none">
<path d="M299 1031 c-25 -25 -29 -37 -29 -83 0 -44 -5 -57 -27 -78 -34 -33
-53 -79 -53 -132 1 -83 31 -98 192 -98 136 0 165 9 187 54 20 43 0 122 -44
173 -19 22 -32 43 -28 46 14 14 -9 96 -34 121 -21 22 -35 26 -80 26 -47 0 -59
-4 -84 -29z m119 -43 c16 -16 16 -90 0 -106 -47 -47 -112 35 -78 99 12 22 59
26 78 7z m-39 -180 c22 0 52 7 66 16 24 16 25 16 45 -16 11 -18 20 -48 20 -65
l0 -33 -124 0 c-75 0 -127 4 -131 10 -10 16 4 66 27 95 19 24 22 25 38 10 10
-9 36 -16 59 -17z"/>
<path d="M854 960 c-31 -12 -54 -49 -54 -87 l0 -33 -89 0 c-100 0 -130 -14
-111 -51 9 -17 22 -19 105 -19 l95 0 0 -36 c0 -26 8 -43 30 -66 l30 -30 111 4
c147 4 149 7 149 160 0 60 -4 118 -10 128 -5 10 -24 23 -41 29 -37 13 -184 14
-215 1z m204 -157 l3 -93 -96 0 -95 0 0 95 0 96 93 -3 92 -3 3 -92z"/>
<path d="M902 868 c-16 -16 -15 -33 3 -48 14 -12 14 -15 0 -30 -19 -21 -19
-34 0 -50 13 -11 20 -11 40 0 20 10 27 11 40 0 8 -7 22 -10 30 -6 17 6 20 47
4 63 -8 8 -8 13 0 17 17 11 13 53 -5 60 -9 4 -24 0 -33 -8 -14 -13 -19 -13
-35 0 -24 17 -29 17 -44 2z"/>
<path d="M942 568 c-8 -8 -12 -44 -12 -103 0 -57 -4 -95 -12 -103 -13 -13
-128 -17 -128 -4 0 5 9 17 20 27 25 22 23 58 -3 63 -20 4 -137 -105 -137 -128
0 -23 117 -132 137 -128 26 5 28 41 3 63 -11 10 -20 22 -20 27 0 4 31 8 69 8
60 0 74 3 101 26 l31 26 -3 117 c-2 94 -6 116 -18 119 -9 1 -21 -3 -28 -10z"/>
<path d="M282 519 c-198 -98 -141 -401 79 -417 80 -6 137 17 188 74 97 111 60
284 -73 345 -56 26 -140 25 -194 -2z m208 -123 c0 -2 3 -11 6 -20 8 -21 -102
-136 -130 -136 -24 0 -96 67 -96 90 0 16 18 40 31 40 4 0 21 -11 37 -25 l29
-24 38 39 c23 24 48 40 62 40 13 0 23 -2 23 -4z"/>
</g>
</svg>
