<svg width="103" height="100" viewBox="0 0 103 100" fill="none" xmlns="http://www.w3.org/2000/svg">
<ellipse cx="51.5" cy="50" rx="51.5" ry="50" fill="#D9F3D5"/>
<path d="M71.833 40.3334L51.4997 53.0417L31.1663 40.3334V35.25L51.4997 47.9584L71.833 35.25M71.833 30.1667H31.1663C28.3451 30.1667 26.083 32.4288 26.083 35.25V65.75C26.083 67.0982 26.6186 68.3912 27.5719 69.3445C28.5252 70.2978 29.8182 70.8334 31.1663 70.8334H71.833C73.1812 70.8334 74.4742 70.2978 75.4275 69.3445C76.3808 68.3912 76.9163 67.0982 76.9163 65.75V35.25C76.9163 33.9018 76.3808 32.6089 75.4275 31.6556C74.4742 30.7023 73.1812 30.1667 71.833 30.1667Z" fill="#4ECB71"/>
</svg>
